{"glyphs":{"0":{"ha":694,"x_min":85,"x_max":706,"o":"m 283 -14 q 169 31 213 -14 q 105 151 125 75 q 88 320 85 226 q 111 514 90 414 q 170 708 132 614 q 260 877 208 801 q 374 997 311 953 q 508 1042 438 1042 q 623 997 579 1042 q 686 877 667 953 q 703 708 706 801 q 680 514 701 614 q 621 320 658 414 q 532 151 583 226 q 417 31 481 75 q 283 -14 354 -14 m 294 38 q 447 107 389 38 q 532 299 506 176 l 624 729 q 621 922 650 853 q 497 990 592 990 q 341 918 397 990 q 260 729 285 846 l 168 299 q 170 107 142 176 q 294 38 199 38 z "},"1":{"ha":694,"x_min":-18,"x_max":625,"o":"m -18 0 l -8 47 l 268 47 l 446 882 l 179 882 l 188 919 l 326 931 q 444 961 392 936 q 540 1042 497 986 l 574 1042 l 363 47 l 625 47 l 615 0 l -18 0 z "},"2":{"ha":694,"x_min":33,"x_max":717,"o":"m 104 -14 q 56 9 79 -14 q 33 85 33 32 q 60 205 33 150 q 126 305 86 260 q 209 384 167 350 q 282 440 251 418 l 426 544 q 474 579 443 556 q 538 639 504 603 q 594 722 571 675 q 617 825 617 768 q 572 947 617 901 q 450 993 528 993 q 363 975 401 993 q 299 930 324 957 q 261 878 274 903 l 306 825 q 324 802 313 818 q 336 760 336 786 q 312 701 336 726 q 256 676 288 676 q 210 697 231 676 q 189 769 189 718 q 232 902 189 840 q 345 1003 275 964 q 497 1042 415 1042 q 658 983 599 1042 q 717 833 717 924 q 685 708 717 764 q 606 611 653 653 q 515 540 560 569 q 446 496 471 511 l 300 403 q 213 338 260 376 q 130 251 167 300 q 81 143 93 201 q 146 201 103 171 q 239 231 189 231 q 315 206 285 231 q 369 151 346 182 q 419 95 393 119 q 479 71 444 71 q 535 94 514 71 q 569 151 557 118 q 586 214 581 185 l 614 346 l 647 342 l 621 213 q 604 143 615 182 q 574 69 593 104 q 522 10 554 33 q 442 -14 490 -14 q 369 7 396 -14 q 325 58 342 28 q 294 119 308 89 q 260 171 279 150 q 208 192 242 192 q 142 169 174 192 q 96 125 111 147 l 128 97 q 147 76 135 92 q 158 38 158 61 q 146 1 158 17 q 104 -14 133 -14 z "},"3":{"ha":694,"x_min":64,"x_max":743,"o":"m 274 -14 q 117 42 169 -14 q 64 188 64 99 q 82 291 64 243 q 129 369 100 339 q 193 400 158 400 q 243 349 243 400 q 226 300 243 321 q 190 266 210 279 q 158 246 169 253 l 111 217 q 118 126 104 168 q 172 60 132 85 q 283 35 213 35 q 442 85 381 35 q 525 232 504 136 l 565 419 q 557 538 581 489 q 453 588 533 588 q 350 565 399 588 q 253 508 301 543 l 229 536 l 675 935 l 435 935 q 385 926 414 935 q 328 897 356 918 q 289 835 301 875 l 257 731 l 218 731 l 281 1028 l 743 1028 l 724 935 l 356 610 l 357 606 q 404 623 375 614 q 471 632 433 632 q 560 612 519 632 q 626 545 601 592 q 651 419 651 499 q 624 265 651 342 q 548 124 597 188 q 429 24 499 61 q 274 -14 360 -14 z "},"4":{"ha":694,"x_min":53,"x_max":674,"o":"m 182 0 l 192 47 l 371 47 l 424 296 l 53 296 l 63 343 l 621 1028 l 674 1028 l 528 343 l 672 343 l 663 296 l 518 296 l 465 47 l 631 47 l 621 0 l 182 0 m 108 343 l 433 343 l 549 883 l 108 343 z "},"5":{"ha":694,"x_min":78,"x_max":768,"o":"m 293 -14 q 138 41 197 -14 q 78 192 78 96 q 96 292 78 244 q 144 370 114 340 q 208 400 174 400 q 257 350 257 400 q 240 301 257 322 q 203 267 224 281 q 172 246 183 253 l 126 217 q 160 88 115 140 q 300 35 204 35 q 449 85 390 35 q 529 232 508 136 l 572 433 q 558 554 588 507 q 444 601 529 601 q 344 581 390 601 q 264 533 297 561 q 213 478 231 504 l 174 483 l 351 1028 l 699 1028 l 743 1042 l 768 1042 l 746 935 l 357 935 l 226 540 q 281 588 246 564 q 363 629 317 613 q 461 646 410 646 q 603 590 550 646 q 656 418 656 535 q 628 256 656 333 q 551 118 600 179 q 435 22 501 57 q 293 -14 369 -14 z "},"6":{"ha":694,"x_min":96,"x_max":747,"o":"m 310 -14 q 207 11 256 -14 q 127 99 158 36 q 96 276 96 163 q 119 476 96 371 q 184 682 142 582 q 285 863 226 782 q 418 993 344 944 q 576 1042 492 1042 q 699 1002 650 1042 q 747 888 747 963 q 732 806 747 846 q 691 742 717 767 q 633 717 665 717 q 588 763 588 717 q 601 805 588 788 q 633 835 615 822 q 663 856 650 847 l 700 881 q 673 966 711 932 q 571 1000 635 1000 q 421 940 490 1000 q 298 769 351 881 q 210 504 244 658 l 196 442 l 207 442 q 256 533 222 486 q 342 613 290 581 q 461 646 394 646 q 608 580 557 646 q 660 408 660 514 q 635 261 660 336 q 564 124 610 186 q 453 24 518 63 q 310 -14 389 -14 m 324 35 q 460 87 403 35 q 538 236 517 139 l 571 396 q 556 548 592 494 q 446 601 521 601 q 310 548 371 601 q 228 396 249 494 l 194 236 q 209 87 174 139 q 324 35 244 35 z "},"7":{"ha":694,"x_min":169,"x_max":761,"o":"m 179 0 l 193 65 q 270 308 224 207 q 372 481 317 410 q 483 605 426 553 q 588 700 539 657 q 671 787 636 743 q 718 888 706 831 q 666 847 703 868 q 581 825 629 825 q 498 845 531 825 q 441 891 465 865 q 391 937 417 917 q 331 957 365 957 q 276 934 294 957 q 247 878 257 911 q 231 814 238 846 l 211 724 l 169 724 l 235 1028 l 276 1028 l 261 961 l 267 961 q 307 1013 279 985 q 383 1042 335 1042 q 444 1024 421 1042 q 485 979 468 1006 q 517 926 501 953 q 553 882 532 900 q 607 864 574 864 q 663 880 639 864 q 697 910 688 896 l 686 915 q 649 939 665 926 q 633 978 633 951 q 651 1024 633 1006 q 699 1042 668 1042 q 744 1022 726 1042 q 761 946 761 1001 q 735 819 761 871 q 667 723 710 767 q 572 628 625 679 q 466 506 519 578 q 365 328 413 435 q 283 65 317 222 l 269 0 l 179 0 z "},"8":{"ha":694,"x_min":60,"x_max":693,"o":"m 275 -14 q 153 19 200 -14 q 83 110 106 53 q 60 235 60 167 q 98 405 60 331 q 191 530 136 479 q 297 604 246 581 l 300 615 q 245 667 274 628 q 217 769 217 706 q 256 905 217 843 q 360 1004 294 967 q 504 1042 425 1042 q 638 999 582 1042 q 693 865 693 957 q 666 753 693 803 q 600 668 639 703 q 525 615 561 633 l 522 604 q 574 565 547 593 q 618 492 600 536 q 636 389 636 449 q 609 247 636 318 q 533 117 582 176 q 419 22 485 57 q 275 -14 353 -14 m 418 632 q 597 778 567 632 l 613 854 q 493 1000 643 1000 q 314 854 346 1000 l 297 778 q 313 669 282 707 q 418 632 343 632 m 288 35 q 433 82 376 35 q 508 218 490 129 l 549 404 q 533 540 568 493 q 408 588 497 588 q 263 540 319 588 q 188 404 207 493 l 147 218 q 164 82 129 129 q 288 35 199 35 z "},"9":{"ha":694,"x_min":68,"x_max":719,"o":"m 506 1042 q 608 1017 560 1042 q 688 928 657 992 q 719 751 719 865 q 697 551 719 657 q 631 346 674 446 q 530 165 589 246 q 397 35 471 83 q 239 -14 324 -14 q 117 26 165 -14 q 68 140 68 65 q 83 222 68 182 q 124 286 99 261 q 182 311 150 311 q 228 265 228 311 q 214 223 228 240 q 183 193 200 206 q 153 172 165 181 l 115 147 q 142 62 104 96 q 244 28 181 28 q 394 88 325 28 q 517 258 464 147 q 606 524 571 369 l 619 586 l 608 586 q 559 494 593 542 q 473 415 525 447 q 354 382 421 382 q 207 448 258 382 q 156 619 156 514 q 181 767 156 692 q 251 903 206 842 q 362 1003 297 965 q 506 1042 426 1042 m 492 993 q 356 941 413 993 q 278 792 299 889 l 244 632 q 259 480 224 533 q 369 426 294 426 q 506 480 444 426 q 588 632 567 533 l 621 792 q 606 941 642 889 q 492 993 571 993 z "},"A":{"ha":694,"x_min":-56,"x_max":649,"o":"m -56 0 l -47 47 l 29 47 l 476 1028 l 529 1028 l 563 47 l 649 47 l 640 0 l 315 0 l 324 47 l 467 47 l 456 374 l 225 374 l 78 47 l 172 47 l 164 0 l -56 0 m 440 853 l 246 421 l 454 421 l 440 853 z "},"Á":{"ha":694,"x_min":-56,"x_max":674,"o":"m -56 0 l -47 47 l 29 47 l 476 1028 l 529 1028 l 563 47 l 649 47 l 640 0 l 315 0 l 324 47 l 467 47 l 456 374 l 225 374 l 78 47 l 172 47 l 164 0 l -56 0 m 440 853 l 246 421 l 454 421 l 440 853 m 501 1083 l 576 1333 l 674 1333 l 518 1083 l 501 1083 z "},"Ă":{"ha":694,"x_min":-56,"x_max":668,"o":"m -56 0 l -47 47 l 29 47 l 476 1028 l 529 1028 l 563 47 l 649 47 l 640 0 l 315 0 l 324 47 l 467 47 l 456 374 l 225 374 l 78 47 l 172 47 l 164 0 l -56 0 m 440 853 l 246 421 l 454 421 l 440 853 m 514 1106 q 448 1140 465 1106 q 436 1224 431 1175 q 458 1319 442 1274 l 483 1319 q 470 1256 472 1289 q 482 1201 468 1224 q 532 1178 496 1178 q 592 1201 568 1178 q 628 1256 615 1224 q 643 1319 640 1289 l 668 1319 q 647 1224 664 1274 q 597 1140 629 1175 q 514 1106 564 1106 z "},"Ắ":{"ha":694,"x_min":-56,"x_max":713,"o":"m -56 0 l -47 47 l 29 47 l 476 1028 l 529 1028 l 563 47 l 649 47 l 640 0 l 315 0 l 324 47 l 467 47 l 456 374 l 225 374 l 78 47 l 172 47 l 164 0 l -56 0 m 440 853 l 246 421 l 454 421 l 440 853 m 540 1268 l 615 1518 l 713 1518 l 557 1268 l 540 1268 m 514 1106 q 448 1140 465 1106 q 436 1224 431 1175 q 458 1319 442 1274 l 483 1319 q 470 1256 472 1289 q 482 1201 468 1224 q 532 1178 496 1178 q 592 1201 568 1178 q 628 1256 615 1224 q 643 1319 640 1289 l 668 1319 q 647 1224 664 1274 q 597 1140 629 1175 q 514 1106 564 1106 z "},"Ặ":{"ha":694,"x_min":-56,"x_max":668,"o":"m -56 0 l -47 47 l 29 47 l 476 1028 l 529 1028 l 563 47 l 649 47 l 640 0 l 315 0 l 324 47 l 467 47 l 456 374 l 225 374 l 78 47 l 172 47 l 164 0 l -56 0 m 440 853 l 246 421 l 454 421 l 440 853 m 218 -237 q 178 -222 193 -237 q 163 -183 163 -206 q 188 -126 163 -151 q 247 -100 214 -100 q 288 -115 272 -100 q 303 -154 303 -131 q 277 -212 303 -186 q 218 -237 251 -237 m 514 1106 q 448 1140 465 1106 q 436 1224 431 1175 q 458 1319 442 1274 l 483 1319 q 470 1256 472 1289 q 482 1201 468 1224 q 532 1178 496 1178 q 592 1201 568 1178 q 628 1256 615 1224 q 643 1319 640 1289 l 668 1319 q 647 1224 664 1274 q 597 1140 629 1175 q 514 1106 564 1106 z "},"Ằ":{"ha":694,"x_min":-56,"x_max":668,"o":"m -56 0 l -47 47 l 29 47 l 476 1028 l 529 1028 l 563 47 l 649 47 l 640 0 l 315 0 l 324 47 l 467 47 l 456 374 l 225 374 l 78 47 l 172 47 l 164 0 l -56 0 m 440 853 l 246 421 l 454 421 l 440 853 m 544 1269 l 497 1519 l 581 1519 l 561 1269 l 544 1269 m 514 1106 q 448 1140 465 1106 q 436 1224 431 1175 q 458 1319 442 1274 l 483 1319 q 470 1256 472 1289 q 482 1201 468 1224 q 532 1178 496 1178 q 592 1201 568 1178 q 628 1256 615 1224 q 643 1319 640 1289 l 668 1319 q 647 1224 664 1274 q 597 1140 629 1175 q 514 1106 564 1106 z "},"Ẳ":{"ha":694,"x_min":-56,"x_max":682,"o":"m -56 0 l -47 47 l 29 47 l 476 1028 l 529 1028 l 563 47 l 649 47 l 640 0 l 315 0 l 324 47 l 467 47 l 456 374 l 225 374 l 78 47 l 172 47 l 164 0 l -56 0 m 440 853 l 246 421 l 454 421 l 440 853 m 539 1282 l 540 1290 q 568 1356 547 1333 q 607 1394 589 1378 q 625 1438 625 1411 q 614 1467 625 1456 q 582 1478 603 1478 q 549 1469 564 1478 q 528 1454 535 1461 l 539 1447 q 553 1434 547 1442 q 560 1415 560 1426 q 551 1392 560 1401 q 526 1383 542 1383 q 500 1394 511 1383 q 489 1424 489 1404 q 519 1484 489 1458 q 597 1510 550 1510 q 660 1490 638 1510 q 682 1440 682 1471 q 666 1395 682 1413 q 629 1364 650 1378 q 590 1333 608 1350 q 568 1290 572 1317 l 567 1282 l 539 1282 m 514 1106 q 448 1140 465 1106 q 436 1224 431 1175 q 458 1319 442 1274 l 483 1319 q 470 1256 472 1289 q 482 1201 468 1224 q 532 1178 496 1178 q 592 1201 568 1178 q 628 1256 615 1224 q 643 1319 640 1289 l 668 1319 q 647 1224 664 1274 q 597 1140 629 1175 q 514 1106 564 1106 z "},"Ẵ":{"ha":694,"x_min":-56,"x_max":713,"o":"m -56 0 l -47 47 l 29 47 l 476 1028 l 529 1028 l 563 47 l 649 47 l 640 0 l 315 0 l 324 47 l 467 47 l 456 374 l 225 374 l 78 47 l 172 47 l 164 0 l -56 0 m 440 853 l 246 421 l 454 421 l 440 853 m 514 1106 q 448 1140 465 1106 q 436 1224 431 1175 q 458 1319 442 1274 l 483 1319 q 470 1256 472 1289 q 482 1201 468 1224 q 532 1178 496 1178 q 592 1200 568 1178 q 628 1254 615 1222 q 643 1314 640 1286 q 618 1308 631 1308 q 574 1325 592 1308 q 540 1358 556 1342 q 504 1375 525 1375 q 473 1358 485 1375 q 454 1313 461 1342 l 436 1313 q 443 1340 438 1319 q 460 1383 449 1360 q 488 1422 471 1406 q 531 1439 506 1439 q 575 1422 557 1439 q 609 1389 593 1406 q 644 1372 625 1372 q 694 1435 681 1372 l 713 1435 q 703 1401 710 1424 q 684 1355 696 1378 q 653 1319 672 1332 l 668 1319 q 647 1224 664 1274 q 597 1140 629 1175 q 514 1106 564 1106 z "},"Â":{"ha":694,"x_min":-56,"x_max":649,"o":"m -56 0 l -47 47 l 29 47 l 476 1028 l 529 1028 l 563 47 l 649 47 l 640 0 l 315 0 l 324 47 l 467 47 l 456 374 l 225 374 l 78 47 l 172 47 l 164 0 l -56 0 m 440 853 l 246 421 l 454 421 l 440 853 m 396 1083 l 536 1319 l 592 1319 l 632 1083 l 615 1083 l 546 1231 l 413 1083 l 396 1083 z "},"Ấ":{"ha":694,"x_min":-56,"x_max":817,"o":"m -56 0 l -47 47 l 29 47 l 476 1028 l 529 1028 l 563 47 l 649 47 l 640 0 l 315 0 l 324 47 l 467 47 l 456 374 l 225 374 l 78 47 l 172 47 l 164 0 l -56 0 m 440 853 l 246 421 l 454 421 l 440 853 m 644 1251 l 719 1501 l 817 1501 l 661 1251 l 644 1251 m 396 1083 l 536 1319 l 592 1319 l 632 1083 l 615 1083 l 546 1231 l 413 1083 l 396 1083 z "},"Ậ":{"ha":694,"x_min":-56,"x_max":649,"o":"m -56 0 l -47 47 l 29 47 l 476 1028 l 529 1028 l 563 47 l 649 47 l 640 0 l 315 0 l 324 47 l 467 47 l 456 374 l 225 374 l 78 47 l 172 47 l 164 0 l -56 0 m 440 853 l 246 421 l 454 421 l 440 853 m 218 -237 q 178 -222 193 -237 q 163 -183 163 -206 q 188 -126 163 -151 q 247 -100 214 -100 q 288 -115 272 -100 q 303 -154 303 -131 q 277 -212 303 -186 q 218 -237 251 -237 m 396 1083 l 536 1319 l 592 1319 l 632 1083 l 615 1083 l 546 1231 l 413 1083 l 396 1083 z "},"Ầ":{"ha":694,"x_min":-56,"x_max":692,"o":"m -56 0 l -47 47 l 29 47 l 476 1028 l 529 1028 l 563 47 l 649 47 l 640 0 l 315 0 l 324 47 l 467 47 l 456 374 l 225 374 l 78 47 l 172 47 l 164 0 l -56 0 m 440 853 l 246 421 l 454 421 l 440 853 m 656 1251 l 608 1501 l 692 1501 l 672 1251 l 656 1251 m 396 1083 l 536 1319 l 592 1319 l 632 1083 l 615 1083 l 546 1231 l 413 1083 l 396 1083 z "},"Ẩ":{"ha":694,"x_min":-56,"x_max":786,"o":"m -56 0 l -47 47 l 29 47 l 476 1028 l 529 1028 l 563 47 l 649 47 l 640 0 l 315 0 l 324 47 l 467 47 l 456 374 l 225 374 l 78 47 l 172 47 l 164 0 l -56 0 m 440 853 l 246 421 l 454 421 l 440 853 m 643 1265 l 644 1274 q 672 1339 651 1317 q 711 1378 693 1361 q 729 1421 729 1394 q 718 1450 729 1439 q 686 1461 707 1461 q 653 1453 668 1461 q 632 1438 639 1444 l 643 1431 q 658 1417 651 1425 q 664 1399 664 1410 q 655 1376 664 1385 q 631 1367 646 1367 q 604 1377 615 1367 q 593 1407 593 1388 q 624 1467 593 1442 q 701 1493 654 1493 q 764 1474 742 1493 q 786 1424 786 1454 q 770 1378 786 1396 q 733 1347 754 1361 q 694 1317 713 1333 q 672 1274 676 1300 l 671 1265 l 643 1265 m 396 1083 l 536 1319 l 592 1319 l 632 1083 l 615 1083 l 546 1231 l 413 1083 l 396 1083 z "},"Ẫ":{"ha":694,"x_min":-56,"x_max":728,"o":"m -56 0 l -47 47 l 29 47 l 476 1028 l 529 1028 l 563 47 l 649 47 l 640 0 l 315 0 l 324 47 l 467 47 l 456 374 l 225 374 l 78 47 l 172 47 l 164 0 l -56 0 m 440 853 l 246 421 l 454 421 l 440 853 m 633 1342 q 589 1358 607 1342 q 556 1392 571 1375 q 519 1408 540 1408 q 488 1392 500 1408 q 469 1346 476 1375 l 451 1346 q 458 1373 453 1353 q 475 1416 464 1393 q 503 1456 486 1439 q 546 1472 521 1472 q 590 1456 572 1472 q 624 1422 608 1439 q 660 1406 640 1406 q 710 1468 696 1406 l 728 1468 q 715 1424 725 1454 q 685 1367 704 1393 q 633 1342 665 1342 m 396 1083 l 536 1319 l 592 1319 l 632 1083 l 615 1083 l 546 1231 l 413 1083 l 396 1083 z "},"Ä":{"ha":694,"x_min":-56,"x_max":704,"o":"m -56 0 l -47 47 l 29 47 l 476 1028 l 529 1028 l 563 47 l 649 47 l 640 0 l 315 0 l 324 47 l 467 47 l 456 374 l 225 374 l 78 47 l 172 47 l 164 0 l -56 0 m 440 853 l 246 421 l 454 421 l 440 853 m 618 1118 q 577 1133 593 1118 q 561 1172 561 1149 q 588 1231 561 1206 q 647 1257 614 1257 q 688 1242 672 1257 q 704 1203 704 1226 q 678 1144 704 1169 q 618 1118 651 1118 m 422 1118 q 381 1133 397 1118 q 365 1172 365 1149 q 392 1231 365 1206 q 451 1257 418 1257 q 492 1242 476 1257 q 508 1203 508 1226 q 482 1144 508 1169 q 422 1118 456 1118 z "},"Ạ":{"ha":694,"x_min":-56,"x_max":649,"o":"m -56 0 l -47 47 l 29 47 l 476 1028 l 529 1028 l 563 47 l 649 47 l 640 0 l 315 0 l 324 47 l 467 47 l 456 374 l 225 374 l 78 47 l 172 47 l 164 0 l -56 0 m 440 853 l 246 421 l 454 421 l 440 853 m 218 -237 q 178 -222 193 -237 q 163 -183 163 -206 q 188 -126 163 -151 q 247 -100 214 -100 q 288 -115 272 -100 q 303 -154 303 -131 q 277 -212 303 -186 q 218 -237 251 -237 z "},"À":{"ha":694,"x_min":-56,"x_max":649,"o":"m -56 0 l -47 47 l 29 47 l 476 1028 l 529 1028 l 563 47 l 649 47 l 640 0 l 315 0 l 324 47 l 467 47 l 456 374 l 225 374 l 78 47 l 172 47 l 164 0 l -56 0 m 440 853 l 246 421 l 454 421 l 440 853 m 485 1083 l 438 1333 l 521 1333 l 501 1083 l 485 1083 z "},"Ả":{"ha":694,"x_min":-56,"x_max":649,"o":"m -56 0 l -47 47 l 29 47 l 476 1028 l 529 1028 l 563 47 l 649 47 l 640 0 l 315 0 l 324 47 l 467 47 l 456 374 l 225 374 l 78 47 l 172 47 l 164 0 l -56 0 m 440 853 l 246 421 l 454 421 l 440 853 m 500 1097 l 501 1106 q 529 1171 508 1149 q 568 1210 550 1193 q 586 1253 586 1226 q 575 1282 586 1271 q 543 1293 564 1293 q 510 1285 525 1293 q 489 1269 496 1276 l 500 1263 q 515 1249 508 1257 q 521 1231 521 1242 q 512 1208 521 1217 q 488 1199 503 1199 q 461 1209 472 1199 q 450 1239 450 1219 q 481 1299 450 1274 q 558 1325 511 1325 q 621 1306 599 1325 q 643 1256 643 1286 q 627 1210 643 1228 q 590 1179 611 1193 q 551 1149 569 1165 q 529 1106 533 1132 l 528 1097 l 500 1097 z "},"Ā":{"ha":694,"x_min":-56,"x_max":724,"o":"m -56 0 l -47 47 l 29 47 l 476 1028 l 529 1028 l 563 47 l 649 47 l 640 0 l 315 0 l 324 47 l 467 47 l 456 374 l 225 374 l 78 47 l 172 47 l 164 0 l -56 0 m 440 853 l 246 421 l 454 421 l 440 853 m 347 1164 l 356 1207 l 724 1207 l 715 1164 l 347 1164 z "},"Ą":{"ha":694,"x_min":-56,"x_max":649,"o":"m -56 0 l -47 47 l 29 47 l 476 1028 l 529 1028 l 563 47 l 649 47 l 640 0 l 315 0 l 324 47 l 467 47 l 456 374 l 225 374 l 78 47 l 172 47 l 164 0 l -56 0 m 440 853 l 246 421 l 454 421 l 440 853 m 492 -244 q 431 -225 461 -244 q 401 -153 401 -206 q 421 -80 401 -111 q 469 -28 440 -49 q 522 0 497 -8 l 571 0 q 524 -22 549 -6 q 483 -61 500 -37 q 467 -117 467 -85 q 487 -167 467 -151 q 533 -182 507 -182 q 585 -165 564 -182 q 614 -133 606 -149 l 629 -142 q 580 -210 615 -175 q 492 -244 544 -244 z "},"Å":{"ha":694,"x_min":-56,"x_max":654,"o":"m -56 0 l -47 47 l 29 47 l 476 1028 l 529 1028 l 563 47 l 649 47 l 640 0 l 315 0 l 324 47 l 467 47 l 456 374 l 225 374 l 78 47 l 172 47 l 164 0 l -56 0 m 440 853 l 246 421 l 454 421 l 440 853 m 539 1089 q 455 1123 486 1089 q 424 1204 424 1157 q 455 1286 424 1253 q 539 1319 486 1319 q 623 1286 592 1319 q 654 1204 654 1253 q 623 1123 654 1157 q 539 1089 592 1089 m 539 1126 q 594 1149 575 1126 q 614 1204 614 1172 q 594 1259 614 1236 q 539 1282 575 1282 q 483 1259 503 1282 q 464 1204 464 1236 q 483 1149 464 1172 q 539 1126 503 1126 z "},"Ã":{"ha":694,"x_min":-56,"x_max":674,"o":"m -56 0 l -47 47 l 29 47 l 476 1028 l 529 1028 l 563 47 l 649 47 l 640 0 l 315 0 l 324 47 l 467 47 l 456 374 l 225 374 l 78 47 l 172 47 l 164 0 l -56 0 m 440 853 l 246 421 l 454 421 l 440 853 m 579 1124 q 535 1140 553 1124 q 501 1174 517 1157 q 465 1190 486 1190 q 434 1174 446 1190 q 415 1128 422 1157 l 397 1128 q 404 1155 399 1135 q 421 1198 410 1175 q 449 1238 432 1221 q 492 1254 467 1254 q 536 1238 518 1254 q 570 1204 554 1221 q 606 1188 586 1188 q 656 1250 642 1188 l 674 1250 q 660 1206 671 1236 q 631 1149 650 1175 q 579 1124 611 1124 z "},"Æ":{"ha":694,"x_min":-56,"x_max":829,"o":"m -56 0 l -46 47 l 28 47 l 494 981 l 368 981 l 376 1028 l 829 1028 l 767 731 l 728 731 l 750 879 q 733 960 760 940 q 646 979 707 979 l 592 979 l 507 585 l 592 585 l 629 761 l 671 761 l 586 361 l 544 361 l 582 538 l 497 538 l 393 47 l 453 49 q 547 70 513 50 q 597 150 581 90 l 646 325 l 685 325 l 615 0 l 225 0 l 235 47 l 310 47 l 381 379 l 240 379 l 76 47 l 160 47 l 150 0 l -56 0 m 488 881 l 261 421 l 389 421 l 488 881 z "},"B":{"ha":694,"x_min":-46,"x_max":703,"o":"m -46 0 l -36 47 l 81 47 l 279 981 l 163 981 l 172 1028 l 488 1028 q 545 1024 510 1028 q 617 1004 581 1021 q 678 948 653 988 q 703 836 703 908 q 672 702 703 758 q 597 611 642 646 q 510 563 551 576 l 508 553 q 568 526 538 549 q 619 462 599 504 q 640 353 640 419 q 594 176 640 257 q 465 48 547 96 q 278 0 383 0 l -46 0 m 290 575 l 403 575 q 571 714 540 575 l 599 844 q 584 948 614 913 q 489 983 554 983 l 376 983 l 290 575 m 178 44 l 290 44 q 428 90 372 44 q 503 219 485 135 l 532 357 q 515 488 550 443 q 393 532 479 532 l 281 532 l 178 44 z "},"C":{"ha":694,"x_min":81,"x_max":738,"o":"m 276 -14 q 165 28 208 -14 q 101 144 121 71 q 81 311 81 218 q 102 516 81 413 q 163 714 124 619 q 254 882 201 808 q 370 999 307 956 q 503 1042 433 1042 q 588 1017 557 1042 q 633 956 619 992 q 647 886 647 919 l 658 886 l 692 1042 l 738 1042 l 660 678 l 590 678 l 597 710 q 612 879 621 818 q 571 965 603 940 q 496 990 539 990 q 358 926 421 990 q 269 743 294 863 l 172 285 q 176 101 147 165 q 282 38 206 38 q 369 64 325 38 q 453 151 414 90 q 514 318 492 213 l 521 350 l 590 350 l 513 -14 l 467 -14 l 503 153 l 492 153 q 448 78 478 117 q 375 13 418 39 q 276 -14 332 -14 z "},"Ć":{"ha":694,"x_min":81,"x_max":738,"o":"m 276 -14 q 165 28 208 -14 q 101 144 121 71 q 81 311 81 218 q 102 516 81 413 q 163 714 124 619 q 254 882 201 808 q 370 999 307 956 q 503 1042 433 1042 q 588 1017 557 1042 q 633 956 619 992 q 647 886 647 919 l 658 886 l 692 1042 l 738 1042 l 660 678 l 590 678 l 597 710 q 612 879 621 818 q 571 965 603 940 q 496 990 539 990 q 358 926 421 990 q 269 743 294 863 l 172 285 q 176 101 147 165 q 282 38 206 38 q 369 64 325 38 q 453 151 414 90 q 514 318 492 213 l 521 350 l 590 350 l 513 -14 l 467 -14 l 503 153 l 492 153 q 448 78 478 117 q 375 13 418 39 q 276 -14 332 -14 m 486 1083 l 561 1333 l 658 1333 l 503 1083 l 486 1083 z "},"Č":{"ha":694,"x_min":81,"x_max":738,"o":"m 276 -14 q 165 28 208 -14 q 101 144 121 71 q 81 311 81 218 q 102 516 81 413 q 163 714 124 619 q 254 882 201 808 q 370 999 307 956 q 503 1042 433 1042 q 588 1017 557 1042 q 633 956 619 992 q 647 886 647 919 l 658 886 l 692 1042 l 738 1042 l 660 678 l 590 678 l 597 710 q 612 879 621 818 q 571 965 603 940 q 496 990 539 990 q 358 926 421 990 q 269 743 294 863 l 172 285 q 176 101 147 165 q 282 38 206 38 q 369 64 325 38 q 453 151 414 90 q 514 318 492 213 l 521 350 l 590 350 l 513 -14 l 467 -14 l 503 153 l 492 153 q 448 78 478 117 q 375 13 418 39 q 276 -14 332 -14 m 471 1083 l 431 1319 l 447 1319 l 517 1172 l 650 1319 l 667 1319 l 526 1083 l 471 1083 z "},"Ç":{"ha":694,"x_min":81,"x_max":738,"o":"m 276 -14 q 165 28 208 -14 q 101 144 121 71 q 81 311 81 218 q 102 516 81 413 q 163 714 124 619 q 254 882 201 808 q 370 999 307 956 q 503 1042 433 1042 q 588 1017 557 1042 q 633 956 619 992 q 647 886 647 919 l 658 886 l 692 1042 l 738 1042 l 660 678 l 590 678 l 597 710 q 612 879 621 818 q 571 965 603 940 q 496 990 539 990 q 358 926 421 990 q 269 743 294 863 l 172 285 q 176 101 147 165 q 282 38 206 38 q 369 64 325 38 q 453 151 414 90 q 514 318 492 213 l 521 350 l 590 350 l 513 -14 l 467 -14 l 503 153 l 492 153 q 448 78 478 117 q 375 13 418 39 q 276 -14 332 -14 m 267 -285 q 160 -262 203 -285 q 117 -204 117 -240 q 128 -169 117 -186 q 167 -153 140 -153 q 209 -176 200 -153 q 219 -218 218 -200 l 222 -251 q 241 -255 229 -253 q 267 -257 253 -257 q 333 -233 311 -257 q 354 -182 354 -210 q 324 -126 354 -146 q 250 -106 294 -106 q 223 -108 238 -106 q 194 -115 208 -110 l 183 -108 l 250 0 l 296 0 l 257 -58 q 351 -69 317 -53 q 399 -112 385 -86 q 414 -167 414 -139 q 401 -219 414 -192 q 358 -265 389 -246 q 267 -285 326 -285 z "},"Ċ":{"ha":694,"x_min":81,"x_max":738,"o":"m 276 -14 q 165 28 208 -14 q 101 144 121 71 q 81 311 81 218 q 102 516 81 413 q 163 714 124 619 q 254 882 201 808 q 370 999 307 956 q 503 1042 433 1042 q 588 1017 557 1042 q 633 956 619 992 q 647 886 647 919 l 658 886 l 692 1042 l 738 1042 l 660 678 l 590 678 l 597 710 q 612 879 621 818 q 571 965 603 940 q 496 990 539 990 q 358 926 421 990 q 269 743 294 863 l 172 285 q 176 101 147 165 q 282 38 206 38 q 369 64 325 38 q 453 151 414 90 q 514 318 492 213 l 521 350 l 590 350 l 513 -14 l 467 -14 l 503 153 l 492 153 q 448 78 478 117 q 375 13 418 39 q 276 -14 332 -14 m 513 1153 q 467 1169 485 1153 q 450 1213 450 1186 q 479 1277 450 1249 q 544 1306 508 1306 q 590 1289 572 1306 q 607 1246 607 1272 q 578 1181 607 1210 q 513 1153 549 1153 z "},"D":{"ha":694,"x_min":-26,"x_max":706,"o":"m -26 0 l -17 47 l 100 47 l 299 981 l 182 981 l 192 1028 l 454 1028 q 599 982 543 1028 q 680 860 654 936 q 706 692 706 785 q 667 433 706 557 q 562 212 628 310 q 412 57 496 114 q 236 0 328 0 l -26 0 m 197 44 l 246 44 q 363 74 307 44 q 463 159 419 103 q 522 296 506 215 l 615 732 q 615 869 633 814 q 551 954 596 925 q 444 983 506 983 l 396 983 l 197 44 z "},"Ð":{"ha":694,"x_min":-26,"x_max":706,"o":"m -26 0 l -17 47 l 100 47 l 199 513 l 86 513 l 94 560 l 210 560 l 299 981 l 182 981 l 192 1028 l 454 1028 q 599 982 543 1028 q 680 860 654 936 q 706 692 706 785 q 667 433 706 557 q 562 212 628 310 q 412 57 496 114 q 236 0 328 0 l -26 0 m 197 44 l 246 44 q 363 74 307 44 q 463 159 419 103 q 522 296 506 215 l 615 732 q 615 869 633 814 q 551 954 596 925 q 444 983 506 983 l 396 983 l 306 560 l 457 560 l 447 513 l 296 513 l 197 44 z "},"Ď":{"ha":694,"x_min":-26,"x_max":706,"o":"m -26 0 l -17 47 l 100 47 l 299 981 l 182 981 l 192 1028 l 454 1028 q 599 982 543 1028 q 680 860 654 936 q 706 692 706 785 q 667 433 706 557 q 562 212 628 310 q 412 57 496 114 q 236 0 328 0 l -26 0 m 197 44 l 246 44 q 363 74 307 44 q 463 159 419 103 q 522 296 506 215 l 615 732 q 615 869 633 814 q 551 954 596 925 q 444 983 506 983 l 396 983 l 197 44 m 471 1083 l 431 1319 l 447 1319 l 517 1172 l 650 1319 l 667 1319 l 526 1083 l 471 1083 z "},"Đ":{"ha":694,"x_min":-26,"x_max":706,"o":"m -26 0 l -17 47 l 100 47 l 199 513 l 86 513 l 94 560 l 210 560 l 299 981 l 182 981 l 192 1028 l 454 1028 q 599 982 543 1028 q 680 860 654 936 q 706 692 706 785 q 667 433 706 557 q 562 212 628 310 q 412 57 496 114 q 236 0 328 0 l -26 0 m 197 44 l 246 44 q 363 74 307 44 q 463 159 419 103 q 522 296 506 215 l 615 732 q 615 869 633 814 q 551 954 596 925 q 444 983 506 983 l 396 983 l 306 560 l 457 560 l 447 513 l 296 513 l 197 44 z "},"E":{"ha":694,"x_min":-39,"x_max":750,"o":"m -39 0 l -29 47 l 88 47 l 286 981 l 169 981 l 179 1028 l 750 1028 l 688 731 l 649 731 l 667 879 q 644 960 674 940 q 567 979 615 979 l 383 979 l 299 585 l 478 585 l 515 761 l 560 761 l 475 361 l 431 361 l 468 538 l 289 538 l 185 49 l 382 49 q 442 55 415 49 q 489 83 468 61 q 524 150 510 104 l 576 325 l 615 325 l 546 0 l -39 0 z "},"É":{"ha":694,"x_min":-39,"x_max":750,"o":"m -39 0 l -29 47 l 88 47 l 286 981 l 169 981 l 179 1028 l 750 1028 l 688 731 l 649 731 l 667 879 q 644 960 674 940 q 567 979 615 979 l 383 979 l 299 585 l 478 585 l 515 761 l 560 761 l 475 361 l 431 361 l 468 538 l 289 538 l 185 49 l 382 49 q 442 55 415 49 q 489 83 468 61 q 524 150 510 104 l 576 325 l 615 325 l 546 0 l -39 0 m 497 1083 l 572 1333 l 669 1333 l 514 1083 l 497 1083 z "},"Ě":{"ha":694,"x_min":-39,"x_max":750,"o":"m -39 0 l -29 47 l 88 47 l 286 981 l 169 981 l 179 1028 l 750 1028 l 688 731 l 649 731 l 667 879 q 644 960 674 940 q 567 979 615 979 l 383 979 l 299 585 l 478 585 l 515 761 l 560 761 l 475 361 l 431 361 l 468 538 l 289 538 l 185 49 l 382 49 q 442 55 415 49 q 489 83 468 61 q 524 150 510 104 l 576 325 l 615 325 l 546 0 l -39 0 m 482 1083 l 442 1319 l 458 1319 l 528 1172 l 661 1319 l 678 1319 l 538 1083 l 482 1083 z "},"Ê":{"ha":694,"x_min":-39,"x_max":750,"o":"m -39 0 l -29 47 l 88 47 l 286 981 l 169 981 l 179 1028 l 750 1028 l 688 731 l 649 731 l 667 879 q 644 960 674 940 q 567 979 615 979 l 383 979 l 299 585 l 478 585 l 515 761 l 560 761 l 475 361 l 431 361 l 468 538 l 289 538 l 185 49 l 382 49 q 442 55 415 49 q 489 83 468 61 q 524 150 510 104 l 576 325 l 615 325 l 546 0 l -39 0 m 392 1083 l 532 1319 l 588 1319 l 628 1083 l 611 1083 l 542 1231 l 408 1083 l 392 1083 z "},"Ế":{"ha":694,"x_min":-39,"x_max":813,"o":"m -39 0 l -29 47 l 88 47 l 286 981 l 169 981 l 179 1028 l 750 1028 l 688 731 l 649 731 l 667 879 q 644 960 674 940 q 567 979 615 979 l 383 979 l 299 585 l 478 585 l 515 761 l 560 761 l 475 361 l 431 361 l 468 538 l 289 538 l 185 49 l 382 49 q 442 55 415 49 q 489 83 468 61 q 524 150 510 104 l 576 325 l 615 325 l 546 0 l -39 0 m 640 1251 l 715 1501 l 813 1501 l 657 1251 l 640 1251 m 392 1083 l 532 1319 l 588 1319 l 628 1083 l 611 1083 l 542 1231 l 408 1083 l 392 1083 z "},"Ệ":{"ha":694,"x_min":-39,"x_max":750,"o":"m -39 0 l -29 47 l 88 47 l 286 981 l 169 981 l 179 1028 l 750 1028 l 688 731 l 649 731 l 667 879 q 644 960 674 940 q 567 979 615 979 l 383 979 l 299 585 l 478 585 l 515 761 l 560 761 l 475 361 l 431 361 l 468 538 l 289 538 l 185 49 l 382 49 q 442 55 415 49 q 489 83 468 61 q 524 150 510 104 l 576 325 l 615 325 l 546 0 l -39 0 m 218 -237 q 178 -222 193 -237 q 163 -183 163 -206 q 188 -126 163 -151 q 247 -100 214 -100 q 288 -115 272 -100 q 303 -154 303 -131 q 277 -212 303 -186 q 218 -237 251 -237 m 392 1083 l 532 1319 l 588 1319 l 628 1083 l 611 1083 l 542 1231 l 408 1083 l 392 1083 z "},"Ề":{"ha":694,"x_min":-39,"x_max":750,"o":"m -39 0 l -29 47 l 88 47 l 286 981 l 169 981 l 179 1028 l 750 1028 l 688 731 l 649 731 l 667 879 q 644 960 674 940 q 567 979 615 979 l 383 979 l 299 585 l 478 585 l 515 761 l 560 761 l 475 361 l 431 361 l 468 538 l 289 538 l 185 49 l 382 49 q 442 55 415 49 q 489 83 468 61 q 524 150 510 104 l 576 325 l 615 325 l 546 0 l -39 0 m 651 1251 l 604 1501 l 688 1501 l 668 1251 l 651 1251 m 392 1083 l 532 1319 l 588 1319 l 628 1083 l 611 1083 l 542 1231 l 408 1083 l 392 1083 z "},"Ể":{"ha":694,"x_min":-39,"x_max":782,"o":"m -39 0 l -29 47 l 88 47 l 286 981 l 169 981 l 179 1028 l 750 1028 l 688 731 l 649 731 l 667 879 q 644 960 674 940 q 567 979 615 979 l 383 979 l 299 585 l 478 585 l 515 761 l 560 761 l 475 361 l 431 361 l 468 538 l 289 538 l 185 49 l 382 49 q 442 55 415 49 q 489 83 468 61 q 524 150 510 104 l 576 325 l 615 325 l 546 0 l -39 0 m 639 1265 l 640 1274 q 668 1339 647 1317 q 707 1378 689 1361 q 725 1421 725 1394 q 714 1450 725 1439 q 682 1461 703 1461 q 649 1453 664 1461 q 628 1438 635 1444 l 639 1431 q 653 1417 647 1425 q 660 1399 660 1410 q 651 1376 660 1385 q 626 1367 642 1367 q 600 1377 611 1367 q 589 1407 589 1388 q 619 1467 589 1442 q 697 1493 650 1493 q 760 1474 738 1493 q 782 1424 782 1454 q 766 1378 782 1396 q 729 1347 750 1361 q 690 1317 708 1333 q 668 1274 672 1300 l 667 1265 l 639 1265 m 392 1083 l 532 1319 l 588 1319 l 628 1083 l 611 1083 l 542 1231 l 408 1083 l 392 1083 z "},"Ễ":{"ha":694,"x_min":-39,"x_max":750,"o":"m -39 0 l -29 47 l 88 47 l 286 981 l 169 981 l 179 1028 l 750 1028 l 688 731 l 649 731 l 667 879 q 644 960 674 940 q 567 979 615 979 l 383 979 l 299 585 l 478 585 l 515 761 l 560 761 l 475 361 l 431 361 l 468 538 l 289 538 l 185 49 l 382 49 q 442 55 415 49 q 489 83 468 61 q 524 150 510 104 l 576 325 l 615 325 l 546 0 l -39 0 m 629 1342 q 585 1358 603 1342 q 551 1392 567 1375 q 515 1408 536 1408 q 484 1392 496 1408 q 465 1346 472 1375 l 447 1346 q 454 1373 449 1353 q 471 1416 460 1393 q 499 1456 482 1439 q 542 1472 517 1472 q 586 1456 568 1472 q 620 1422 604 1439 q 656 1406 636 1406 q 706 1468 692 1406 l 724 1468 q 710 1424 721 1454 q 681 1367 700 1393 q 629 1342 661 1342 m 392 1083 l 532 1319 l 588 1319 l 628 1083 l 611 1083 l 542 1231 l 408 1083 l 392 1083 z "},"Ë":{"ha":694,"x_min":-39,"x_max":750,"o":"m -39 0 l -29 47 l 88 47 l 286 981 l 169 981 l 179 1028 l 750 1028 l 688 731 l 649 731 l 667 879 q 644 960 674 940 q 567 979 615 979 l 383 979 l 299 585 l 478 585 l 515 761 l 560 761 l 475 361 l 431 361 l 468 538 l 289 538 l 185 49 l 382 49 q 442 55 415 49 q 489 83 468 61 q 524 150 510 104 l 576 325 l 615 325 l 546 0 l -39 0 m 614 1118 q 573 1133 589 1118 q 557 1172 557 1149 q 583 1231 557 1206 q 643 1257 610 1257 q 684 1242 668 1257 q 700 1203 700 1226 q 674 1144 700 1169 q 614 1118 647 1118 m 418 1118 q 377 1133 393 1118 q 361 1172 361 1149 q 388 1231 361 1206 q 447 1257 414 1257 q 488 1242 472 1257 q 504 1203 504 1226 q 478 1144 504 1169 q 418 1118 451 1118 z "},"Ė":{"ha":694,"x_min":-39,"x_max":750,"o":"m -39 0 l -29 47 l 88 47 l 286 981 l 169 981 l 179 1028 l 750 1028 l 688 731 l 649 731 l 667 879 q 644 960 674 940 q 567 979 615 979 l 383 979 l 299 585 l 478 585 l 515 761 l 560 761 l 475 361 l 431 361 l 468 538 l 289 538 l 185 49 l 382 49 q 442 55 415 49 q 489 83 468 61 q 524 150 510 104 l 576 325 l 615 325 l 546 0 l -39 0 m 524 1153 q 478 1169 496 1153 q 461 1213 461 1186 q 490 1277 461 1249 q 556 1306 519 1306 q 601 1289 583 1306 q 618 1246 618 1272 q 589 1181 618 1210 q 524 1153 560 1153 z "},"Ẹ":{"ha":694,"x_min":-39,"x_max":750,"o":"m -39 0 l -29 47 l 88 47 l 286 981 l 169 981 l 179 1028 l 750 1028 l 688 731 l 649 731 l 667 879 q 644 960 674 940 q 567 979 615 979 l 383 979 l 299 585 l 478 585 l 515 761 l 560 761 l 475 361 l 431 361 l 468 538 l 289 538 l 185 49 l 382 49 q 442 55 415 49 q 489 83 468 61 q 524 150 510 104 l 576 325 l 615 325 l 546 0 l -39 0 m 218 -237 q 178 -222 193 -237 q 163 -183 163 -206 q 188 -126 163 -151 q 247 -100 214 -100 q 288 -115 272 -100 q 303 -154 303 -131 q 277 -212 303 -186 q 218 -237 251 -237 z "},"È":{"ha":694,"x_min":-39,"x_max":750,"o":"m -39 0 l -29 47 l 88 47 l 286 981 l 169 981 l 179 1028 l 750 1028 l 688 731 l 649 731 l 667 879 q 644 960 674 940 q 567 979 615 979 l 383 979 l 299 585 l 478 585 l 515 761 l 560 761 l 475 361 l 431 361 l 468 538 l 289 538 l 185 49 l 382 49 q 442 55 415 49 q 489 83 468 61 q 524 150 510 104 l 576 325 l 615 325 l 546 0 l -39 0 m 481 1083 l 433 1333 l 517 1333 l 497 1083 l 481 1083 z "},"Ẻ":{"ha":694,"x_min":-39,"x_max":750,"o":"m -39 0 l -29 47 l 88 47 l 286 981 l 169 981 l 179 1028 l 750 1028 l 688 731 l 649 731 l 667 879 q 644 960 674 940 q 567 979 615 979 l 383 979 l 299 585 l 478 585 l 515 761 l 560 761 l 475 361 l 431 361 l 468 538 l 289 538 l 185 49 l 382 49 q 442 55 415 49 q 489 83 468 61 q 524 150 510 104 l 576 325 l 615 325 l 546 0 l -39 0 m 496 1097 l 497 1106 q 525 1171 504 1149 q 564 1210 546 1193 q 582 1253 582 1226 q 571 1282 582 1271 q 539 1293 560 1293 q 506 1285 521 1293 q 485 1269 492 1276 l 496 1263 q 510 1249 504 1257 q 517 1231 517 1242 q 508 1208 517 1217 q 483 1199 499 1199 q 457 1209 468 1199 q 446 1239 446 1219 q 476 1299 446 1274 q 554 1325 507 1325 q 617 1306 594 1325 q 639 1256 639 1286 q 623 1210 639 1228 q 586 1179 607 1193 q 547 1149 565 1165 q 525 1106 529 1132 l 524 1097 l 496 1097 z "},"Ē":{"ha":694,"x_min":-39,"x_max":750,"o":"m -39 0 l -29 47 l 88 47 l 286 981 l 169 981 l 179 1028 l 750 1028 l 688 731 l 649 731 l 667 879 q 644 960 674 940 q 567 979 615 979 l 383 979 l 299 585 l 478 585 l 515 761 l 560 761 l 475 361 l 431 361 l 468 538 l 289 538 l 185 49 l 382 49 q 442 55 415 49 q 489 83 468 61 q 524 150 510 104 l 576 325 l 615 325 l 546 0 l -39 0 m 343 1164 l 351 1207 l 719 1207 l 711 1164 l 343 1164 z "},"Ę":{"ha":694,"x_min":-39,"x_max":750,"o":"m -39 0 l -29 47 l 88 47 l 286 981 l 169 981 l 179 1028 l 750 1028 l 688 731 l 649 731 l 667 879 q 644 960 674 940 q 567 979 615 979 l 383 979 l 299 585 l 478 585 l 515 761 l 560 761 l 475 361 l 431 361 l 468 538 l 289 538 l 185 49 l 382 49 q 442 55 415 49 q 489 83 468 61 q 524 150 510 104 l 576 325 l 615 325 l 546 0 l -39 0 m 390 -244 q 330 -225 360 -244 q 300 -153 300 -206 q 319 -80 300 -111 q 367 -28 339 -49 q 421 0 396 -8 l 469 0 q 423 -22 447 -6 q 382 -61 399 -37 q 365 -117 365 -85 q 385 -167 365 -151 q 432 -182 406 -182 q 483 -165 463 -182 q 513 -133 504 -149 l 528 -142 q 478 -210 514 -175 q 390 -244 443 -244 z "},"Ẽ":{"ha":694,"x_min":-39,"x_max":750,"o":"m -39 0 l -29 47 l 88 47 l 286 981 l 169 981 l 179 1028 l 750 1028 l 688 731 l 649 731 l 667 879 q 644 960 674 940 q 567 979 615 979 l 383 979 l 299 585 l 478 585 l 515 761 l 560 761 l 475 361 l 431 361 l 468 538 l 289 538 l 185 49 l 382 49 q 442 55 415 49 q 489 83 468 61 q 524 150 510 104 l 576 325 l 615 325 l 546 0 l -39 0 m 575 1124 q 531 1140 549 1124 q 497 1174 513 1157 q 461 1190 482 1190 q 430 1174 442 1190 q 411 1128 418 1157 l 393 1128 q 400 1155 394 1135 q 417 1198 406 1175 q 445 1238 428 1221 q 488 1254 463 1254 q 532 1238 514 1254 q 566 1204 550 1221 q 601 1188 582 1188 q 651 1250 638 1188 l 669 1250 q 656 1206 667 1236 q 626 1149 646 1175 q 575 1124 607 1124 z "},"F":{"ha":694,"x_min":-22,"x_max":781,"o":"m -22 0 l -12 47 l 104 47 l 303 981 l 186 981 l 196 1028 l 781 1028 l 718 731 l 679 731 l 697 879 q 675 960 704 940 q 597 979 646 979 l 400 979 l 315 585 l 511 585 l 549 761 l 590 761 l 506 361 l 464 361 l 501 538 l 306 538 l 201 47 l 426 47 l 417 0 l -22 0 z "},"G":{"ha":694,"x_min":97,"x_max":764,"o":"m 290 -14 q 150 68 203 -14 q 97 311 97 150 q 119 518 97 414 q 180 716 140 622 q 273 883 219 810 q 391 999 326 957 q 526 1042 456 1042 q 614 1017 582 1042 q 660 956 646 992 q 674 886 675 919 l 685 886 l 718 1042 l 764 1042 l 686 678 l 617 678 l 624 710 q 638 879 647 818 q 594 965 628 940 q 513 990 560 990 q 371 926 431 990 q 286 743 311 863 l 189 285 q 192 101 164 165 q 294 38 221 38 q 399 76 356 38 q 472 174 442 114 q 520 302 501 235 q 551 426 539 369 l 569 514 l 339 514 l 350 561 l 658 561 l 539 0 l 490 0 l 525 167 l 513 167 q 466 86 497 128 q 390 15 435 44 q 290 -14 346 -14 z "},"Ğ":{"ha":694,"x_min":97,"x_max":764,"o":"m 290 -14 q 150 68 203 -14 q 97 311 97 150 q 119 518 97 414 q 180 716 140 622 q 273 883 219 810 q 391 999 326 957 q 526 1042 456 1042 q 614 1017 582 1042 q 660 956 646 992 q 674 886 675 919 l 685 886 l 718 1042 l 764 1042 l 686 678 l 617 678 l 624 710 q 638 879 647 818 q 594 965 628 940 q 513 990 560 990 q 371 926 431 990 q 286 743 311 863 l 189 285 q 192 101 164 165 q 294 38 221 38 q 399 76 356 38 q 472 174 442 114 q 520 302 501 235 q 551 426 539 369 l 569 514 l 339 514 l 350 561 l 658 561 l 539 0 l 490 0 l 525 167 l 513 167 q 466 86 497 128 q 390 15 435 44 q 290 -14 346 -14 m 499 1106 q 433 1140 450 1106 q 421 1224 415 1175 q 443 1319 426 1274 l 468 1319 q 455 1256 457 1289 q 467 1201 453 1224 q 517 1178 481 1178 q 576 1201 553 1178 q 613 1256 600 1224 q 628 1319 625 1289 l 653 1319 q 631 1224 649 1274 q 581 1140 614 1175 q 499 1106 549 1106 z "},"Ģ":{"ha":694,"x_min":97,"x_max":764,"o":"m 290 -14 q 150 68 203 -14 q 97 311 97 150 q 119 518 97 414 q 180 716 140 622 q 273 883 219 810 q 391 999 326 957 q 526 1042 456 1042 q 614 1017 582 1042 q 660 956 646 992 q 674 886 675 919 l 685 886 l 718 1042 l 764 1042 l 686 678 l 617 678 l 624 710 q 638 879 647 818 q 594 965 628 940 q 513 990 560 990 q 371 926 431 990 q 286 743 311 863 l 189 285 q 192 101 164 165 q 294 38 221 38 q 399 76 356 38 q 472 174 442 114 q 520 302 501 235 q 551 426 539 369 l 569 514 l 339 514 l 350 561 l 658 561 l 539 0 l 490 0 l 525 167 l 513 167 q 466 86 497 128 q 390 15 435 44 q 290 -14 346 -14 m 150 -287 l 139 -265 q 201 -222 168 -249 q 239 -174 233 -196 q 194 -158 213 -174 q 175 -114 175 -142 q 199 -58 175 -81 q 254 -36 222 -36 q 298 -53 279 -36 q 317 -104 317 -71 q 290 -177 317 -142 q 224 -241 263 -212 q 150 -287 185 -269 z "},"Ġ":{"ha":694,"x_min":97,"x_max":764,"o":"m 290 -14 q 150 68 203 -14 q 97 311 97 150 q 119 518 97 414 q 180 716 140 622 q 273 883 219 810 q 391 999 326 957 q 526 1042 456 1042 q 614 1017 582 1042 q 660 956 646 992 q 674 886 675 919 l 685 886 l 718 1042 l 764 1042 l 686 678 l 617 678 l 624 710 q 638 879 647 818 q 594 965 628 940 q 513 990 560 990 q 371 926 431 990 q 286 743 311 863 l 189 285 q 192 101 164 165 q 294 38 221 38 q 399 76 356 38 q 472 174 442 114 q 520 302 501 235 q 551 426 539 369 l 569 514 l 339 514 l 350 561 l 658 561 l 539 0 l 490 0 l 525 167 l 513 167 q 466 86 497 128 q 390 15 435 44 q 290 -14 346 -14 m 513 1153 q 467 1169 485 1153 q 450 1213 450 1186 q 479 1277 450 1249 q 544 1306 508 1306 q 590 1289 572 1306 q 607 1246 607 1272 q 578 1181 607 1210 q 513 1153 549 1153 z "},"H":{"ha":694,"x_min":-71,"x_max":810,"o":"m -71 0 l -61 47 l 31 47 l 229 981 l 138 981 l 147 1028 l 422 1028 l 413 981 l 321 981 l 235 578 l 531 578 l 617 981 l 525 981 l 535 1028 l 810 1028 l 800 981 l 708 981 l 510 47 l 601 47 l 592 0 l 317 0 l 326 47 l 418 47 l 521 531 l 225 531 l 122 47 l 214 47 l 204 0 l -71 0 z "},"Ħ":{"ha":694,"x_min":-71,"x_max":810,"o":"m -71 0 l -61 47 l 31 47 l 178 739 l 126 739 l 136 781 l 186 781 l 229 981 l 138 981 l 147 1028 l 422 1028 l 413 981 l 321 981 l 278 781 l 574 781 l 617 981 l 525 981 l 535 1028 l 810 1028 l 800 981 l 708 981 l 665 781 l 718 781 l 708 739 l 657 739 l 510 47 l 601 47 l 592 0 l 317 0 l 326 47 l 418 47 l 521 531 l 225 531 l 122 47 l 214 47 l 204 0 l -71 0 m 235 578 l 531 578 l 565 739 l 269 739 l 235 578 z "},"I":{"ha":694,"x_min":-3,"x_max":768,"o":"m -3 0 l 7 47 l 235 47 l 433 981 l 206 981 l 215 1028 l 768 1028 l 758 981 l 531 981 l 332 47 l 560 47 l 550 0 l -3 0 z "},"Í":{"ha":694,"x_min":-3,"x_max":768,"o":"m -3 0 l 7 47 l 235 47 l 433 981 l 206 981 l 215 1028 l 768 1028 l 758 981 l 531 981 l 332 47 l 560 47 l 550 0 l -3 0 m 486 1083 l 561 1333 l 658 1333 l 503 1083 l 486 1083 z "},"Î":{"ha":694,"x_min":-3,"x_max":768,"o":"m -3 0 l 7 47 l 235 47 l 433 981 l 206 981 l 215 1028 l 768 1028 l 758 981 l 531 981 l 332 47 l 560 47 l 550 0 l -3 0 m 381 1083 l 521 1319 l 576 1319 l 617 1083 l 600 1083 l 531 1231 l 397 1083 l 381 1083 z "},"Ï":{"ha":694,"x_min":-3,"x_max":768,"o":"m -3 0 l 7 47 l 235 47 l 433 981 l 206 981 l 215 1028 l 768 1028 l 758 981 l 531 981 l 332 47 l 560 47 l 550 0 l -3 0 m 603 1118 q 562 1133 578 1118 q 546 1172 546 1149 q 572 1231 546 1206 q 632 1257 599 1257 q 673 1242 657 1257 q 689 1203 689 1226 q 663 1144 689 1169 q 603 1118 636 1118 m 407 1118 q 366 1133 382 1118 q 350 1172 350 1149 q 376 1231 350 1206 q 436 1257 403 1257 q 477 1242 461 1257 q 493 1203 493 1226 q 467 1144 493 1169 q 407 1118 440 1118 z "},"İ":{"ha":694,"x_min":-3,"x_max":768,"o":"m -3 0 l 7 47 l 235 47 l 433 981 l 206 981 l 215 1028 l 768 1028 l 758 981 l 531 981 l 332 47 l 560 47 l 550 0 l -3 0 m 513 1153 q 467 1169 485 1153 q 450 1213 450 1186 q 479 1277 450 1249 q 544 1306 508 1306 q 590 1289 572 1306 q 607 1246 607 1272 q 578 1181 607 1210 q 513 1153 549 1153 z "},"Ị":{"ha":694,"x_min":-3,"x_max":768,"o":"m -3 0 l 7 47 l 235 47 l 433 981 l 206 981 l 215 1028 l 768 1028 l 758 981 l 531 981 l 332 47 l 560 47 l 550 0 l -3 0 m 218 -237 q 178 -222 193 -237 q 163 -183 163 -206 q 188 -126 163 -151 q 247 -100 214 -100 q 288 -115 272 -100 q 303 -154 303 -131 q 277 -212 303 -186 q 218 -237 251 -237 z "},"Ì":{"ha":694,"x_min":-3,"x_max":768,"o":"m -3 0 l 7 47 l 235 47 l 433 981 l 206 981 l 215 1028 l 768 1028 l 758 981 l 531 981 l 332 47 l 560 47 l 550 0 l -3 0 m 469 1083 l 422 1333 l 506 1333 l 486 1083 l 469 1083 z "},"Ỉ":{"ha":694,"x_min":-3,"x_max":768,"o":"m -3 0 l 7 47 l 235 47 l 433 981 l 206 981 l 215 1028 l 768 1028 l 758 981 l 531 981 l 332 47 l 560 47 l 550 0 l -3 0 m 485 1097 l 486 1106 q 514 1171 493 1149 q 553 1210 535 1193 q 571 1253 571 1226 q 560 1282 571 1271 q 528 1293 549 1293 q 495 1285 510 1293 q 474 1269 481 1276 l 485 1263 q 499 1249 493 1257 q 506 1231 506 1242 q 497 1208 506 1217 q 472 1199 488 1199 q 446 1209 457 1199 q 435 1239 435 1219 q 465 1299 435 1274 q 543 1325 496 1325 q 606 1306 583 1325 q 628 1256 628 1286 q 612 1210 628 1228 q 575 1179 596 1193 q 536 1149 554 1165 q 514 1106 518 1132 l 513 1097 l 485 1097 z "},"Ī":{"ha":694,"x_min":-3,"x_max":768,"o":"m -3 0 l 7 47 l 235 47 l 433 981 l 206 981 l 215 1028 l 768 1028 l 758 981 l 531 981 l 332 47 l 560 47 l 550 0 l -3 0 m 332 1164 l 340 1207 l 708 1207 l 700 1164 l 332 1164 z "},"Į":{"ha":694,"x_min":-3,"x_max":768,"o":"m -3 0 l 7 47 l 235 47 l 433 981 l 206 981 l 215 1028 l 768 1028 l 758 981 l 531 981 l 332 47 l 560 47 l 550 0 l -3 0 m 235 -242 q 174 -222 204 -242 q 144 -150 144 -203 q 164 -77 144 -108 q 212 -26 183 -46 q 265 3 240 -6 l 314 3 q 267 -19 292 -3 q 226 -58 243 -35 q 210 -114 210 -82 q 230 -164 210 -149 q 276 -179 250 -179 q 328 -162 307 -179 q 357 -131 349 -146 l 372 -139 q 323 -207 358 -172 q 235 -242 288 -242 z "},"Ĩ":{"ha":694,"x_min":-3,"x_max":768,"o":"m -3 0 l 7 47 l 235 47 l 433 981 l 206 981 l 215 1028 l 768 1028 l 758 981 l 531 981 l 332 47 l 560 47 l 550 0 l -3 0 m 564 1124 q 519 1140 538 1124 q 486 1174 501 1157 q 450 1190 471 1190 q 419 1174 431 1190 q 400 1128 407 1157 l 382 1128 q 389 1155 383 1135 q 406 1198 394 1175 q 434 1238 417 1221 q 476 1254 451 1254 q 521 1238 503 1254 q 555 1204 539 1221 q 590 1188 571 1188 q 640 1250 626 1188 l 658 1250 q 645 1206 656 1236 q 615 1149 635 1175 q 564 1124 596 1124 z "},"J":{"ha":694,"x_min":-7,"x_max":858,"o":"m 176 -14 q 40 22 88 -14 q -7 107 -7 57 q 13 163 -7 139 q 65 186 32 186 q 120 158 106 186 q 140 106 135 131 l 160 26 q 248 33 203 22 q 335 76 293 43 q 413 173 378 110 q 468 336 447 236 l 604 981 l 368 981 l 378 1028 l 858 1028 l 849 981 l 701 981 l 565 339 q 482 142 540 221 q 344 25 424 64 q 176 -14 264 -14 z "},"K":{"ha":694,"x_min":-68,"x_max":794,"o":"m -68 0 l -58 47 l 33 47 l 232 981 l 140 981 l 150 1028 l 428 1028 l 418 981 l 326 981 l 224 500 l 639 981 l 556 981 l 565 1028 l 794 1028 l 785 981 l 696 981 l 393 628 l 544 47 l 629 47 l 619 0 l 329 0 l 339 47 l 449 47 l 318 543 l 206 411 l 128 47 l 261 47 l 251 0 l -68 0 z "},"Ķ":{"ha":694,"x_min":-68,"x_max":794,"o":"m -68 0 l -58 47 l 33 47 l 232 981 l 140 981 l 150 1028 l 428 1028 l 418 981 l 326 981 l 224 500 l 639 981 l 556 981 l 565 1028 l 794 1028 l 785 981 l 696 981 l 393 628 l 544 47 l 629 47 l 619 0 l 329 0 l 339 47 l 449 47 l 318 543 l 206 411 l 128 47 l 261 47 l 251 0 l -68 0 m 150 -287 l 139 -265 q 201 -222 168 -249 q 239 -174 233 -196 q 194 -158 213 -174 q 175 -114 175 -142 q 199 -58 175 -81 q 254 -36 222 -36 q 298 -53 279 -36 q 317 -104 317 -71 q 290 -177 317 -142 q 224 -241 263 -212 q 150 -287 185 -269 z "},"L":{"ha":694,"x_min":-21,"x_max":633,"o":"m -21 0 l -11 47 l 106 47 l 304 981 l 188 981 l 197 1028 l 528 1028 l 518 981 l 401 981 l 203 49 l 400 49 q 460 55 433 49 q 507 83 486 61 q 542 150 528 104 l 594 325 l 633 325 l 564 0 l -21 0 z "},"Ĺ":{"ha":694,"x_min":-21,"x_max":633,"o":"m -21 0 l -11 47 l 106 47 l 304 981 l 188 981 l 197 1028 l 528 1028 l 518 981 l 401 981 l 203 49 l 400 49 q 460 55 433 49 q 507 83 486 61 q 542 150 528 104 l 594 325 l 633 325 l 564 0 l -21 0 m 361 1083 l 436 1333 l 533 1333 l 378 1083 l 361 1083 z "},"Ľ":{"ha":694,"x_min":-21,"x_max":633,"o":"m -21 0 l -11 47 l 106 47 l 304 981 l 188 981 l 197 1028 l 528 1028 l 518 981 l 401 981 l 203 49 l 400 49 q 460 55 433 49 q 507 83 486 61 q 542 150 528 104 l 594 325 l 633 325 l 564 0 l -21 0 m 346 1083 l 306 1319 l 322 1319 l 392 1172 l 525 1319 l 542 1319 l 401 1083 l 346 1083 z "},"Ļ":{"ha":694,"x_min":-21,"x_max":633,"o":"m -21 0 l -11 47 l 106 47 l 304 981 l 188 981 l 197 1028 l 528 1028 l 518 981 l 401 981 l 203 49 l 400 49 q 460 55 433 49 q 507 83 486 61 q 542 150 528 104 l 594 325 l 633 325 l 564 0 l -21 0 m 150 -287 l 139 -265 q 201 -222 168 -249 q 239 -174 233 -196 q 194 -158 213 -174 q 175 -114 175 -142 q 199 -58 175 -81 q 254 -36 222 -36 q 298 -53 279 -36 q 317 -104 317 -71 q 290 -177 317 -142 q 224 -241 263 -212 q 150 -287 185 -269 z "},"Ł":{"ha":694,"x_min":-22,"x_max":632,"o":"m -22 0 l -12 47 l 104 47 l 196 478 l 56 404 l 65 451 l 206 525 l 303 981 l 186 981 l 196 1028 l 526 1028 l 517 981 l 400 981 l 315 583 l 514 688 l 504 640 l 306 536 l 201 49 l 399 49 q 458 55 432 49 q 506 83 485 61 q 540 150 526 104 l 593 325 l 632 325 l 563 0 l -22 0 z "},"M":{"ha":694,"x_min":-61,"x_max":853,"o":"m -61 0 l -51 47 l 32 47 l 231 981 l 147 981 l 157 1028 l 293 1028 l 311 161 l 696 1028 l 853 1028 l 843 981 l 754 981 l 556 47 l 644 47 l 635 0 l 376 0 l 386 47 l 461 47 l 607 731 l 282 0 l 239 0 l 225 731 l 79 47 l 168 47 l 158 0 l -61 0 z "},"N":{"ha":694,"x_min":-26,"x_max":804,"o":"m 461 -14 l 283 814 l 119 47 l 236 47 l 226 0 l -26 0 l -17 47 l 72 47 l 271 981 l 182 981 l 192 1028 l 333 1028 l 501 244 l 658 981 l 542 981 l 551 1028 l 804 1028 l 794 981 l 706 981 l 494 -14 l 461 -14 z "},"Ń":{"ha":694,"x_min":-26,"x_max":804,"o":"m 461 -14 l 283 814 l 119 47 l 236 47 l 226 0 l -26 0 l -17 47 l 72 47 l 271 981 l 182 981 l 192 1028 l 333 1028 l 501 244 l 658 981 l 542 981 l 551 1028 l 804 1028 l 794 981 l 706 981 l 494 -14 l 461 -14 m 486 1083 l 561 1333 l 658 1333 l 503 1083 l 486 1083 z "},"Ň":{"ha":694,"x_min":-26,"x_max":804,"o":"m 461 -14 l 283 814 l 119 47 l 236 47 l 226 0 l -26 0 l -17 47 l 72 47 l 271 981 l 182 981 l 192 1028 l 333 1028 l 501 244 l 658 981 l 542 981 l 551 1028 l 804 1028 l 794 981 l 706 981 l 494 -14 l 461 -14 m 471 1083 l 431 1319 l 447 1319 l 517 1172 l 650 1319 l 667 1319 l 526 1083 l 471 1083 z "},"Ņ":{"ha":694,"x_min":-26,"x_max":804,"o":"m 461 -14 l 283 814 l 119 47 l 236 47 l 226 0 l -26 0 l -17 47 l 72 47 l 271 981 l 182 981 l 192 1028 l 333 1028 l 501 244 l 658 981 l 542 981 l 551 1028 l 804 1028 l 794 981 l 706 981 l 494 -14 l 461 -14 m 178 -287 l 167 -265 q 228 -222 196 -249 q 267 -174 261 -196 q 222 -158 240 -174 q 203 -114 203 -142 q 226 -58 203 -81 q 282 -36 250 -36 q 326 -53 307 -36 q 344 -104 344 -71 q 317 -177 344 -142 q 251 -241 290 -212 q 178 -287 213 -269 z "},"Ŋ":{"ha":694,"x_min":-18,"x_max":813,"o":"m 242 -250 q 126 -221 171 -250 q 81 -146 81 -192 q 98 -99 81 -118 q 146 -81 115 -81 q 203 -105 186 -81 q 225 -144 219 -129 l 249 -214 q 347 -190 306 -218 q 417 -112 389 -162 q 458 0 444 -61 l 463 18 l 292 814 l 128 47 l 244 47 l 235 0 l -18 0 l -8 47 l 81 47 l 279 981 l 190 981 l 200 1028 l 342 1028 l 510 244 l 667 981 l 550 981 l 560 1028 l 813 1028 l 803 981 l 714 981 l 508 11 q 481 -76 500 -31 q 432 -161 463 -122 q 354 -225 401 -200 q 242 -250 307 -250 z "},"Ñ":{"ha":694,"x_min":-26,"x_max":804,"o":"m 461 -14 l 283 814 l 119 47 l 236 47 l 226 0 l -26 0 l -17 47 l 72 47 l 271 981 l 182 981 l 192 1028 l 333 1028 l 501 244 l 658 981 l 542 981 l 551 1028 l 804 1028 l 794 981 l 706 981 l 494 -14 l 461 -14 m 564 1124 q 519 1140 538 1124 q 486 1174 501 1157 q 450 1190 471 1190 q 419 1174 431 1190 q 400 1128 407 1157 l 382 1128 q 389 1155 383 1135 q 406 1198 394 1175 q 434 1238 417 1221 q 476 1254 451 1254 q 521 1238 503 1254 q 555 1204 539 1221 q 590 1188 571 1188 q 640 1250 626 1188 l 658 1250 q 645 1206 656 1236 q 615 1149 635 1175 q 564 1124 596 1124 z "},"O":{"ha":694,"x_min":60,"x_max":676,"o":"m 251 -14 q 142 28 185 -14 q 80 144 100 71 q 60 308 60 217 q 82 514 60 410 q 144 713 104 618 q 238 881 185 807 q 355 999 292 956 q 485 1042 418 1042 q 594 999 551 1042 q 656 885 636 957 q 676 721 676 813 q 654 515 676 619 q 592 317 632 411 q 498 147 551 222 q 382 29 444 72 q 251 -14 319 -14 m 265 38 q 405 101 347 38 q 488 285 463 165 l 585 743 q 581 926 610 863 q 471 990 553 990 q 332 926 390 990 q 249 743 274 863 l 151 285 q 155 101 126 165 q 265 38 183 38 z "},"Ó":{"ha":694,"x_min":60,"x_max":676,"o":"m 251 -14 q 142 28 185 -14 q 80 144 100 71 q 60 308 60 217 q 82 514 60 410 q 144 713 104 618 q 238 881 185 807 q 355 999 292 956 q 485 1042 418 1042 q 594 999 551 1042 q 656 885 636 957 q 676 721 676 813 q 654 515 676 619 q 592 317 632 411 q 498 147 551 222 q 382 29 444 72 q 251 -14 319 -14 m 265 38 q 405 101 347 38 q 488 285 463 165 l 585 743 q 581 926 610 863 q 471 990 553 990 q 332 926 390 990 q 249 743 274 863 l 151 285 q 155 101 126 165 q 265 38 183 38 m 486 1083 l 561 1333 l 658 1333 l 503 1083 l 486 1083 z "},"Ô":{"ha":694,"x_min":60,"x_max":676,"o":"m 251 -14 q 142 28 185 -14 q 80 144 100 71 q 60 308 60 217 q 82 514 60 410 q 144 713 104 618 q 238 881 185 807 q 355 999 292 956 q 485 1042 418 1042 q 594 999 551 1042 q 656 885 636 957 q 676 721 676 813 q 654 515 676 619 q 592 317 632 411 q 498 147 551 222 q 382 29 444 72 q 251 -14 319 -14 m 265 38 q 405 101 347 38 q 488 285 463 165 l 585 743 q 581 926 610 863 q 471 990 553 990 q 332 926 390 990 q 249 743 274 863 l 151 285 q 155 101 126 165 q 265 38 183 38 m 381 1083 l 521 1319 l 576 1319 l 617 1083 l 600 1083 l 531 1231 l 397 1083 l 381 1083 z "},"Ố":{"ha":694,"x_min":60,"x_max":801,"o":"m 251 -14 q 142 28 185 -14 q 80 144 100 71 q 60 308 60 217 q 82 514 60 410 q 144 713 104 618 q 238 881 185 807 q 355 999 292 956 q 485 1042 418 1042 q 594 999 551 1042 q 656 885 636 957 q 676 721 676 813 q 654 515 676 619 q 592 317 632 411 q 498 147 551 222 q 382 29 444 72 q 251 -14 319 -14 m 265 38 q 405 101 347 38 q 488 285 463 165 l 585 743 q 581 926 610 863 q 471 990 553 990 q 332 926 390 990 q 249 743 274 863 l 151 285 q 155 101 126 165 q 265 38 183 38 m 629 1251 l 704 1501 l 801 1501 l 646 1251 l 629 1251 m 381 1083 l 521 1319 l 576 1319 l 617 1083 l 600 1083 l 531 1231 l 397 1083 l 381 1083 z "},"Ộ":{"ha":694,"x_min":60,"x_max":676,"o":"m 251 -14 q 142 28 185 -14 q 80 144 100 71 q 60 308 60 217 q 82 514 60 410 q 144 713 104 618 q 238 881 185 807 q 355 999 292 956 q 485 1042 418 1042 q 594 999 551 1042 q 656 885 636 957 q 676 721 676 813 q 654 515 676 619 q 592 317 632 411 q 498 147 551 222 q 382 29 444 72 q 251 -14 319 -14 m 265 38 q 405 101 347 38 q 488 285 463 165 l 585 743 q 581 926 610 863 q 471 990 553 990 q 332 926 390 990 q 249 743 274 863 l 151 285 q 155 101 126 165 q 265 38 183 38 m 218 -237 q 178 -222 193 -237 q 163 -183 163 -206 q 188 -126 163 -151 q 247 -100 214 -100 q 288 -115 272 -100 q 303 -154 303 -131 q 277 -212 303 -186 q 218 -237 251 -237 m 381 1083 l 521 1319 l 576 1319 l 617 1083 l 600 1083 l 531 1231 l 397 1083 l 381 1083 z "},"Ồ":{"ha":694,"x_min":60,"x_max":676,"o":"m 251 -14 q 142 28 185 -14 q 80 144 100 71 q 60 308 60 217 q 82 514 60 410 q 144 713 104 618 q 238 881 185 807 q 355 999 292 956 q 485 1042 418 1042 q 594 999 551 1042 q 656 885 636 957 q 676 721 676 813 q 654 515 676 619 q 592 317 632 411 q 498 147 551 222 q 382 29 444 72 q 251 -14 319 -14 m 265 38 q 405 101 347 38 q 488 285 463 165 l 585 743 q 581 926 610 863 q 471 990 553 990 q 332 926 390 990 q 249 743 274 863 l 151 285 q 155 101 126 165 q 265 38 183 38 m 640 1251 l 593 1501 l 676 1501 l 657 1251 l 640 1251 m 381 1083 l 521 1319 l 576 1319 l 617 1083 l 600 1083 l 531 1231 l 397 1083 l 381 1083 z "},"Ổ":{"ha":694,"x_min":60,"x_max":771,"o":"m 251 -14 q 142 28 185 -14 q 80 144 100 71 q 60 308 60 217 q 82 514 60 410 q 144 713 104 618 q 238 881 185 807 q 355 999 292 956 q 485 1042 418 1042 q 594 999 551 1042 q 656 885 636 957 q 676 721 676 813 q 654 515 676 619 q 592 317 632 411 q 498 147 551 222 q 382 29 444 72 q 251 -14 319 -14 m 265 38 q 405 101 347 38 q 488 285 463 165 l 585 743 q 581 926 610 863 q 471 990 553 990 q 332 926 390 990 q 249 743 274 863 l 151 285 q 155 101 126 165 q 265 38 183 38 m 628 1265 l 629 1274 q 657 1339 636 1317 q 696 1378 678 1361 q 714 1421 714 1394 q 703 1450 714 1439 q 671 1461 692 1461 q 638 1453 653 1461 q 617 1438 624 1444 l 628 1431 q 642 1417 636 1425 q 649 1399 649 1410 q 640 1376 649 1385 q 615 1367 631 1367 q 589 1377 600 1367 q 578 1407 578 1388 q 608 1467 578 1442 q 686 1493 639 1493 q 749 1474 726 1493 q 771 1424 771 1454 q 755 1378 771 1396 q 718 1347 739 1361 q 679 1317 697 1333 q 657 1274 661 1300 l 656 1265 l 628 1265 m 381 1083 l 521 1319 l 576 1319 l 617 1083 l 600 1083 l 531 1231 l 397 1083 l 381 1083 z "},"Ỗ":{"ha":694,"x_min":60,"x_max":713,"o":"m 251 -14 q 142 28 185 -14 q 80 144 100 71 q 60 308 60 217 q 82 514 60 410 q 144 713 104 618 q 238 881 185 807 q 355 999 292 956 q 485 1042 418 1042 q 594 999 551 1042 q 656 885 636 957 q 676 721 676 813 q 654 515 676 619 q 592 317 632 411 q 498 147 551 222 q 382 29 444 72 q 251 -14 319 -14 m 265 38 q 405 101 347 38 q 488 285 463 165 l 585 743 q 581 926 610 863 q 471 990 553 990 q 332 926 390 990 q 249 743 274 863 l 151 285 q 155 101 126 165 q 265 38 183 38 m 618 1342 q 574 1358 592 1342 q 540 1392 556 1375 q 504 1408 525 1408 q 473 1392 485 1408 q 454 1346 461 1375 l 436 1346 q 443 1373 438 1353 q 460 1416 449 1393 q 488 1456 471 1439 q 531 1472 506 1472 q 575 1456 557 1472 q 609 1422 593 1439 q 644 1406 625 1406 q 694 1468 681 1406 l 713 1468 q 699 1424 710 1454 q 669 1367 689 1393 q 618 1342 650 1342 m 381 1083 l 521 1319 l 576 1319 l 617 1083 l 600 1083 l 531 1231 l 397 1083 l 381 1083 z "},"Ö":{"ha":694,"x_min":60,"x_max":689,"o":"m 251 -14 q 142 28 185 -14 q 80 144 100 71 q 60 308 60 217 q 82 514 60 410 q 144 713 104 618 q 238 881 185 807 q 355 999 292 956 q 485 1042 418 1042 q 594 999 551 1042 q 656 885 636 957 q 676 721 676 813 q 654 515 676 619 q 592 317 632 411 q 498 147 551 222 q 382 29 444 72 q 251 -14 319 -14 m 265 38 q 405 101 347 38 q 488 285 463 165 l 585 743 q 581 926 610 863 q 471 990 553 990 q 332 926 390 990 q 249 743 274 863 l 151 285 q 155 101 126 165 q 265 38 183 38 m 603 1118 q 562 1133 578 1118 q 546 1172 546 1149 q 572 1231 546 1206 q 632 1257 599 1257 q 673 1242 657 1257 q 689 1203 689 1226 q 663 1144 689 1169 q 603 1118 636 1118 m 407 1118 q 366 1133 382 1118 q 350 1172 350 1149 q 376 1231 350 1206 q 436 1257 403 1257 q 477 1242 461 1257 q 493 1203 493 1226 q 467 1144 493 1169 q 407 1118 440 1118 z "},"Ọ":{"ha":694,"x_min":60,"x_max":676,"o":"m 251 -14 q 142 28 185 -14 q 80 144 100 71 q 60 308 60 217 q 82 514 60 410 q 144 713 104 618 q 238 881 185 807 q 355 999 292 956 q 485 1042 418 1042 q 594 999 551 1042 q 656 885 636 957 q 676 721 676 813 q 654 515 676 619 q 592 317 632 411 q 498 147 551 222 q 382 29 444 72 q 251 -14 319 -14 m 265 38 q 405 101 347 38 q 488 285 463 165 l 585 743 q 581 926 610 863 q 471 990 553 990 q 332 926 390 990 q 249 743 274 863 l 151 285 q 155 101 126 165 q 265 38 183 38 m 218 -237 q 178 -222 193 -237 q 163 -183 163 -206 q 188 -126 163 -151 q 247 -100 214 -100 q 288 -115 272 -100 q 303 -154 303 -131 q 277 -212 303 -186 q 218 -237 251 -237 z "},"Ò":{"ha":694,"x_min":60,"x_max":676,"o":"m 251 -14 q 142 28 185 -14 q 80 144 100 71 q 60 308 60 217 q 82 514 60 410 q 144 713 104 618 q 238 881 185 807 q 355 999 292 956 q 485 1042 418 1042 q 594 999 551 1042 q 656 885 636 957 q 676 721 676 813 q 654 515 676 619 q 592 317 632 411 q 498 147 551 222 q 382 29 444 72 q 251 -14 319 -14 m 265 38 q 405 101 347 38 q 488 285 463 165 l 585 743 q 581 926 610 863 q 471 990 553 990 q 332 926 390 990 q 249 743 274 863 l 151 285 q 155 101 126 165 q 265 38 183 38 m 469 1083 l 422 1333 l 506 1333 l 486 1083 l 469 1083 z "},"Ỏ":{"ha":694,"x_min":60,"x_max":676,"o":"m 251 -14 q 142 28 185 -14 q 80 144 100 71 q 60 308 60 217 q 82 514 60 410 q 144 713 104 618 q 238 881 185 807 q 355 999 292 956 q 485 1042 418 1042 q 594 999 551 1042 q 656 885 636 957 q 676 721 676 813 q 654 515 676 619 q 592 317 632 411 q 498 147 551 222 q 382 29 444 72 q 251 -14 319 -14 m 265 38 q 405 101 347 38 q 488 285 463 165 l 585 743 q 581 926 610 863 q 471 990 553 990 q 332 926 390 990 q 249 743 274 863 l 151 285 q 155 101 126 165 q 265 38 183 38 m 485 1097 l 486 1106 q 514 1171 493 1149 q 553 1210 535 1193 q 571 1253 571 1226 q 560 1282 571 1271 q 528 1293 549 1293 q 495 1285 510 1293 q 474 1269 481 1276 l 485 1263 q 499 1249 493 1257 q 506 1231 506 1242 q 497 1208 506 1217 q 472 1199 488 1199 q 446 1209 457 1199 q 435 1239 435 1219 q 465 1299 435 1274 q 543 1325 496 1325 q 606 1306 583 1325 q 628 1256 628 1286 q 612 1210 628 1228 q 575 1179 596 1193 q 536 1149 554 1165 q 514 1106 518 1132 l 513 1097 l 485 1097 z "},"Ơ":{"ha":694,"x_min":60,"x_max":785,"o":"m 251 -14 q 142 28 185 -14 q 80 144 100 71 q 60 308 60 217 q 82 514 60 410 q 144 713 104 618 q 238 881 185 807 q 355 999 292 956 q 485 1042 418 1042 q 594 999 551 1042 q 656 885 636 957 q 676 721 676 813 q 654 515 676 619 q 592 317 632 411 q 498 147 551 222 q 382 29 444 72 q 251 -14 319 -14 m 265 38 q 405 101 347 38 q 488 285 463 165 l 585 743 q 581 926 610 863 q 471 990 553 990 q 332 926 390 990 q 249 743 274 863 l 151 285 q 155 101 126 165 q 265 38 183 38 m 608 911 l 615 946 l 640 946 q 701 964 679 946 q 725 997 722 982 q 714 996 721 996 q 676 1013 690 996 q 661 1051 661 1029 q 680 1095 661 1078 q 725 1113 699 1113 q 767 1097 749 1113 q 785 1050 785 1082 q 767 988 785 1019 q 716 933 750 956 q 633 911 682 911 l 608 911 z "},"Ớ":{"ha":694,"x_min":60,"x_max":785,"o":"m 251 -14 q 142 28 185 -14 q 80 144 100 71 q 60 308 60 217 q 82 514 60 410 q 144 713 104 618 q 238 881 185 807 q 355 999 292 956 q 485 1042 418 1042 q 594 999 551 1042 q 656 885 636 957 q 676 721 676 813 q 654 515 676 619 q 592 317 632 411 q 498 147 551 222 q 382 29 444 72 q 251 -14 319 -14 m 265 38 q 405 101 347 38 q 488 285 463 165 l 585 743 q 581 926 610 863 q 471 990 553 990 q 332 926 390 990 q 249 743 274 863 l 151 285 q 155 101 126 165 q 265 38 183 38 m 608 911 l 615 946 l 640 946 q 701 964 679 946 q 725 997 722 982 q 714 996 721 996 q 676 1013 690 996 q 661 1051 661 1029 q 680 1095 661 1078 q 725 1113 699 1113 q 767 1097 749 1113 q 785 1050 785 1082 q 767 988 785 1019 q 716 933 750 956 q 633 911 682 911 l 608 911 m 486 1083 l 561 1333 l 658 1333 l 503 1083 l 486 1083 z "},"Ợ":{"ha":694,"x_min":60,"x_max":785,"o":"m 251 -14 q 142 28 185 -14 q 80 144 100 71 q 60 308 60 217 q 82 514 60 410 q 144 713 104 618 q 238 881 185 807 q 355 999 292 956 q 485 1042 418 1042 q 594 999 551 1042 q 656 885 636 957 q 676 721 676 813 q 654 515 676 619 q 592 317 632 411 q 498 147 551 222 q 382 29 444 72 q 251 -14 319 -14 m 265 38 q 405 101 347 38 q 488 285 463 165 l 585 743 q 581 926 610 863 q 471 990 553 990 q 332 926 390 990 q 249 743 274 863 l 151 285 q 155 101 126 165 q 265 38 183 38 m 608 911 l 615 946 l 640 946 q 701 964 679 946 q 725 997 722 982 q 714 996 721 996 q 676 1013 690 996 q 661 1051 661 1029 q 680 1095 661 1078 q 725 1113 699 1113 q 767 1097 749 1113 q 785 1050 785 1082 q 767 988 785 1019 q 716 933 750 956 q 633 911 682 911 l 608 911 m 218 -237 q 178 -222 193 -237 q 163 -183 163 -206 q 188 -126 163 -151 q 247 -100 214 -100 q 288 -115 272 -100 q 303 -154 303 -131 q 277 -212 303 -186 q 218 -237 251 -237 z "},"Ờ":{"ha":694,"x_min":60,"x_max":785,"o":"m 251 -14 q 142 28 185 -14 q 80 144 100 71 q 60 308 60 217 q 82 514 60 410 q 144 713 104 618 q 238 881 185 807 q 355 999 292 956 q 485 1042 418 1042 q 594 999 551 1042 q 656 885 636 957 q 676 721 676 813 q 654 515 676 619 q 592 317 632 411 q 498 147 551 222 q 382 29 444 72 q 251 -14 319 -14 m 265 38 q 405 101 347 38 q 488 285 463 165 l 585 743 q 581 926 610 863 q 471 990 553 990 q 332 926 390 990 q 249 743 274 863 l 151 285 q 155 101 126 165 q 265 38 183 38 m 608 911 l 615 946 l 640 946 q 701 964 679 946 q 725 997 722 982 q 714 996 721 996 q 676 1013 690 996 q 661 1051 661 1029 q 680 1095 661 1078 q 725 1113 699 1113 q 767 1097 749 1113 q 785 1050 785 1082 q 767 988 785 1019 q 716 933 750 956 q 633 911 682 911 l 608 911 m 469 1083 l 422 1333 l 506 1333 l 486 1083 l 469 1083 z "},"Ở":{"ha":694,"x_min":60,"x_max":785,"o":"m 251 -14 q 142 28 185 -14 q 80 144 100 71 q 60 308 60 217 q 82 514 60 410 q 144 713 104 618 q 238 881 185 807 q 355 999 292 956 q 485 1042 418 1042 q 594 999 551 1042 q 656 885 636 957 q 676 721 676 813 q 654 515 676 619 q 592 317 632 411 q 498 147 551 222 q 382 29 444 72 q 251 -14 319 -14 m 265 38 q 405 101 347 38 q 488 285 463 165 l 585 743 q 581 926 610 863 q 471 990 553 990 q 332 926 390 990 q 249 743 274 863 l 151 285 q 155 101 126 165 q 265 38 183 38 m 608 911 l 615 946 l 640 946 q 701 964 679 946 q 725 997 722 982 q 714 996 721 996 q 676 1013 690 996 q 661 1051 661 1029 q 680 1095 661 1078 q 725 1113 699 1113 q 767 1097 749 1113 q 785 1050 785 1082 q 767 988 785 1019 q 716 933 750 956 q 633 911 682 911 l 608 911 m 485 1097 l 486 1106 q 514 1171 493 1149 q 553 1210 535 1193 q 571 1253 571 1226 q 560 1282 571 1271 q 528 1293 549 1293 q 495 1285 510 1293 q 474 1269 481 1276 l 485 1263 q 499 1249 493 1257 q 506 1231 506 1242 q 497 1208 506 1217 q 472 1199 488 1199 q 446 1209 457 1199 q 435 1239 435 1219 q 465 1299 435 1274 q 543 1325 496 1325 q 606 1306 583 1325 q 628 1256 628 1286 q 612 1210 628 1228 q 575 1179 596 1193 q 536 1149 554 1165 q 514 1106 518 1132 l 513 1097 l 485 1097 z "},"Ỡ":{"ha":694,"x_min":60,"x_max":785,"o":"m 251 -14 q 142 28 185 -14 q 80 144 100 71 q 60 308 60 217 q 82 514 60 410 q 144 713 104 618 q 238 881 185 807 q 355 999 292 956 q 485 1042 418 1042 q 594 999 551 1042 q 656 885 636 957 q 676 721 676 813 q 654 515 676 619 q 592 317 632 411 q 498 147 551 222 q 382 29 444 72 q 251 -14 319 -14 m 265 38 q 405 101 347 38 q 488 285 463 165 l 585 743 q 581 926 610 863 q 471 990 553 990 q 332 926 390 990 q 249 743 274 863 l 151 285 q 155 101 126 165 q 265 38 183 38 m 608 911 l 615 946 l 640 946 q 701 964 679 946 q 725 997 722 982 q 714 996 721 996 q 676 1013 690 996 q 661 1051 661 1029 q 680 1095 661 1078 q 725 1113 699 1113 q 767 1097 749 1113 q 785 1050 785 1082 q 767 988 785 1019 q 716 933 750 956 q 633 911 682 911 l 608 911 m 564 1124 q 519 1140 538 1124 q 486 1174 501 1157 q 450 1190 471 1190 q 419 1174 431 1190 q 400 1128 407 1157 l 382 1128 q 389 1155 383 1135 q 406 1198 394 1175 q 434 1238 417 1221 q 476 1254 451 1254 q 521 1238 503 1254 q 555 1204 539 1221 q 590 1188 571 1188 q 640 1250 626 1188 l 658 1250 q 645 1206 656 1236 q 615 1149 635 1175 q 564 1124 596 1124 z "},"Ő":{"ha":694,"x_min":60,"x_max":699,"o":"m 251 -14 q 142 28 185 -14 q 80 144 100 71 q 60 308 60 217 q 82 514 60 410 q 144 713 104 618 q 238 881 185 807 q 355 999 292 956 q 485 1042 418 1042 q 594 999 551 1042 q 656 885 636 957 q 676 721 676 813 q 654 515 676 619 q 592 317 632 411 q 498 147 551 222 q 382 29 444 72 q 251 -14 319 -14 m 265 38 q 405 101 347 38 q 488 285 463 165 l 585 743 q 581 926 610 863 q 471 990 553 990 q 332 926 390 990 q 249 743 274 863 l 151 285 q 155 101 126 165 q 265 38 183 38 m 540 1083 l 615 1333 l 699 1333 l 557 1083 l 540 1083 m 421 1083 l 496 1333 l 579 1333 l 438 1083 l 421 1083 z "},"Ō":{"ha":694,"x_min":60,"x_max":708,"o":"m 251 -14 q 142 28 185 -14 q 80 144 100 71 q 60 308 60 217 q 82 514 60 410 q 144 713 104 618 q 238 881 185 807 q 355 999 292 956 q 485 1042 418 1042 q 594 999 551 1042 q 656 885 636 957 q 676 721 676 813 q 654 515 676 619 q 592 317 632 411 q 498 147 551 222 q 382 29 444 72 q 251 -14 319 -14 m 265 38 q 405 101 347 38 q 488 285 463 165 l 585 743 q 581 926 610 863 q 471 990 553 990 q 332 926 390 990 q 249 743 274 863 l 151 285 q 155 101 126 165 q 265 38 183 38 m 332 1164 l 340 1207 l 708 1207 l 700 1164 l 332 1164 z "},"Ø":{"ha":694,"x_min":57,"x_max":700,"o":"m 96 -68 l 57 -54 l 118 60 q 81 163 93 103 q 69 294 69 224 q 92 500 69 396 q 154 699 114 604 q 248 867 194 793 q 365 985 301 942 q 494 1028 428 1028 q 611 978 565 1028 l 660 1068 l 700 1054 l 638 939 q 674 836 663 896 q 686 707 686 776 q 664 501 686 606 q 601 303 642 397 q 508 133 561 208 q 392 15 454 58 q 261 -28 329 -28 q 144 22 190 -28 l 96 -68 m 161 271 q 153 125 143 182 l 583 926 q 481 976 553 976 q 342 913 400 976 q 258 729 283 849 l 161 271 m 275 24 q 415 88 357 24 q 497 271 472 151 l 594 729 q 603 874 613 815 l 172 74 q 275 24 203 24 z "},"Õ":{"ha":694,"x_min":60,"x_max":676,"o":"m 251 -14 q 142 28 185 -14 q 80 144 100 71 q 60 308 60 217 q 82 514 60 410 q 144 713 104 618 q 238 881 185 807 q 355 999 292 956 q 485 1042 418 1042 q 594 999 551 1042 q 656 885 636 957 q 676 721 676 813 q 654 515 676 619 q 592 317 632 411 q 498 147 551 222 q 382 29 444 72 q 251 -14 319 -14 m 265 38 q 405 101 347 38 q 488 285 463 165 l 585 743 q 581 926 610 863 q 471 990 553 990 q 332 926 390 990 q 249 743 274 863 l 151 285 q 155 101 126 165 q 265 38 183 38 m 564 1124 q 519 1140 538 1124 q 486 1174 501 1157 q 450 1190 471 1190 q 419 1174 431 1190 q 400 1128 407 1157 l 382 1128 q 389 1155 383 1135 q 406 1198 394 1175 q 434 1238 417 1221 q 476 1254 451 1254 q 521 1238 503 1254 q 555 1204 539 1221 q 590 1188 571 1188 q 640 1250 626 1188 l 658 1250 q 645 1206 656 1236 q 615 1149 635 1175 q 564 1124 596 1124 z "},"Œ":{"ha":694,"x_min":50,"x_max":779,"o":"m 240 0 q 95 83 140 0 q 50 322 50 167 q 69 510 50 413 q 122 701 88 608 q 204 867 156 793 q 314 984 253 940 q 444 1028 375 1028 l 779 1028 l 717 731 l 678 731 l 690 879 q 669 954 694 929 q 596 979 644 979 l 542 979 l 457 585 l 518 585 l 586 761 l 621 761 l 536 361 l 501 361 l 508 538 l 447 538 l 343 49 l 401 49 q 485 74 450 49 q 538 150 521 99 l 596 325 l 635 325 l 565 0 l 240 0 m 236 44 l 257 44 l 456 983 l 435 983 q 388 978 415 983 q 333 955 361 974 q 280 897 304 936 q 240 788 256 857 l 124 238 q 122 142 113 186 q 159 72 131 99 q 236 44 188 44 z "},"P":{"ha":694,"x_min":-26,"x_max":738,"o":"m -26 0 l -17 47 l 100 47 l 299 981 l 182 981 l 192 1028 l 454 1028 q 665 958 592 1028 q 738 779 738 889 q 708 637 738 704 q 624 517 678 569 q 496 433 569 464 q 336 403 422 403 l 274 403 l 197 47 l 422 47 l 413 0 l -26 0 m 285 454 l 365 454 q 518 503 458 454 q 597 646 578 553 l 626 785 q 606 927 646 878 q 475 976 567 976 l 394 976 l 285 454 z "},"Þ":{"ha":694,"x_min":-31,"x_max":690,"o":"m -31 0 l -21 47 l 96 47 l 294 981 l 178 981 l 188 1028 l 585 1028 l 575 981 l 392 981 l 358 826 l 407 826 q 618 756 546 826 q 690 578 690 686 q 660 436 690 504 q 576 315 631 368 q 448 232 521 263 q 288 201 375 201 l 226 201 l 193 47 l 376 47 l 367 0 l -31 0 m 238 253 l 318 253 q 471 302 411 253 q 550 444 531 351 l 579 583 q 559 726 599 676 q 429 775 519 775 l 349 775 l 238 253 z "},"Q":{"ha":694,"x_min":60,"x_max":676,"o":"m 251 -14 q 142 28 185 -14 q 80 144 100 71 q 60 308 60 217 q 82 514 60 410 q 144 713 104 618 q 238 881 185 807 q 355 999 292 956 q 485 1042 418 1042 q 594 999 551 1042 q 656 885 636 957 q 676 721 676 813 q 653 512 676 618 q 589 309 631 406 q 492 138 547 213 q 372 24 436 64 l 346 -100 q 341 -133 343 -112 q 347 -172 339 -154 q 381 -189 354 -189 q 425 -169 410 -189 q 448 -126 440 -150 q 458 -92 456 -103 l 479 0 l 519 0 l 496 -108 q 473 -172 489 -139 q 428 -228 457 -206 q 351 -250 399 -250 q 274 -211 296 -250 q 267 -100 251 -172 l 285 -11 q 251 -14 268 -14 m 151 285 q 203 50 111 94 q 188 107 188 71 q 223 214 188 168 q 313 260 258 260 q 384 223 361 260 q 392 117 407 186 l 385 82 q 488 285 458 144 l 585 743 q 581 926 610 863 q 471 990 553 990 q 332 926 390 990 q 249 743 274 863 l 151 285 m 265 38 q 296 40 281 38 l 315 132 q 317 156 317 139 q 311 189 318 174 q 282 204 304 204 q 234 172 251 204 q 217 100 217 139 q 233 49 217 61 q 265 38 249 38 z "},"R":{"ha":694,"x_min":-65,"x_max":707,"o":"m 481 -14 q 394 26 417 -14 q 385 129 371 65 l 439 385 q 446 458 449 428 q 417 505 443 489 q 326 521 390 521 l 260 521 l 158 47 l 274 47 l 264 0 l -65 0 l -56 47 l 61 47 l 260 981 l 143 981 l 153 1028 l 472 1028 q 611 999 560 1028 q 685 924 663 969 q 707 828 707 879 q 673 700 707 758 q 580 601 639 642 q 443 544 521 560 l 436 543 l 435 535 l 442 533 q 524 490 499 522 q 535 385 550 457 l 482 140 q 477 107 479 128 q 482 69 475 86 q 515 51 489 51 q 562 77 546 51 q 583 132 578 103 l 635 372 l 676 372 l 625 128 q 615 92 622 115 q 594 44 608 69 q 552 3 579 19 q 481 -14 525 -14 m 269 565 l 351 565 q 499 601 440 565 q 576 729 557 636 l 593 806 q 573 941 613 899 q 439 983 533 983 l 357 983 l 269 565 z "},"Ŕ":{"ha":694,"x_min":-65,"x_max":707,"o":"m 481 -14 q 394 26 417 -14 q 385 129 371 65 l 439 385 q 446 458 449 428 q 417 505 443 489 q 326 521 390 521 l 260 521 l 158 47 l 274 47 l 264 0 l -65 0 l -56 47 l 61 47 l 260 981 l 143 981 l 153 1028 l 472 1028 q 611 999 560 1028 q 685 924 663 969 q 707 828 707 879 q 673 700 707 758 q 580 601 639 642 q 443 544 521 560 l 436 543 l 435 535 l 442 533 q 524 490 499 522 q 535 385 550 457 l 482 140 q 477 107 479 128 q 482 69 475 86 q 515 51 489 51 q 562 77 546 51 q 583 132 578 103 l 635 372 l 676 372 l 625 128 q 615 92 622 115 q 594 44 608 69 q 552 3 579 19 q 481 -14 525 -14 m 269 565 l 351 565 q 499 601 440 565 q 576 729 557 636 l 593 806 q 573 941 613 899 q 439 983 533 983 l 357 983 l 269 565 m 465 1083 l 540 1333 l 638 1333 l 482 1083 l 465 1083 z "},"Ř":{"ha":694,"x_min":-65,"x_max":707,"o":"m 481 -14 q 394 26 417 -14 q 385 129 371 65 l 439 385 q 446 458 449 428 q 417 505 443 489 q 326 521 390 521 l 260 521 l 158 47 l 274 47 l 264 0 l -65 0 l -56 47 l 61 47 l 260 981 l 143 981 l 153 1028 l 472 1028 q 611 999 560 1028 q 685 924 663 969 q 707 828 707 879 q 673 700 707 758 q 580 601 639 642 q 443 544 521 560 l 436 543 l 435 535 l 442 533 q 524 490 499 522 q 535 385 550 457 l 482 140 q 477 107 479 128 q 482 69 475 86 q 515 51 489 51 q 562 77 546 51 q 583 132 578 103 l 635 372 l 676 372 l 625 128 q 615 92 622 115 q 594 44 608 69 q 552 3 579 19 q 481 -14 525 -14 m 269 565 l 351 565 q 499 601 440 565 q 576 729 557 636 l 593 806 q 573 941 613 899 q 439 983 533 983 l 357 983 l 269 565 m 450 1083 l 410 1319 l 426 1319 l 496 1172 l 629 1319 l 646 1319 l 506 1083 l 450 1083 z "},"Ŗ":{"ha":694,"x_min":-65,"x_max":707,"o":"m 481 -14 q 394 26 417 -14 q 385 129 371 65 l 439 385 q 446 458 449 428 q 417 505 443 489 q 326 521 390 521 l 260 521 l 158 47 l 274 47 l 264 0 l -65 0 l -56 47 l 61 47 l 260 981 l 143 981 l 153 1028 l 472 1028 q 611 999 560 1028 q 685 924 663 969 q 707 828 707 879 q 673 700 707 758 q 580 601 639 642 q 443 544 521 560 l 436 543 l 435 535 l 442 533 q 524 490 499 522 q 535 385 550 457 l 482 140 q 477 107 479 128 q 482 69 475 86 q 515 51 489 51 q 562 77 546 51 q 583 132 578 103 l 635 372 l 676 372 l 625 128 q 615 92 622 115 q 594 44 608 69 q 552 3 579 19 q 481 -14 525 -14 m 269 565 l 351 565 q 499 601 440 565 q 576 729 557 636 l 593 806 q 573 941 613 899 q 439 983 533 983 l 357 983 l 269 565 m 146 -287 l 135 -265 q 197 -222 164 -249 q 235 -174 229 -196 q 190 -158 208 -174 q 171 -114 171 -142 q 194 -58 171 -81 q 250 -36 218 -36 q 294 -53 275 -36 q 313 -104 313 -71 q 285 -177 313 -142 q 219 -241 258 -212 q 146 -287 181 -269 z "},"S":{"ha":694,"x_min":15,"x_max":724,"o":"m 315 -14 q 193 18 239 -14 q 128 97 147 50 q 111 185 110 143 l 100 185 l 61 0 l 15 0 l 103 410 l 163 410 l 151 356 q 142 292 146 332 q 143 207 139 251 q 165 123 147 163 q 218 58 182 83 q 315 33 254 33 q 436 83 390 33 q 482 214 482 132 q 456 338 482 279 q 391 451 429 396 q 315 563 353 507 q 250 679 276 619 q 224 806 224 739 q 252 926 224 874 q 331 1010 281 979 q 447 1042 382 1042 q 546 1019 506 1042 q 610 964 586 996 q 640 901 633 932 l 651 901 l 678 1028 l 724 1028 l 663 739 l 603 739 q 601 867 617 808 q 546 960 586 925 q 444 996 506 996 q 347 956 385 996 q 310 847 310 915 q 336 733 310 789 q 401 622 363 678 q 477 508 439 567 q 542 388 515 450 q 568 254 568 325 q 535 119 568 179 q 446 22 503 58 q 315 -14 389 -14 z "},"Ś":{"ha":694,"x_min":15,"x_max":724,"o":"m 315 -14 q 193 18 239 -14 q 128 97 147 50 q 111 185 110 143 l 100 185 l 61 0 l 15 0 l 103 410 l 163 410 l 151 356 q 142 292 146 332 q 143 207 139 251 q 165 123 147 163 q 218 58 182 83 q 315 33 254 33 q 436 83 390 33 q 482 214 482 132 q 456 338 482 279 q 391 451 429 396 q 315 563 353 507 q 250 679 276 619 q 224 806 224 739 q 252 926 224 874 q 331 1010 281 979 q 447 1042 382 1042 q 546 1019 506 1042 q 610 964 586 996 q 640 901 633 932 l 651 901 l 678 1028 l 724 1028 l 663 739 l 603 739 q 601 867 617 808 q 546 960 586 925 q 444 996 506 996 q 347 956 385 996 q 310 847 310 915 q 336 733 310 789 q 401 622 363 678 q 477 508 439 567 q 542 388 515 450 q 568 254 568 325 q 535 119 568 179 q 446 22 503 58 q 315 -14 389 -14 m 486 1083 l 561 1333 l 658 1333 l 503 1083 l 486 1083 z "},"Š":{"ha":694,"x_min":15,"x_max":724,"o":"m 315 -14 q 193 18 239 -14 q 128 97 147 50 q 111 185 110 143 l 100 185 l 61 0 l 15 0 l 103 410 l 163 410 l 151 356 q 142 292 146 332 q 143 207 139 251 q 165 123 147 163 q 218 58 182 83 q 315 33 254 33 q 436 83 390 33 q 482 214 482 132 q 456 338 482 279 q 391 451 429 396 q 315 563 353 507 q 250 679 276 619 q 224 806 224 739 q 252 926 224 874 q 331 1010 281 979 q 447 1042 382 1042 q 546 1019 506 1042 q 610 964 586 996 q 640 901 633 932 l 651 901 l 678 1028 l 724 1028 l 663 739 l 603 739 q 601 867 617 808 q 546 960 586 925 q 444 996 506 996 q 347 956 385 996 q 310 847 310 915 q 336 733 310 789 q 401 622 363 678 q 477 508 439 567 q 542 388 515 450 q 568 254 568 325 q 535 119 568 179 q 446 22 503 58 q 315 -14 389 -14 m 471 1083 l 431 1319 l 447 1319 l 517 1172 l 650 1319 l 667 1319 l 526 1083 l 471 1083 z "},"Ş":{"ha":694,"x_min":15,"x_max":724,"o":"m 315 -14 q 193 18 239 -14 q 128 97 147 50 q 111 185 110 143 l 100 185 l 61 0 l 15 0 l 103 410 l 163 410 l 151 356 q 142 292 146 332 q 143 207 139 251 q 165 123 147 163 q 218 58 182 83 q 315 33 254 33 q 436 83 390 33 q 482 214 482 132 q 456 338 482 279 q 391 451 429 396 q 315 563 353 507 q 250 679 276 619 q 224 806 224 739 q 252 926 224 874 q 331 1010 281 979 q 447 1042 382 1042 q 546 1019 506 1042 q 610 964 586 996 q 640 901 633 932 l 651 901 l 678 1028 l 724 1028 l 663 739 l 603 739 q 601 867 617 808 q 546 960 586 925 q 444 996 506 996 q 347 956 385 996 q 310 847 310 915 q 336 733 310 789 q 401 622 363 678 q 477 508 439 567 q 542 388 515 450 q 568 254 568 325 q 535 119 568 179 q 446 22 503 58 q 315 -14 389 -14 m 239 -285 q 132 -262 175 -285 q 89 -204 89 -240 q 101 -169 89 -186 q 139 -153 113 -153 q 181 -176 172 -153 q 192 -218 190 -200 l 194 -251 q 213 -255 201 -253 q 239 -257 225 -257 q 305 -233 283 -257 q 326 -182 326 -210 q 297 -126 326 -146 q 222 -106 267 -106 q 195 -108 210 -106 q 167 -115 181 -110 l 156 -108 l 222 0 l 268 0 l 229 -58 q 323 -69 289 -53 q 372 -112 357 -86 q 386 -167 386 -139 q 374 -219 386 -192 q 330 -265 361 -246 q 239 -285 299 -285 z "},"Ș":{"ha":694,"x_min":15,"x_max":724,"o":"m 315 -14 q 193 18 239 -14 q 128 97 147 50 q 111 185 110 143 l 100 185 l 61 0 l 15 0 l 103 410 l 163 410 l 151 356 q 142 292 146 332 q 143 207 139 251 q 165 123 147 163 q 218 58 182 83 q 315 33 254 33 q 436 83 390 33 q 482 214 482 132 q 456 338 482 279 q 391 451 429 396 q 315 563 353 507 q 250 679 276 619 q 224 806 224 739 q 252 926 224 874 q 331 1010 281 979 q 447 1042 382 1042 q 546 1019 506 1042 q 610 964 586 996 q 640 901 633 932 l 651 901 l 678 1028 l 724 1028 l 663 739 l 603 739 q 601 867 617 808 q 546 960 586 925 q 444 996 506 996 q 347 956 385 996 q 310 847 310 915 q 336 733 310 789 q 401 622 363 678 q 477 508 439 567 q 542 388 515 450 q 568 254 568 325 q 535 119 568 179 q 446 22 503 58 q 315 -14 389 -14 m 150 -287 l 139 -265 q 201 -222 168 -249 q 239 -174 233 -196 q 194 -158 213 -174 q 175 -114 175 -142 q 199 -58 175 -81 q 254 -36 222 -36 q 298 -53 279 -36 q 317 -104 317 -71 q 290 -177 317 -142 q 224 -241 263 -212 q 150 -287 185 -269 z "},"ẞ":{"ha":694,"x_min":-62,"x_max":736,"o":"m 469 -14 q 369 10 407 -14 q 315 70 332 35 q 299 138 299 106 l 288 138 l 258 0 l 219 0 l 274 251 l 340 251 l 338 239 q 334 192 335 225 q 344 122 333 158 q 383 60 354 86 q 467 33 411 33 q 558 71 522 33 q 593 176 593 108 q 573 275 593 229 q 523 364 553 321 q 463 452 493 407 q 412 547 432 497 q 392 657 392 597 q 431 790 392 738 q 526 872 469 843 q 636 906 583 900 q 620 1000 647 963 q 528 1038 593 1038 q 397 985 458 1038 q 311 813 336 932 l 139 0 l -62 0 l -54 39 l 56 53 l 207 767 q 544 1074 272 1074 q 654 1056 614 1074 q 713 1008 694 1038 q 733 948 731 979 q 731 889 736 917 q 647 881 690 890 q 567 851 604 872 q 506 794 529 831 q 483 706 483 758 q 503 606 483 653 q 553 513 524 558 q 614 422 583 468 q 665 326 644 375 q 685 219 685 276 q 655 101 685 154 q 576 17 625 47 q 469 -14 526 -14 z "},"T":{"ha":694,"x_min":31,"x_max":797,"o":"m 31 0 l 40 44 l 233 44 l 260 169 l 267 203 l 267 203 l 432 979 l 350 979 q 290 973 315 979 q 247 946 265 967 q 214 879 229 925 l 163 731 l 124 731 l 189 1042 l 214 1042 l 253 1028 l 728 1028 l 772 1042 l 797 1042 l 732 731 l 693 731 l 706 879 q 685 961 711 943 q 611 979 660 979 l 529 979 l 357 169 l 331 44 l 524 44 l 514 0 l 31 0 z "},"Ŧ":{"ha":694,"x_min":31,"x_max":797,"o":"m 31 0 l 40 44 l 233 44 l 260 169 l 267 203 l 267 203 l 331 500 l 168 500 l 178 542 l 339 542 l 432 979 l 350 979 q 290 973 315 979 q 247 946 265 967 q 214 879 229 925 l 163 731 l 124 731 l 189 1042 l 214 1042 l 253 1028 l 728 1028 l 772 1042 l 797 1042 l 732 731 l 693 731 l 706 879 q 685 961 711 943 q 611 979 660 979 l 529 979 l 436 542 l 607 542 l 597 500 l 428 500 l 357 169 l 331 44 l 524 44 l 514 0 l 31 0 z "},"Ť":{"ha":694,"x_min":31,"x_max":797,"o":"m 31 0 l 40 44 l 233 44 l 260 169 l 267 203 l 267 203 l 432 979 l 350 979 q 290 973 315 979 q 247 946 265 967 q 214 879 229 925 l 163 731 l 124 731 l 189 1042 l 214 1042 l 253 1028 l 728 1028 l 772 1042 l 797 1042 l 732 731 l 693 731 l 706 879 q 685 961 711 943 q 611 979 660 979 l 529 979 l 357 169 l 331 44 l 524 44 l 514 0 l 31 0 m 471 1083 l 431 1319 l 447 1319 l 517 1172 l 650 1319 l 667 1319 l 526 1083 l 471 1083 z "},"Ţ":{"ha":694,"x_min":31,"x_max":797,"o":"m 31 0 l 40 44 l 233 44 l 260 169 l 267 203 l 267 203 l 432 979 l 350 979 q 290 973 315 979 q 247 946 265 967 q 214 879 229 925 l 163 731 l 124 731 l 189 1042 l 214 1042 l 253 1028 l 728 1028 l 772 1042 l 797 1042 l 732 731 l 693 731 l 706 879 q 685 961 711 943 q 611 979 660 979 l 529 979 l 357 169 l 331 44 l 524 44 l 514 0 l 31 0 m 239 -285 q 132 -262 175 -285 q 89 -204 89 -240 q 101 -169 89 -186 q 139 -153 113 -153 q 181 -176 172 -153 q 192 -218 190 -200 l 194 -251 q 213 -255 201 -253 q 239 -257 225 -257 q 305 -233 283 -257 q 326 -182 326 -210 q 297 -126 326 -146 q 222 -106 267 -106 q 195 -108 210 -106 q 167 -115 181 -110 l 156 -108 l 222 0 l 268 0 l 229 -58 q 323 -69 289 -53 q 372 -112 357 -86 q 386 -167 386 -139 q 374 -219 386 -192 q 330 -265 361 -246 q 239 -285 299 -285 z "},"Ț":{"ha":694,"x_min":31,"x_max":797,"o":"m 31 0 l 40 44 l 233 44 l 260 169 l 267 203 l 267 203 l 432 979 l 350 979 q 290 973 315 979 q 247 946 265 967 q 214 879 229 925 l 163 731 l 124 731 l 189 1042 l 214 1042 l 253 1028 l 728 1028 l 772 1042 l 797 1042 l 732 731 l 693 731 l 706 879 q 685 961 711 943 q 611 979 660 979 l 529 979 l 357 169 l 331 44 l 524 44 l 514 0 l 31 0 m 150 -287 l 139 -265 q 201 -222 168 -249 q 239 -174 233 -196 q 194 -158 213 -174 q 175 -114 175 -142 q 199 -58 175 -81 q 254 -36 222 -36 q 298 -53 279 -36 q 317 -104 317 -71 q 290 -177 317 -142 q 224 -241 263 -212 q 150 -287 185 -269 z "},"U":{"ha":694,"x_min":68,"x_max":797,"o":"m 268 -14 q 113 49 158 -14 q 93 229 68 111 l 253 981 l 164 981 l 174 1028 l 463 1028 l 453 981 l 350 981 l 190 228 q 201 91 172 139 q 304 43 229 43 q 430 91 379 43 q 499 228 481 139 l 658 981 l 576 981 l 586 1028 l 797 1028 l 788 981 l 706 981 l 546 229 q 449 49 521 111 q 268 -14 378 -14 z "},"Ú":{"ha":694,"x_min":68,"x_max":797,"o":"m 268 -14 q 113 49 158 -14 q 93 229 68 111 l 253 981 l 164 981 l 174 1028 l 463 1028 l 453 981 l 350 981 l 190 228 q 201 91 172 139 q 304 43 229 43 q 430 91 379 43 q 499 228 481 139 l 658 981 l 576 981 l 586 1028 l 797 1028 l 788 981 l 706 981 l 546 229 q 449 49 521 111 q 268 -14 378 -14 m 525 1083 l 600 1333 l 697 1333 l 542 1083 l 525 1083 z "},"Û":{"ha":694,"x_min":68,"x_max":797,"o":"m 268 -14 q 113 49 158 -14 q 93 229 68 111 l 253 981 l 164 981 l 174 1028 l 463 1028 l 453 981 l 350 981 l 190 228 q 201 91 172 139 q 304 43 229 43 q 430 91 379 43 q 499 228 481 139 l 658 981 l 576 981 l 586 1028 l 797 1028 l 788 981 l 706 981 l 546 229 q 449 49 521 111 q 268 -14 378 -14 m 419 1083 l 560 1319 l 615 1319 l 656 1083 l 639 1083 l 569 1231 l 436 1083 l 419 1083 z "},"Ü":{"ha":694,"x_min":68,"x_max":797,"o":"m 268 -14 q 113 49 158 -14 q 93 229 68 111 l 253 981 l 164 981 l 174 1028 l 463 1028 l 453 981 l 350 981 l 190 228 q 201 91 172 139 q 304 43 229 43 q 430 91 379 43 q 499 228 481 139 l 658 981 l 576 981 l 586 1028 l 797 1028 l 788 981 l 706 981 l 546 229 q 449 49 521 111 q 268 -14 378 -14 m 642 1118 q 601 1133 617 1118 q 585 1172 585 1149 q 611 1231 585 1206 q 671 1257 638 1257 q 712 1242 696 1257 q 728 1203 728 1226 q 701 1144 728 1169 q 642 1118 675 1118 m 446 1118 q 405 1133 421 1118 q 389 1172 389 1149 q 415 1231 389 1206 q 475 1257 442 1257 q 516 1242 500 1257 q 532 1203 532 1226 q 506 1144 532 1169 q 446 1118 479 1118 z "},"Ụ":{"ha":694,"x_min":68,"x_max":797,"o":"m 268 -14 q 113 49 158 -14 q 93 229 68 111 l 253 981 l 164 981 l 174 1028 l 463 1028 l 453 981 l 350 981 l 190 228 q 201 91 172 139 q 304 43 229 43 q 430 91 379 43 q 499 228 481 139 l 658 981 l 576 981 l 586 1028 l 797 1028 l 788 981 l 706 981 l 546 229 q 449 49 521 111 q 268 -14 378 -14 m 225 -237 q 185 -222 200 -237 q 169 -183 169 -206 q 195 -126 169 -151 q 254 -100 221 -100 q 294 -115 279 -100 q 310 -154 310 -131 q 284 -212 310 -186 q 225 -237 258 -237 z "},"Ù":{"ha":694,"x_min":68,"x_max":797,"o":"m 268 -14 q 113 49 158 -14 q 93 229 68 111 l 253 981 l 164 981 l 174 1028 l 463 1028 l 453 981 l 350 981 l 190 228 q 201 91 172 139 q 304 43 229 43 q 430 91 379 43 q 499 228 481 139 l 658 981 l 576 981 l 586 1028 l 797 1028 l 788 981 l 706 981 l 546 229 q 449 49 521 111 q 268 -14 378 -14 m 508 1083 l 461 1333 l 544 1333 l 525 1083 l 508 1083 z "},"Ủ":{"ha":694,"x_min":68,"x_max":797,"o":"m 268 -14 q 113 49 158 -14 q 93 229 68 111 l 253 981 l 164 981 l 174 1028 l 463 1028 l 453 981 l 350 981 l 190 228 q 201 91 172 139 q 304 43 229 43 q 430 91 379 43 q 499 228 481 139 l 658 981 l 576 981 l 586 1028 l 797 1028 l 788 981 l 706 981 l 546 229 q 449 49 521 111 q 268 -14 378 -14 m 524 1097 l 525 1106 q 553 1171 532 1149 q 592 1210 574 1193 q 610 1253 610 1226 q 599 1282 610 1271 q 567 1293 588 1293 q 534 1285 549 1293 q 513 1269 519 1276 l 524 1263 q 538 1249 532 1257 q 544 1231 544 1242 q 535 1208 544 1217 q 511 1199 526 1199 q 485 1209 496 1199 q 474 1239 474 1219 q 504 1299 474 1274 q 582 1325 535 1325 q 644 1306 622 1325 q 667 1256 667 1286 q 651 1210 667 1228 q 614 1179 635 1193 q 575 1149 593 1165 q 553 1106 557 1132 l 551 1097 l 524 1097 z "},"Ư":{"ha":694,"x_min":82,"x_max":847,"o":"m 282 -14 q 127 49 172 -14 q 107 229 82 111 l 267 981 l 178 981 l 188 1028 l 476 1028 l 467 981 l 364 981 l 204 228 q 215 91 186 139 q 318 43 243 43 q 444 91 393 43 q 513 228 494 139 l 672 981 l 590 981 l 600 1028 l 703 1028 q 763 1046 742 1028 q 788 1079 785 1064 q 776 1078 783 1078 q 738 1094 753 1078 q 724 1133 724 1111 q 742 1177 724 1160 q 788 1194 761 1194 q 829 1179 811 1194 q 847 1132 847 1164 q 815 1047 847 1090 q 722 994 783 1004 l 560 229 q 463 49 535 111 q 282 -14 392 -14 z "},"Ứ":{"ha":694,"x_min":82,"x_max":847,"o":"m 282 -14 q 127 49 172 -14 q 107 229 82 111 l 267 981 l 178 981 l 188 1028 l 476 1028 l 467 981 l 364 981 l 204 228 q 215 91 186 139 q 318 43 243 43 q 444 91 393 43 q 513 228 494 139 l 672 981 l 590 981 l 600 1028 l 703 1028 q 763 1046 742 1028 q 788 1079 785 1064 q 776 1078 783 1078 q 738 1094 753 1078 q 724 1133 724 1111 q 742 1177 724 1160 q 788 1194 761 1194 q 829 1179 811 1194 q 847 1132 847 1164 q 815 1047 847 1090 q 722 994 783 1004 l 560 229 q 463 49 535 111 q 282 -14 392 -14 m 525 1083 l 600 1333 l 697 1333 l 542 1083 l 525 1083 z "},"Ự":{"ha":694,"x_min":82,"x_max":847,"o":"m 282 -14 q 127 49 172 -14 q 107 229 82 111 l 267 981 l 178 981 l 188 1028 l 476 1028 l 467 981 l 364 981 l 204 228 q 215 91 186 139 q 318 43 243 43 q 444 91 393 43 q 513 228 494 139 l 672 981 l 590 981 l 600 1028 l 703 1028 q 763 1046 742 1028 q 788 1079 785 1064 q 776 1078 783 1078 q 738 1094 753 1078 q 724 1133 724 1111 q 742 1177 724 1160 q 788 1194 761 1194 q 829 1179 811 1194 q 847 1132 847 1164 q 815 1047 847 1090 q 722 994 783 1004 l 560 229 q 463 49 535 111 q 282 -14 392 -14 m 225 -237 q 185 -222 200 -237 q 169 -183 169 -206 q 195 -126 169 -151 q 254 -100 221 -100 q 294 -115 279 -100 q 310 -154 310 -131 q 284 -212 310 -186 q 225 -237 258 -237 z "},"Ừ":{"ha":694,"x_min":82,"x_max":847,"o":"m 282 -14 q 127 49 172 -14 q 107 229 82 111 l 267 981 l 178 981 l 188 1028 l 476 1028 l 467 981 l 364 981 l 204 228 q 215 91 186 139 q 318 43 243 43 q 444 91 393 43 q 513 228 494 139 l 672 981 l 590 981 l 600 1028 l 703 1028 q 763 1046 742 1028 q 788 1079 785 1064 q 776 1078 783 1078 q 738 1094 753 1078 q 724 1133 724 1111 q 742 1177 724 1160 q 788 1194 761 1194 q 829 1179 811 1194 q 847 1132 847 1164 q 815 1047 847 1090 q 722 994 783 1004 l 560 229 q 463 49 535 111 q 282 -14 392 -14 m 508 1083 l 461 1333 l 544 1333 l 525 1083 l 508 1083 z "},"Ử":{"ha":694,"x_min":82,"x_max":847,"o":"m 282 -14 q 127 49 172 -14 q 107 229 82 111 l 267 981 l 178 981 l 188 1028 l 476 1028 l 467 981 l 364 981 l 204 228 q 215 91 186 139 q 318 43 243 43 q 444 91 393 43 q 513 228 494 139 l 672 981 l 590 981 l 600 1028 l 703 1028 q 763 1046 742 1028 q 788 1079 785 1064 q 776 1078 783 1078 q 738 1094 753 1078 q 724 1133 724 1111 q 742 1177 724 1160 q 788 1194 761 1194 q 829 1179 811 1194 q 847 1132 847 1164 q 815 1047 847 1090 q 722 994 783 1004 l 560 229 q 463 49 535 111 q 282 -14 392 -14 m 524 1097 l 525 1106 q 553 1171 532 1149 q 592 1210 574 1193 q 610 1253 610 1226 q 599 1282 610 1271 q 567 1293 588 1293 q 534 1285 549 1293 q 513 1269 519 1276 l 524 1263 q 538 1249 532 1257 q 544 1231 544 1242 q 535 1208 544 1217 q 511 1199 526 1199 q 485 1209 496 1199 q 474 1239 474 1219 q 504 1299 474 1274 q 582 1325 535 1325 q 644 1306 622 1325 q 667 1256 667 1286 q 651 1210 667 1228 q 614 1179 635 1193 q 575 1149 593 1165 q 553 1106 557 1132 l 551 1097 l 524 1097 z "},"Ữ":{"ha":694,"x_min":82,"x_max":847,"o":"m 282 -14 q 127 49 172 -14 q 107 229 82 111 l 267 981 l 178 981 l 188 1028 l 476 1028 l 467 981 l 364 981 l 204 228 q 215 91 186 139 q 318 43 243 43 q 444 91 393 43 q 513 228 494 139 l 672 981 l 590 981 l 600 1028 l 703 1028 q 763 1046 742 1028 q 788 1079 785 1064 q 776 1078 783 1078 q 738 1094 753 1078 q 724 1133 724 1111 q 742 1177 724 1160 q 788 1194 761 1194 q 829 1179 811 1194 q 847 1132 847 1164 q 815 1047 847 1090 q 722 994 783 1004 l 560 229 q 463 49 535 111 q 282 -14 392 -14 m 589 1124 q 544 1140 563 1124 q 511 1174 526 1157 q 475 1190 496 1190 q 444 1174 456 1190 q 425 1128 432 1157 l 407 1128 q 414 1155 408 1135 q 431 1198 419 1175 q 459 1238 442 1221 q 501 1254 476 1254 q 546 1238 528 1254 q 580 1204 564 1221 q 615 1188 596 1188 q 665 1250 651 1188 l 683 1250 q 670 1206 681 1236 q 640 1149 660 1175 q 589 1124 621 1124 z "},"Ű":{"ha":694,"x_min":68,"x_max":797,"o":"m 268 -14 q 113 49 158 -14 q 93 229 68 111 l 253 981 l 164 981 l 174 1028 l 463 1028 l 453 981 l 350 981 l 190 228 q 201 91 172 139 q 304 43 229 43 q 430 91 379 43 q 499 228 481 139 l 658 981 l 576 981 l 586 1028 l 797 1028 l 788 981 l 706 981 l 546 229 q 449 49 521 111 q 268 -14 378 -14 m 579 1083 l 654 1333 l 738 1333 l 596 1083 l 579 1083 m 460 1083 l 535 1333 l 618 1333 l 476 1083 l 460 1083 z "},"Ū":{"ha":694,"x_min":68,"x_max":797,"o":"m 268 -14 q 113 49 158 -14 q 93 229 68 111 l 253 981 l 164 981 l 174 1028 l 463 1028 l 453 981 l 350 981 l 190 228 q 201 91 172 139 q 304 43 229 43 q 430 91 379 43 q 499 228 481 139 l 658 981 l 576 981 l 586 1028 l 797 1028 l 788 981 l 706 981 l 546 229 q 449 49 521 111 q 268 -14 378 -14 m 371 1164 l 379 1207 l 747 1207 l 739 1164 l 371 1164 z "},"Ų":{"ha":694,"x_min":68,"x_max":797,"o":"m 268 -14 q 113 49 158 -14 q 93 229 68 111 l 253 981 l 164 981 l 174 1028 l 463 1028 l 453 981 l 350 981 l 190 228 q 201 91 172 139 q 304 43 229 43 q 430 91 379 43 q 499 228 481 139 l 658 981 l 576 981 l 586 1028 l 797 1028 l 788 981 l 706 981 l 546 229 q 449 49 521 111 q 268 -14 378 -14 m 297 -244 q 237 -225 267 -244 q 207 -153 207 -206 q 226 -80 207 -111 q 274 -28 246 -49 q 328 0 303 -8 l 376 0 q 330 -22 354 -6 q 289 -61 306 -37 q 272 -117 272 -85 q 292 -167 272 -151 q 339 -182 313 -182 q 390 -165 369 -182 q 419 -133 411 -149 l 435 -142 q 385 -210 421 -175 q 297 -244 350 -244 z "},"Ů":{"ha":694,"x_min":68,"x_max":797,"o":"m 268 -14 q 113 49 158 -14 q 93 229 68 111 l 253 981 l 164 981 l 174 1028 l 463 1028 l 453 981 l 350 981 l 190 228 q 201 91 172 139 q 304 43 229 43 q 430 91 379 43 q 499 228 481 139 l 658 981 l 576 981 l 586 1028 l 797 1028 l 788 981 l 706 981 l 546 229 q 449 49 521 111 q 268 -14 378 -14 m 563 1089 q 478 1123 510 1089 q 447 1204 447 1157 q 478 1286 447 1253 q 563 1319 510 1319 q 647 1286 615 1319 q 678 1204 678 1253 q 647 1123 678 1157 q 563 1089 615 1089 m 563 1126 q 618 1149 599 1126 q 638 1204 638 1172 q 618 1259 638 1236 q 563 1282 599 1282 q 507 1259 526 1282 q 488 1204 488 1236 q 507 1149 488 1172 q 563 1126 526 1126 z "},"Ũ":{"ha":694,"x_min":68,"x_max":797,"o":"m 268 -14 q 113 49 158 -14 q 93 229 68 111 l 253 981 l 164 981 l 174 1028 l 463 1028 l 453 981 l 350 981 l 190 228 q 201 91 172 139 q 304 43 229 43 q 430 91 379 43 q 499 228 481 139 l 658 981 l 576 981 l 586 1028 l 797 1028 l 788 981 l 706 981 l 546 229 q 449 49 521 111 q 268 -14 378 -14 m 603 1124 q 558 1140 576 1124 q 525 1174 540 1157 q 489 1190 510 1190 q 458 1174 469 1190 q 439 1128 446 1157 l 421 1128 q 428 1155 422 1135 q 444 1198 433 1175 q 473 1238 456 1221 q 515 1254 490 1254 q 560 1238 542 1254 q 594 1204 578 1221 q 629 1188 610 1188 q 679 1250 665 1188 l 697 1250 q 684 1206 694 1236 q 654 1149 674 1175 q 603 1124 635 1124 z "},"V":{"ha":694,"x_min":119,"x_max":828,"o":"m 240 0 l 208 981 l 119 981 l 129 1028 l 457 1028 l 447 981 l 307 981 l 329 178 l 696 981 l 599 981 l 608 1028 l 828 1028 l 818 981 l 744 981 l 296 0 l 240 0 z "},"W":{"ha":694,"x_min":110,"x_max":876,"o":"m 119 0 l 192 981 l 110 981 l 119 1028 l 361 1028 l 351 981 l 282 981 l 229 274 l 436 821 l 451 1028 l 542 1028 l 485 274 l 751 981 l 692 981 l 701 1028 l 876 1028 l 867 981 l 797 981 l 428 0 l 375 0 l 425 668 l 172 0 l 119 0 z "},"Ẃ":{"ha":694,"x_min":110,"x_max":876,"o":"m 119 0 l 192 981 l 110 981 l 119 1028 l 361 1028 l 351 981 l 282 981 l 229 274 l 436 821 l 451 1028 l 542 1028 l 485 274 l 751 981 l 692 981 l 701 1028 l 876 1028 l 867 981 l 797 981 l 428 0 l 375 0 l 425 668 l 172 0 l 119 0 m 500 1083 l 575 1333 l 672 1333 l 517 1083 l 500 1083 z "},"Ŵ":{"ha":694,"x_min":110,"x_max":876,"o":"m 119 0 l 192 981 l 110 981 l 119 1028 l 361 1028 l 351 981 l 282 981 l 229 274 l 436 821 l 451 1028 l 542 1028 l 485 274 l 751 981 l 692 981 l 701 1028 l 876 1028 l 867 981 l 797 981 l 428 0 l 375 0 l 425 668 l 172 0 l 119 0 m 394 1083 l 535 1319 l 590 1319 l 631 1083 l 614 1083 l 544 1231 l 411 1083 l 394 1083 z "},"Ẅ":{"ha":694,"x_min":110,"x_max":876,"o":"m 119 0 l 192 981 l 110 981 l 119 1028 l 361 1028 l 351 981 l 282 981 l 229 274 l 436 821 l 451 1028 l 542 1028 l 485 274 l 751 981 l 692 981 l 701 1028 l 876 1028 l 867 981 l 797 981 l 428 0 l 375 0 l 425 668 l 172 0 l 119 0 m 617 1118 q 576 1133 592 1118 q 560 1172 560 1149 q 586 1231 560 1206 q 646 1257 613 1257 q 687 1242 671 1257 q 703 1203 703 1226 q 676 1144 703 1169 q 617 1118 650 1118 m 421 1118 q 380 1133 396 1118 q 364 1172 364 1149 q 390 1231 364 1206 q 450 1257 417 1257 q 491 1242 475 1257 q 507 1203 507 1226 q 481 1144 507 1169 q 421 1118 454 1118 z "},"Ẁ":{"ha":694,"x_min":110,"x_max":876,"o":"m 119 0 l 192 981 l 110 981 l 119 1028 l 361 1028 l 351 981 l 282 981 l 229 274 l 436 821 l 451 1028 l 542 1028 l 485 274 l 751 981 l 692 981 l 701 1028 l 876 1028 l 867 981 l 797 981 l 428 0 l 375 0 l 425 668 l 172 0 l 119 0 m 483 1083 l 436 1333 l 519 1333 l 500 1083 l 483 1083 z "},"X":{"ha":694,"x_min":-47,"x_max":785,"o":"m -47 0 l -37 47 l 61 47 l 333 503 l 251 981 l 153 981 l 163 1028 l 458 1028 l 449 981 l 351 981 l 414 615 l 632 981 l 556 981 l 565 1028 l 785 1028 l 775 981 l 676 981 l 425 557 l 513 47 l 611 47 l 601 0 l 296 0 l 306 47 l 413 47 l 344 444 l 106 47 l 189 47 l 179 0 l -47 0 z "},"Y":{"ha":694,"x_min":82,"x_max":894,"o":"m 82 0 l 92 47 l 292 47 l 308 126 l 374 436 l 268 981 l 158 981 l 168 1028 l 510 1028 l 500 981 l 363 981 l 456 500 l 743 981 l 651 981 l 661 1028 l 894 1028 l 885 981 l 792 981 l 474 447 l 422 203 l 422 203 l 406 126 l 389 47 l 589 47 l 579 0 l 82 0 z "},"Ý":{"ha":694,"x_min":82,"x_max":894,"o":"m 82 0 l 92 47 l 292 47 l 308 126 l 374 436 l 268 981 l 158 981 l 168 1028 l 510 1028 l 500 981 l 363 981 l 456 500 l 743 981 l 651 981 l 661 1028 l 894 1028 l 885 981 l 792 981 l 474 447 l 422 203 l 422 203 l 406 126 l 389 47 l 589 47 l 579 0 l 82 0 m 583 1083 l 658 1333 l 756 1333 l 600 1083 l 583 1083 z "},"Ŷ":{"ha":694,"x_min":82,"x_max":894,"o":"m 82 0 l 92 47 l 292 47 l 308 126 l 374 436 l 268 981 l 158 981 l 168 1028 l 510 1028 l 500 981 l 363 981 l 456 500 l 743 981 l 651 981 l 661 1028 l 894 1028 l 885 981 l 792 981 l 474 447 l 422 203 l 422 203 l 406 126 l 389 47 l 589 47 l 579 0 l 82 0 m 478 1083 l 618 1319 l 674 1319 l 714 1083 l 697 1083 l 628 1231 l 494 1083 l 478 1083 z "},"Ÿ":{"ha":694,"x_min":82,"x_max":894,"o":"m 82 0 l 92 47 l 292 47 l 308 126 l 374 436 l 268 981 l 158 981 l 168 1028 l 510 1028 l 500 981 l 363 981 l 456 500 l 743 981 l 651 981 l 661 1028 l 894 1028 l 885 981 l 792 981 l 474 447 l 422 203 l 422 203 l 406 126 l 389 47 l 589 47 l 579 0 l 82 0 m 700 1118 q 659 1133 675 1118 q 643 1172 643 1149 q 669 1231 643 1206 q 729 1257 696 1257 q 770 1242 754 1257 q 786 1203 786 1226 q 760 1144 786 1169 q 700 1118 733 1118 m 504 1118 q 463 1133 479 1118 q 447 1172 447 1149 q 474 1231 447 1206 q 533 1257 500 1257 q 574 1242 558 1257 q 590 1203 590 1226 q 564 1144 590 1169 q 504 1118 538 1118 z "},"Ỵ":{"ha":694,"x_min":82,"x_max":894,"o":"m 82 0 l 92 47 l 292 47 l 308 126 l 374 436 l 268 981 l 158 981 l 168 1028 l 510 1028 l 500 981 l 363 981 l 456 500 l 743 981 l 651 981 l 661 1028 l 894 1028 l 885 981 l 792 981 l 474 447 l 422 203 l 422 203 l 406 126 l 389 47 l 589 47 l 579 0 l 82 0 m 301 -237 q 261 -222 276 -237 q 246 -183 246 -206 q 272 -126 246 -151 q 331 -100 297 -100 q 371 -115 356 -100 q 386 -154 386 -131 q 360 -212 386 -186 q 301 -237 335 -237 z "},"Ỳ":{"ha":694,"x_min":82,"x_max":894,"o":"m 82 0 l 92 47 l 292 47 l 308 126 l 374 436 l 268 981 l 158 981 l 168 1028 l 510 1028 l 500 981 l 363 981 l 456 500 l 743 981 l 651 981 l 661 1028 l 894 1028 l 885 981 l 792 981 l 474 447 l 422 203 l 422 203 l 406 126 l 389 47 l 589 47 l 579 0 l 82 0 m 567 1083 l 519 1333 l 603 1333 l 583 1083 l 567 1083 z "},"Ỷ":{"ha":694,"x_min":82,"x_max":894,"o":"m 82 0 l 92 47 l 292 47 l 308 126 l 374 436 l 268 981 l 158 981 l 168 1028 l 510 1028 l 500 981 l 363 981 l 456 500 l 743 981 l 651 981 l 661 1028 l 894 1028 l 885 981 l 792 981 l 474 447 l 422 203 l 422 203 l 406 126 l 389 47 l 589 47 l 579 0 l 82 0 m 582 1097 l 583 1106 q 611 1171 590 1149 q 650 1210 632 1193 q 668 1253 668 1226 q 657 1282 668 1271 q 625 1293 646 1293 q 592 1285 607 1293 q 571 1269 578 1276 l 582 1263 q 597 1249 590 1257 q 603 1231 603 1242 q 594 1208 603 1217 q 569 1199 585 1199 q 543 1209 554 1199 q 532 1239 532 1219 q 563 1299 532 1274 q 640 1325 593 1325 q 703 1306 681 1325 q 725 1256 725 1286 q 709 1210 725 1228 q 672 1179 693 1193 q 633 1149 651 1165 q 611 1106 615 1132 l 610 1097 l 582 1097 z "},"Ỹ":{"ha":694,"x_min":82,"x_max":894,"o":"m 82 0 l 92 47 l 292 47 l 308 126 l 374 436 l 268 981 l 158 981 l 168 1028 l 510 1028 l 500 981 l 363 981 l 456 500 l 743 981 l 651 981 l 661 1028 l 894 1028 l 885 981 l 792 981 l 474 447 l 422 203 l 422 203 l 406 126 l 389 47 l 589 47 l 579 0 l 82 0 m 661 1124 q 617 1140 635 1124 q 583 1174 599 1157 q 547 1190 568 1190 q 516 1174 528 1190 q 497 1128 504 1157 l 479 1128 q 486 1155 481 1135 q 503 1198 492 1175 q 531 1238 514 1221 q 574 1254 549 1254 q 618 1238 600 1254 q 652 1204 636 1221 q 688 1188 668 1188 q 738 1250 724 1188 l 756 1250 q 742 1206 753 1236 q 713 1149 732 1175 q 661 1124 693 1124 z "},"Z":{"ha":694,"x_min":29,"x_max":801,"o":"m 29 0 l 35 28 l 681 979 l 444 979 q 359 964 394 979 q 303 879 324 949 l 254 717 l 215 717 l 281 1028 l 801 1028 l 796 1000 l 150 49 l 408 49 q 469 55 442 49 q 517 82 496 61 q 551 149 538 103 l 600 311 l 639 311 l 572 0 l 29 0 z "},"Ź":{"ha":694,"x_min":29,"x_max":801,"o":"m 29 0 l 35 28 l 681 979 l 444 979 q 359 964 394 979 q 303 879 324 949 l 254 717 l 215 717 l 281 1028 l 801 1028 l 796 1000 l 150 49 l 408 49 q 469 55 442 49 q 517 82 496 61 q 551 149 538 103 l 600 311 l 639 311 l 572 0 l 29 0 m 528 1083 l 603 1333 l 700 1333 l 544 1083 l 528 1083 z "},"Ž":{"ha":694,"x_min":29,"x_max":801,"o":"m 29 0 l 35 28 l 681 979 l 444 979 q 359 964 394 979 q 303 879 324 949 l 254 717 l 215 717 l 281 1028 l 801 1028 l 796 1000 l 150 49 l 408 49 q 469 55 442 49 q 517 82 496 61 q 551 149 538 103 l 600 311 l 639 311 l 572 0 l 29 0 m 513 1083 l 472 1319 l 489 1319 l 558 1172 l 692 1319 l 708 1319 l 568 1083 l 513 1083 z "},"Ż":{"ha":694,"x_min":29,"x_max":801,"o":"m 29 0 l 35 28 l 681 979 l 444 979 q 359 964 394 979 q 303 879 324 949 l 254 717 l 215 717 l 281 1028 l 801 1028 l 796 1000 l 150 49 l 408 49 q 469 55 442 49 q 517 82 496 61 q 551 149 538 103 l 600 311 l 639 311 l 572 0 l 29 0 m 554 1153 q 509 1169 526 1153 q 492 1213 492 1186 q 521 1277 492 1249 q 586 1306 550 1306 q 631 1289 614 1306 q 649 1246 649 1272 q 619 1181 649 1210 q 554 1153 590 1153 z "},"a":{"ha":694,"x_min":44,"x_max":676,"o":"m 174 -14 q 81 38 118 -14 q 50 200 44 90 q 72 334 53 260 q 124 483 90 408 q 205 622 158 558 q 309 725 251 686 q 435 764 367 764 q 494 755 469 764 q 528 736 518 746 l 594 764 l 628 764 l 490 117 q 489 80 488 101 q 517 58 490 58 q 565 82 544 58 q 615 147 585 106 l 653 197 l 676 181 l 643 135 q 560 30 599 74 q 468 -14 521 -14 q 423 -1 444 -14 q 394 45 401 13 q 406 135 388 78 l 497 426 l 476 426 l 451 351 q 403 224 431 289 q 340 106 375 160 q 263 19 304 51 q 174 -14 222 -14 m 201 42 q 270 75 236 42 q 335 164 304 108 q 394 287 367 219 q 445 424 422 354 q 485 557 468 494 q 510 663 501 619 q 473 699 500 681 q 407 718 446 718 q 303 667 347 718 q 236 529 260 617 l 144 200 q 142 88 126 135 q 201 42 158 42 z "},"á":{"ha":694,"x_min":44,"x_max":676,"o":"m 174 -14 q 81 38 118 -14 q 50 200 44 90 q 72 334 53 260 q 124 483 90 408 q 205 622 158 558 q 309 725 251 686 q 435 764 367 764 q 494 755 469 764 q 528 736 518 746 l 594 764 l 628 764 l 490 117 q 489 80 488 101 q 517 58 490 58 q 565 82 544 58 q 615 147 585 106 l 653 197 l 676 181 l 643 135 q 560 30 599 74 q 468 -14 521 -14 q 423 -1 444 -14 q 394 45 401 13 q 406 135 388 78 l 497 426 l 476 426 l 451 351 q 403 224 431 289 q 340 106 375 160 q 263 19 304 51 q 174 -14 222 -14 m 201 42 q 270 75 236 42 q 335 164 304 108 q 394 287 367 219 q 445 424 422 354 q 485 557 468 494 q 510 663 501 619 q 473 699 500 681 q 407 718 446 718 q 303 667 347 718 q 236 529 260 617 l 144 200 q 142 88 126 135 q 201 42 158 42 m 421 806 l 496 1056 l 593 1056 l 438 806 l 421 806 z "},"ă":{"ha":694,"x_min":44,"x_max":676,"o":"m 174 -14 q 81 38 118 -14 q 50 200 44 90 q 72 334 53 260 q 124 483 90 408 q 205 622 158 558 q 309 725 251 686 q 435 764 367 764 q 494 755 469 764 q 528 736 518 746 l 594 764 l 628 764 l 490 117 q 489 80 488 101 q 517 58 490 58 q 565 82 544 58 q 615 147 585 106 l 653 197 l 676 181 l 643 135 q 560 30 599 74 q 468 -14 521 -14 q 423 -1 444 -14 q 394 45 401 13 q 406 135 388 78 l 497 426 l 476 426 l 451 351 q 403 224 431 289 q 340 106 375 160 q 263 19 304 51 q 174 -14 222 -14 m 201 42 q 270 75 236 42 q 335 164 304 108 q 394 287 367 219 q 445 424 422 354 q 485 557 468 494 q 510 663 501 619 q 473 699 500 681 q 407 718 446 718 q 303 667 347 718 q 236 529 260 617 l 144 200 q 142 88 126 135 q 201 42 158 42 m 433 828 q 367 863 385 828 q 356 947 350 897 q 378 1042 361 996 l 403 1042 q 390 978 392 1011 q 401 923 388 946 q 451 900 415 900 q 511 923 488 900 q 547 978 535 946 q 563 1042 560 1011 l 588 1042 q 566 947 583 996 q 516 863 549 897 q 433 828 483 828 z "},"ắ":{"ha":694,"x_min":44,"x_max":676,"o":"m 174 -14 q 81 38 118 -14 q 50 200 44 90 q 72 334 53 260 q 124 483 90 408 q 205 622 158 558 q 309 725 251 686 q 435 764 367 764 q 494 755 469 764 q 528 736 518 746 l 594 764 l 628 764 l 490 117 q 489 80 488 101 q 517 58 490 58 q 565 82 544 58 q 615 147 585 106 l 653 197 l 676 181 l 643 135 q 560 30 599 74 q 468 -14 521 -14 q 423 -1 444 -14 q 394 45 401 13 q 406 135 388 78 l 497 426 l 476 426 l 451 351 q 403 224 431 289 q 340 106 375 160 q 263 19 304 51 q 174 -14 222 -14 m 201 42 q 270 75 236 42 q 335 164 304 108 q 394 287 367 219 q 445 424 422 354 q 485 557 468 494 q 510 663 501 619 q 473 699 500 681 q 407 718 446 718 q 303 667 347 718 q 236 529 260 617 l 144 200 q 142 88 126 135 q 201 42 158 42 m 460 990 l 535 1240 l 632 1240 l 476 990 l 460 990 m 433 828 q 367 863 385 828 q 356 947 350 897 q 378 1042 361 996 l 403 1042 q 390 978 392 1011 q 401 923 388 946 q 451 900 415 900 q 511 923 488 900 q 547 978 535 946 q 563 1042 560 1011 l 588 1042 q 566 947 583 996 q 516 863 549 897 q 433 828 483 828 z "},"ặ":{"ha":694,"x_min":44,"x_max":676,"o":"m 174 -14 q 81 38 118 -14 q 50 200 44 90 q 72 334 53 260 q 124 483 90 408 q 205 622 158 558 q 309 725 251 686 q 435 764 367 764 q 494 755 469 764 q 528 736 518 746 l 594 764 l 628 764 l 490 117 q 489 80 488 101 q 517 58 490 58 q 565 82 544 58 q 615 147 585 106 l 653 197 l 676 181 l 643 135 q 560 30 599 74 q 468 -14 521 -14 q 423 -1 444 -14 q 394 45 401 13 q 406 135 388 78 l 497 426 l 476 426 l 451 351 q 403 224 431 289 q 340 106 375 160 q 263 19 304 51 q 174 -14 222 -14 m 201 42 q 270 75 236 42 q 335 164 304 108 q 394 287 367 219 q 445 424 422 354 q 485 557 468 494 q 510 663 501 619 q 473 699 500 681 q 407 718 446 718 q 303 667 347 718 q 236 529 260 617 l 144 200 q 142 88 126 135 q 201 42 158 42 m 232 -237 q 192 -222 207 -237 q 176 -183 176 -206 q 202 -126 176 -151 q 261 -100 228 -100 q 301 -115 286 -100 q 317 -154 317 -131 q 291 -212 317 -186 q 232 -237 265 -237 m 433 828 q 367 863 385 828 q 356 947 350 897 q 378 1042 361 996 l 403 1042 q 390 978 392 1011 q 401 923 388 946 q 451 900 415 900 q 511 923 488 900 q 547 978 535 946 q 563 1042 560 1011 l 588 1042 q 566 947 583 996 q 516 863 549 897 q 433 828 483 828 z "},"ằ":{"ha":694,"x_min":44,"x_max":676,"o":"m 174 -14 q 81 38 118 -14 q 50 200 44 90 q 72 334 53 260 q 124 483 90 408 q 205 622 158 558 q 309 725 251 686 q 435 764 367 764 q 494 755 469 764 q 528 736 518 746 l 594 764 l 628 764 l 490 117 q 489 80 488 101 q 517 58 490 58 q 565 82 544 58 q 615 147 585 106 l 653 197 l 676 181 l 643 135 q 560 30 599 74 q 468 -14 521 -14 q 423 -1 444 -14 q 394 45 401 13 q 406 135 388 78 l 497 426 l 476 426 l 451 351 q 403 224 431 289 q 340 106 375 160 q 263 19 304 51 q 174 -14 222 -14 m 201 42 q 270 75 236 42 q 335 164 304 108 q 394 287 367 219 q 445 424 422 354 q 485 557 468 494 q 510 663 501 619 q 473 699 500 681 q 407 718 446 718 q 303 667 347 718 q 236 529 260 617 l 144 200 q 142 88 126 135 q 201 42 158 42 m 464 992 l 417 1242 l 500 1242 l 481 992 l 464 992 m 433 828 q 367 863 385 828 q 356 947 350 897 q 378 1042 361 996 l 403 1042 q 390 978 392 1011 q 401 923 388 946 q 451 900 415 900 q 511 923 488 900 q 547 978 535 946 q 563 1042 560 1011 l 588 1042 q 566 947 583 996 q 516 863 549 897 q 433 828 483 828 z "},"ẳ":{"ha":694,"x_min":44,"x_max":676,"o":"m 174 -14 q 81 38 118 -14 q 50 200 44 90 q 72 334 53 260 q 124 483 90 408 q 205 622 158 558 q 309 725 251 686 q 435 764 367 764 q 494 755 469 764 q 528 736 518 746 l 594 764 l 628 764 l 490 117 q 489 80 488 101 q 517 58 490 58 q 565 82 544 58 q 615 147 585 106 l 653 197 l 676 181 l 643 135 q 560 30 599 74 q 468 -14 521 -14 q 423 -1 444 -14 q 394 45 401 13 q 406 135 388 78 l 497 426 l 476 426 l 451 351 q 403 224 431 289 q 340 106 375 160 q 263 19 304 51 q 174 -14 222 -14 m 201 42 q 270 75 236 42 q 335 164 304 108 q 394 287 367 219 q 445 424 422 354 q 485 557 468 494 q 510 663 501 619 q 473 699 500 681 q 407 718 446 718 q 303 667 347 718 q 236 529 260 617 l 144 200 q 142 88 126 135 q 201 42 158 42 m 458 1004 l 460 1013 q 488 1078 467 1056 q 526 1117 508 1100 q 544 1160 544 1133 q 533 1189 544 1178 q 501 1200 522 1200 q 469 1192 483 1200 q 447 1176 454 1183 l 458 1169 q 473 1156 467 1164 q 479 1138 479 1149 q 470 1115 479 1124 q 446 1106 461 1106 q 419 1116 431 1106 q 408 1146 408 1126 q 439 1206 408 1181 q 517 1232 469 1232 q 579 1213 557 1232 q 601 1163 601 1193 q 585 1117 601 1135 q 549 1086 569 1100 q 510 1056 528 1072 q 488 1013 492 1039 l 486 1004 l 458 1004 m 433 828 q 367 863 385 828 q 356 947 350 897 q 378 1042 361 996 l 403 1042 q 390 978 392 1011 q 401 923 388 946 q 451 900 415 900 q 511 923 488 900 q 547 978 535 946 q 563 1042 560 1011 l 588 1042 q 566 947 583 996 q 516 863 549 897 q 433 828 483 828 z "},"ẵ":{"ha":694,"x_min":44,"x_max":676,"o":"m 174 -14 q 81 38 118 -14 q 50 200 44 90 q 72 334 53 260 q 124 483 90 408 q 205 622 158 558 q 309 725 251 686 q 435 764 367 764 q 494 755 469 764 q 528 736 518 746 l 594 764 l 628 764 l 490 117 q 489 80 488 101 q 517 58 490 58 q 565 82 544 58 q 615 147 585 106 l 653 197 l 676 181 l 643 135 q 560 30 599 74 q 468 -14 521 -14 q 423 -1 444 -14 q 394 45 401 13 q 406 135 388 78 l 497 426 l 476 426 l 451 351 q 403 224 431 289 q 340 106 375 160 q 263 19 304 51 q 174 -14 222 -14 m 201 42 q 270 75 236 42 q 335 164 304 108 q 394 287 367 219 q 445 424 422 354 q 485 557 468 494 q 510 663 501 619 q 473 699 500 681 q 407 718 446 718 q 303 667 347 718 q 236 529 260 617 l 144 200 q 142 88 126 135 q 201 42 158 42 m 433 828 q 367 863 385 828 q 356 947 350 897 q 378 1042 361 996 l 403 1042 q 390 978 392 1011 q 401 923 388 946 q 451 900 415 900 q 511 922 488 900 q 547 976 535 944 q 563 1036 560 1008 q 538 1031 550 1031 q 493 1047 511 1031 q 460 1081 475 1064 q 424 1097 444 1097 q 392 1081 404 1097 q 374 1035 381 1064 l 356 1035 q 363 1062 357 1042 q 379 1105 368 1082 q 408 1144 390 1128 q 450 1161 425 1161 q 494 1144 476 1161 q 528 1111 513 1128 q 564 1094 544 1094 q 614 1157 600 1094 l 632 1157 q 622 1123 629 1146 q 603 1077 615 1100 q 572 1042 592 1054 l 588 1042 q 566 947 583 996 q 516 863 549 897 q 433 828 483 828 z "},"â":{"ha":694,"x_min":44,"x_max":676,"o":"m 174 -14 q 81 38 118 -14 q 50 200 44 90 q 72 334 53 260 q 124 483 90 408 q 205 622 158 558 q 309 725 251 686 q 435 764 367 764 q 494 755 469 764 q 528 736 518 746 l 594 764 l 628 764 l 490 117 q 489 80 488 101 q 517 58 490 58 q 565 82 544 58 q 615 147 585 106 l 653 197 l 676 181 l 643 135 q 560 30 599 74 q 468 -14 521 -14 q 423 -1 444 -14 q 394 45 401 13 q 406 135 388 78 l 497 426 l 476 426 l 451 351 q 403 224 431 289 q 340 106 375 160 q 263 19 304 51 q 174 -14 222 -14 m 201 42 q 270 75 236 42 q 335 164 304 108 q 394 287 367 219 q 445 424 422 354 q 485 557 468 494 q 510 663 501 619 q 473 699 500 681 q 407 718 446 718 q 303 667 347 718 q 236 529 260 617 l 144 200 q 142 88 126 135 q 201 42 158 42 m 315 806 l 456 1042 l 511 1042 l 551 806 l 535 806 l 465 953 l 332 806 l 315 806 z "},"ấ":{"ha":694,"x_min":44,"x_max":736,"o":"m 174 -14 q 81 38 118 -14 q 50 200 44 90 q 72 334 53 260 q 124 483 90 408 q 205 622 158 558 q 309 725 251 686 q 435 764 367 764 q 494 755 469 764 q 528 736 518 746 l 594 764 l 628 764 l 490 117 q 489 80 488 101 q 517 58 490 58 q 565 82 544 58 q 615 147 585 106 l 653 197 l 676 181 l 643 135 q 560 30 599 74 q 468 -14 521 -14 q 423 -1 444 -14 q 394 45 401 13 q 406 135 388 78 l 497 426 l 476 426 l 451 351 q 403 224 431 289 q 340 106 375 160 q 263 19 304 51 q 174 -14 222 -14 m 201 42 q 270 75 236 42 q 335 164 304 108 q 394 287 367 219 q 445 424 422 354 q 485 557 468 494 q 510 663 501 619 q 473 699 500 681 q 407 718 446 718 q 303 667 347 718 q 236 529 260 617 l 144 200 q 142 88 126 135 q 201 42 158 42 m 564 974 l 639 1224 l 736 1224 l 581 974 l 564 974 m 315 806 l 456 1042 l 511 1042 l 551 806 l 535 806 l 465 953 l 332 806 l 315 806 z "},"ậ":{"ha":694,"x_min":44,"x_max":676,"o":"m 174 -14 q 81 38 118 -14 q 50 200 44 90 q 72 334 53 260 q 124 483 90 408 q 205 622 158 558 q 309 725 251 686 q 435 764 367 764 q 494 755 469 764 q 528 736 518 746 l 594 764 l 628 764 l 490 117 q 489 80 488 101 q 517 58 490 58 q 565 82 544 58 q 615 147 585 106 l 653 197 l 676 181 l 643 135 q 560 30 599 74 q 468 -14 521 -14 q 423 -1 444 -14 q 394 45 401 13 q 406 135 388 78 l 497 426 l 476 426 l 451 351 q 403 224 431 289 q 340 106 375 160 q 263 19 304 51 q 174 -14 222 -14 m 201 42 q 270 75 236 42 q 335 164 304 108 q 394 287 367 219 q 445 424 422 354 q 485 557 468 494 q 510 663 501 619 q 473 699 500 681 q 407 718 446 718 q 303 667 347 718 q 236 529 260 617 l 144 200 q 142 88 126 135 q 201 42 158 42 m 232 -237 q 192 -222 207 -237 q 176 -183 176 -206 q 202 -126 176 -151 q 261 -100 228 -100 q 301 -115 286 -100 q 317 -154 317 -131 q 291 -212 317 -186 q 232 -237 265 -237 m 315 806 l 456 1042 l 511 1042 l 551 806 l 535 806 l 465 953 l 332 806 l 315 806 z "},"ầ":{"ha":694,"x_min":44,"x_max":676,"o":"m 174 -14 q 81 38 118 -14 q 50 200 44 90 q 72 334 53 260 q 124 483 90 408 q 205 622 158 558 q 309 725 251 686 q 435 764 367 764 q 494 755 469 764 q 528 736 518 746 l 594 764 l 628 764 l 490 117 q 489 80 488 101 q 517 58 490 58 q 565 82 544 58 q 615 147 585 106 l 653 197 l 676 181 l 643 135 q 560 30 599 74 q 468 -14 521 -14 q 423 -1 444 -14 q 394 45 401 13 q 406 135 388 78 l 497 426 l 476 426 l 451 351 q 403 224 431 289 q 340 106 375 160 q 263 19 304 51 q 174 -14 222 -14 m 201 42 q 270 75 236 42 q 335 164 304 108 q 394 287 367 219 q 445 424 422 354 q 485 557 468 494 q 510 663 501 619 q 473 699 500 681 q 407 718 446 718 q 303 667 347 718 q 236 529 260 617 l 144 200 q 142 88 126 135 q 201 42 158 42 m 575 974 l 528 1224 l 611 1224 l 592 974 l 575 974 m 315 806 l 456 1042 l 511 1042 l 551 806 l 535 806 l 465 953 l 332 806 l 315 806 z "},"ẩ":{"ha":694,"x_min":44,"x_max":706,"o":"m 174 -14 q 81 38 118 -14 q 50 200 44 90 q 72 334 53 260 q 124 483 90 408 q 205 622 158 558 q 309 725 251 686 q 435 764 367 764 q 494 755 469 764 q 528 736 518 746 l 594 764 l 628 764 l 490 117 q 489 80 488 101 q 517 58 490 58 q 565 82 544 58 q 615 147 585 106 l 653 197 l 676 181 l 643 135 q 560 30 599 74 q 468 -14 521 -14 q 423 -1 444 -14 q 394 45 401 13 q 406 135 388 78 l 497 426 l 476 426 l 451 351 q 403 224 431 289 q 340 106 375 160 q 263 19 304 51 q 174 -14 222 -14 m 201 42 q 270 75 236 42 q 335 164 304 108 q 394 287 367 219 q 445 424 422 354 q 485 557 468 494 q 510 663 501 619 q 473 699 500 681 q 407 718 446 718 q 303 667 347 718 q 236 529 260 617 l 144 200 q 142 88 126 135 q 201 42 158 42 m 563 988 l 564 996 q 592 1061 571 1039 q 631 1100 613 1083 q 649 1143 649 1117 q 638 1172 649 1161 q 606 1183 626 1183 q 573 1175 588 1183 q 551 1160 558 1167 l 563 1153 q 577 1140 571 1147 q 583 1121 583 1132 q 574 1098 583 1107 q 550 1089 565 1089 q 524 1099 535 1089 q 513 1129 513 1110 q 543 1190 513 1164 q 621 1215 574 1215 q 683 1196 661 1215 q 706 1146 706 1176 q 690 1101 706 1118 q 653 1069 674 1083 q 614 1039 632 1056 q 592 996 596 1022 l 590 988 l 563 988 m 315 806 l 456 1042 l 511 1042 l 551 806 l 535 806 l 465 953 l 332 806 l 315 806 z "},"ẫ":{"ha":694,"x_min":44,"x_max":676,"o":"m 174 -14 q 81 38 118 -14 q 50 200 44 90 q 72 334 53 260 q 124 483 90 408 q 205 622 158 558 q 309 725 251 686 q 435 764 367 764 q 494 755 469 764 q 528 736 518 746 l 594 764 l 628 764 l 490 117 q 489 80 488 101 q 517 58 490 58 q 565 82 544 58 q 615 147 585 106 l 653 197 l 676 181 l 643 135 q 560 30 599 74 q 468 -14 521 -14 q 423 -1 444 -14 q 394 45 401 13 q 406 135 388 78 l 497 426 l 476 426 l 451 351 q 403 224 431 289 q 340 106 375 160 q 263 19 304 51 q 174 -14 222 -14 m 201 42 q 270 75 236 42 q 335 164 304 108 q 394 287 367 219 q 445 424 422 354 q 485 557 468 494 q 510 663 501 619 q 473 699 500 681 q 407 718 446 718 q 303 667 347 718 q 236 529 260 617 l 144 200 q 142 88 126 135 q 201 42 158 42 m 553 1064 q 508 1081 526 1064 q 475 1114 490 1097 q 439 1131 460 1131 q 408 1114 419 1131 q 389 1068 396 1097 l 371 1068 q 378 1095 372 1075 q 394 1138 383 1115 q 423 1178 406 1161 q 465 1194 440 1194 q 510 1178 492 1194 q 544 1144 528 1161 q 579 1128 560 1128 q 629 1190 615 1128 l 647 1190 q 634 1146 644 1176 q 604 1090 624 1115 q 553 1064 585 1064 m 315 806 l 456 1042 l 511 1042 l 551 806 l 535 806 l 465 953 l 332 806 l 315 806 z "},"ä":{"ha":694,"x_min":44,"x_max":676,"o":"m 174 -14 q 81 38 118 -14 q 50 200 44 90 q 72 334 53 260 q 124 483 90 408 q 205 622 158 558 q 309 725 251 686 q 435 764 367 764 q 494 755 469 764 q 528 736 518 746 l 594 764 l 628 764 l 490 117 q 489 80 488 101 q 517 58 490 58 q 565 82 544 58 q 615 147 585 106 l 653 197 l 676 181 l 643 135 q 560 30 599 74 q 468 -14 521 -14 q 423 -1 444 -14 q 394 45 401 13 q 406 135 388 78 l 497 426 l 476 426 l 451 351 q 403 224 431 289 q 340 106 375 160 q 263 19 304 51 q 174 -14 222 -14 m 201 42 q 270 75 236 42 q 335 164 304 108 q 394 287 367 219 q 445 424 422 354 q 485 557 468 494 q 510 663 501 619 q 473 699 500 681 q 407 718 446 718 q 303 667 347 718 q 236 529 260 617 l 144 200 q 142 88 126 135 q 201 42 158 42 m 538 840 q 497 856 513 840 q 481 894 481 871 q 507 953 481 928 q 567 979 533 979 q 608 964 592 979 q 624 925 624 949 q 597 866 624 892 q 538 840 571 840 m 342 840 q 301 856 317 840 q 285 894 285 871 q 311 953 285 928 q 371 979 338 979 q 412 964 396 979 q 428 925 428 949 q 401 866 428 892 q 342 840 375 840 z "},"ạ":{"ha":694,"x_min":44,"x_max":676,"o":"m 174 -14 q 81 38 118 -14 q 50 200 44 90 q 72 334 53 260 q 124 483 90 408 q 205 622 158 558 q 309 725 251 686 q 435 764 367 764 q 494 755 469 764 q 528 736 518 746 l 594 764 l 628 764 l 490 117 q 489 80 488 101 q 517 58 490 58 q 565 82 544 58 q 615 147 585 106 l 653 197 l 676 181 l 643 135 q 560 30 599 74 q 468 -14 521 -14 q 423 -1 444 -14 q 394 45 401 13 q 406 135 388 78 l 497 426 l 476 426 l 451 351 q 403 224 431 289 q 340 106 375 160 q 263 19 304 51 q 174 -14 222 -14 m 201 42 q 270 75 236 42 q 335 164 304 108 q 394 287 367 219 q 445 424 422 354 q 485 557 468 494 q 510 663 501 619 q 473 699 500 681 q 407 718 446 718 q 303 667 347 718 q 236 529 260 617 l 144 200 q 142 88 126 135 q 201 42 158 42 m 232 -237 q 192 -222 207 -237 q 176 -183 176 -206 q 202 -126 176 -151 q 261 -100 228 -100 q 301 -115 286 -100 q 317 -154 317 -131 q 291 -212 317 -186 q 232 -237 265 -237 z "},"à":{"ha":694,"x_min":44,"x_max":676,"o":"m 174 -14 q 81 38 118 -14 q 50 200 44 90 q 72 334 53 260 q 124 483 90 408 q 205 622 158 558 q 309 725 251 686 q 435 764 367 764 q 494 755 469 764 q 528 736 518 746 l 594 764 l 628 764 l 490 117 q 489 80 488 101 q 517 58 490 58 q 565 82 544 58 q 615 147 585 106 l 653 197 l 676 181 l 643 135 q 560 30 599 74 q 468 -14 521 -14 q 423 -1 444 -14 q 394 45 401 13 q 406 135 388 78 l 497 426 l 476 426 l 451 351 q 403 224 431 289 q 340 106 375 160 q 263 19 304 51 q 174 -14 222 -14 m 201 42 q 270 75 236 42 q 335 164 304 108 q 394 287 367 219 q 445 424 422 354 q 485 557 468 494 q 510 663 501 619 q 473 699 500 681 q 407 718 446 718 q 303 667 347 718 q 236 529 260 617 l 144 200 q 142 88 126 135 q 201 42 158 42 m 404 806 l 357 1056 l 440 1056 l 421 806 l 404 806 z "},"ả":{"ha":694,"x_min":44,"x_max":676,"o":"m 174 -14 q 81 38 118 -14 q 50 200 44 90 q 72 334 53 260 q 124 483 90 408 q 205 622 158 558 q 309 725 251 686 q 435 764 367 764 q 494 755 469 764 q 528 736 518 746 l 594 764 l 628 764 l 490 117 q 489 80 488 101 q 517 58 490 58 q 565 82 544 58 q 615 147 585 106 l 653 197 l 676 181 l 643 135 q 560 30 599 74 q 468 -14 521 -14 q 423 -1 444 -14 q 394 45 401 13 q 406 135 388 78 l 497 426 l 476 426 l 451 351 q 403 224 431 289 q 340 106 375 160 q 263 19 304 51 q 174 -14 222 -14 m 201 42 q 270 75 236 42 q 335 164 304 108 q 394 287 367 219 q 445 424 422 354 q 485 557 468 494 q 510 663 501 619 q 473 699 500 681 q 407 718 446 718 q 303 667 347 718 q 236 529 260 617 l 144 200 q 142 88 126 135 q 201 42 158 42 m 419 819 l 421 828 q 449 893 428 871 q 488 932 469 915 q 506 975 506 949 q 494 1004 506 993 q 463 1015 483 1015 q 430 1007 444 1015 q 408 992 415 999 l 419 985 q 434 972 428 979 q 440 953 440 964 q 431 930 440 939 q 407 921 422 921 q 381 931 392 921 q 369 961 369 942 q 400 1022 369 996 q 478 1047 431 1047 q 540 1028 518 1047 q 563 978 563 1008 q 547 933 563 950 q 510 901 531 915 q 471 871 489 888 q 449 828 453 854 l 447 819 l 419 819 z "},"ā":{"ha":694,"x_min":44,"x_max":676,"o":"m 174 -14 q 81 38 118 -14 q 50 200 44 90 q 72 334 53 260 q 124 483 90 408 q 205 622 158 558 q 309 725 251 686 q 435 764 367 764 q 494 755 469 764 q 528 736 518 746 l 594 764 l 628 764 l 490 117 q 489 80 488 101 q 517 58 490 58 q 565 82 544 58 q 615 147 585 106 l 653 197 l 676 181 l 643 135 q 560 30 599 74 q 468 -14 521 -14 q 423 -1 444 -14 q 394 45 401 13 q 406 135 388 78 l 497 426 l 476 426 l 451 351 q 403 224 431 289 q 340 106 375 160 q 263 19 304 51 q 174 -14 222 -14 m 201 42 q 270 75 236 42 q 335 164 304 108 q 394 287 367 219 q 445 424 422 354 q 485 557 468 494 q 510 663 501 619 q 473 699 500 681 q 407 718 446 718 q 303 667 347 718 q 236 529 260 617 l 144 200 q 142 88 126 135 q 201 42 158 42 m 267 886 l 275 929 l 643 929 l 635 886 l 267 886 z "},"ą":{"ha":694,"x_min":44,"x_max":676,"o":"m 174 -14 q 81 38 118 -14 q 50 200 44 90 q 72 334 53 260 q 124 483 90 408 q 205 622 158 558 q 309 725 251 686 q 435 764 367 764 q 494 755 469 764 q 528 736 518 746 l 594 764 l 628 764 l 490 117 q 489 80 488 101 q 517 58 490 58 q 565 82 544 58 q 615 147 585 106 l 653 197 l 676 181 l 643 135 q 560 30 599 74 q 468 -14 521 -14 q 423 -1 444 -14 q 394 45 401 13 q 406 135 388 78 l 497 426 l 476 426 l 451 351 q 403 224 431 289 q 340 106 375 160 q 263 19 304 51 q 174 -14 222 -14 m 201 42 q 270 75 236 42 q 335 164 304 108 q 394 287 367 219 q 445 424 422 354 q 485 557 468 494 q 510 663 501 619 q 473 699 500 681 q 407 718 446 718 q 303 667 347 718 q 236 529 260 617 l 144 200 q 142 88 126 135 q 201 42 158 42 m 397 -244 q 337 -225 367 -244 q 307 -153 307 -206 q 326 -80 307 -111 q 374 -28 346 -49 q 428 0 403 -8 l 476 0 q 430 -22 454 -6 q 389 -61 406 -37 q 372 -117 372 -85 q 392 -167 372 -151 q 439 -182 413 -182 q 490 -165 469 -182 q 519 -133 511 -149 l 535 -142 q 485 -210 521 -175 q 397 -244 450 -244 z "},"å":{"ha":694,"x_min":44,"x_max":676,"o":"m 174 -14 q 81 38 118 -14 q 50 200 44 90 q 72 334 53 260 q 124 483 90 408 q 205 622 158 558 q 309 725 251 686 q 435 764 367 764 q 494 755 469 764 q 528 736 518 746 l 594 764 l 628 764 l 490 117 q 489 80 488 101 q 517 58 490 58 q 565 82 544 58 q 615 147 585 106 l 653 197 l 676 181 l 643 135 q 560 30 599 74 q 468 -14 521 -14 q 423 -1 444 -14 q 394 45 401 13 q 406 135 388 78 l 497 426 l 476 426 l 451 351 q 403 224 431 289 q 340 106 375 160 q 263 19 304 51 q 174 -14 222 -14 m 201 42 q 270 75 236 42 q 335 164 304 108 q 394 287 367 219 q 445 424 422 354 q 485 557 468 494 q 510 663 501 619 q 473 699 500 681 q 407 718 446 718 q 303 667 347 718 q 236 529 260 617 l 144 200 q 142 88 126 135 q 201 42 158 42 m 458 811 q 374 845 406 811 q 343 926 343 879 q 374 1008 343 975 q 458 1042 406 1042 q 542 1008 511 1042 q 574 926 574 975 q 542 845 574 879 q 458 811 511 811 m 458 849 q 514 872 494 849 q 533 926 533 894 q 514 981 533 958 q 458 1004 494 1004 q 403 981 422 1004 q 383 926 383 958 q 403 872 383 894 q 458 849 422 849 z "},"ã":{"ha":694,"x_min":44,"x_max":676,"o":"m 174 -14 q 81 38 118 -14 q 50 200 44 90 q 72 334 53 260 q 124 483 90 408 q 205 622 158 558 q 309 725 251 686 q 435 764 367 764 q 494 755 469 764 q 528 736 518 746 l 594 764 l 628 764 l 490 117 q 489 80 488 101 q 517 58 490 58 q 565 82 544 58 q 615 147 585 106 l 653 197 l 676 181 l 643 135 q 560 30 599 74 q 468 -14 521 -14 q 423 -1 444 -14 q 394 45 401 13 q 406 135 388 78 l 497 426 l 476 426 l 451 351 q 403 224 431 289 q 340 106 375 160 q 263 19 304 51 q 174 -14 222 -14 m 201 42 q 270 75 236 42 q 335 164 304 108 q 394 287 367 219 q 445 424 422 354 q 485 557 468 494 q 510 663 501 619 q 473 699 500 681 q 407 718 446 718 q 303 667 347 718 q 236 529 260 617 l 144 200 q 142 88 126 135 q 201 42 158 42 m 499 846 q 454 863 472 846 q 421 896 436 879 q 385 913 406 913 q 353 896 365 913 q 335 850 342 879 l 317 850 q 324 877 318 857 q 340 920 329 897 q 369 960 351 943 q 411 976 386 976 q 456 960 438 976 q 490 926 474 943 q 525 910 506 910 q 575 972 561 910 l 593 972 q 580 928 590 958 q 550 872 569 897 q 499 846 531 846 z "},"æ":{"ha":694,"x_min":-14,"x_max":739,"o":"m 67 -14 q 6 28 25 -14 q -14 140 -14 71 q 2 292 -14 210 q 49 458 18 375 q 122 610 79 540 q 215 722 164 679 q 322 764 265 764 q 370 756 347 764 q 406 740 393 747 l 444 764 l 472 764 l 458 696 q 534 746 493 728 q 617 764 575 764 q 704 734 669 764 q 739 651 739 704 q 706 557 739 600 q 622 483 674 514 q 513 434 571 451 q 404 417 454 417 l 400 417 l 376 306 q 365 232 368 267 q 361 175 361 197 q 388 73 361 111 q 458 35 414 35 q 524 62 497 35 q 567 131 550 89 q 599 219 585 172 l 607 247 l 642 236 l 638 219 q 616 146 629 186 q 581 69 603 106 q 526 10 560 33 q 444 -14 493 -14 q 349 22 386 -14 q 300 117 313 57 q 299 254 288 178 l 281 254 q 218 124 253 186 q 145 24 183 63 q 67 -14 107 -14 m 585 721 q 476 647 519 721 q 406 447 433 574 q 521 476 465 447 q 612 553 576 506 q 647 653 647 600 q 633 701 647 682 q 585 721 619 721 m 85 42 q 147 77 115 42 q 210 171 179 113 q 268 301 240 229 q 318 447 296 374 q 356 585 340 521 l 376 675 q 344 700 367 688 q 292 713 321 713 q 229 693 254 713 q 188 644 204 674 q 163 583 172 614 q 150 529 154 551 l 60 108 q 58 60 54 78 q 85 42 63 42 z "},"b":{"ha":694,"x_min":113,"x_max":672,"o":"m 290 -14 q 176 13 222 -14 q 113 67 131 40 l 301 956 l 132 956 l 139 989 l 313 1007 l 381 1042 l 414 1042 l 353 750 l 249 461 l 269 461 q 306 555 285 503 q 357 655 326 607 q 430 733 388 703 q 528 764 472 764 q 637 706 601 764 q 672 549 672 649 q 656 405 672 482 q 609 254 640 328 q 532 119 578 181 q 426 22 486 58 q 290 -14 365 -14 m 313 31 q 436 86 382 31 q 514 253 490 142 l 579 556 q 571 674 596 633 q 501 714 546 714 q 407 667 451 714 q 327 539 363 621 q 268 347 292 457 l 226 156 q 233 67 215 104 q 313 31 251 31 z "},"c":{"ha":694,"x_min":101,"x_max":674,"o":"m 306 -14 q 155 60 208 -14 q 101 257 101 135 q 131 440 101 350 q 213 603 160 529 q 337 720 265 676 q 493 764 408 764 q 583 749 542 764 q 649 709 624 735 q 674 650 674 683 q 656 603 674 622 q 606 583 638 583 q 524 678 536 583 l 518 717 q 504 719 514 718 q 482 721 494 721 q 330 647 397 721 q 235 444 263 572 l 206 306 q 214 105 179 175 q 326 35 249 35 q 413 57 376 35 q 476 112 450 79 q 517 176 501 144 q 539 226 532 208 l 560 283 l 594 272 l 578 226 q 463 47 535 107 q 306 -14 392 -14 z "},"ć":{"ha":694,"x_min":101,"x_max":674,"o":"m 306 -14 q 155 60 208 -14 q 101 257 101 135 q 131 440 101 350 q 213 603 160 529 q 337 720 265 676 q 493 764 408 764 q 583 749 542 764 q 649 709 624 735 q 674 650 674 683 q 656 603 674 622 q 606 583 638 583 q 524 678 536 583 l 518 717 q 504 719 514 718 q 482 721 494 721 q 330 647 397 721 q 235 444 263 572 l 206 306 q 214 105 179 175 q 326 35 249 35 q 413 57 376 35 q 476 112 450 79 q 517 176 501 144 q 539 226 532 208 l 560 283 l 594 272 l 578 226 q 463 47 535 107 q 306 -14 392 -14 m 482 806 l 557 1056 l 654 1056 l 499 806 l 482 806 z "},"č":{"ha":694,"x_min":101,"x_max":674,"o":"m 306 -14 q 155 60 208 -14 q 101 257 101 135 q 131 440 101 350 q 213 603 160 529 q 337 720 265 676 q 493 764 408 764 q 583 749 542 764 q 649 709 624 735 q 674 650 674 683 q 656 603 674 622 q 606 583 638 583 q 524 678 536 583 l 518 717 q 504 719 514 718 q 482 721 494 721 q 330 647 397 721 q 235 444 263 572 l 206 306 q 214 105 179 175 q 326 35 249 35 q 413 57 376 35 q 476 112 450 79 q 517 176 501 144 q 539 226 532 208 l 560 283 l 594 272 l 578 226 q 463 47 535 107 q 306 -14 392 -14 m 467 806 l 426 1042 l 443 1042 l 513 894 l 646 1042 l 663 1042 l 522 806 l 467 806 z "},"ç":{"ha":694,"x_min":101,"x_max":674,"o":"m 306 -14 q 155 60 208 -14 q 101 257 101 135 q 131 440 101 350 q 213 603 160 529 q 337 720 265 676 q 493 764 408 764 q 583 749 542 764 q 649 709 624 735 q 674 650 674 683 q 656 603 674 622 q 606 583 638 583 q 524 678 536 583 l 518 717 q 504 719 514 718 q 482 721 494 721 q 330 647 397 721 q 235 444 263 572 l 206 306 q 214 105 179 175 q 326 35 249 35 q 413 57 376 35 q 476 112 450 79 q 517 176 501 144 q 539 226 532 208 l 560 283 l 594 272 l 578 226 q 463 47 535 107 q 306 -14 392 -14 m 297 -285 q 190 -262 233 -285 q 147 -204 147 -240 q 159 -169 147 -186 q 197 -153 171 -153 q 240 -176 231 -153 q 250 -218 249 -200 l 253 -251 q 272 -255 260 -253 q 297 -257 283 -257 q 363 -233 342 -257 q 385 -182 385 -210 q 355 -126 385 -146 q 281 -106 325 -106 q 253 -108 268 -106 q 225 -115 239 -110 l 214 -108 l 281 0 l 326 0 l 288 -58 q 381 -69 347 -53 q 430 -112 415 -86 q 444 -167 444 -139 q 432 -219 444 -192 q 388 -265 419 -246 q 297 -285 357 -285 z "},"ċ":{"ha":694,"x_min":101,"x_max":674,"o":"m 306 -14 q 155 60 208 -14 q 101 257 101 135 q 131 440 101 350 q 213 603 160 529 q 337 720 265 676 q 493 764 408 764 q 583 749 542 764 q 649 709 624 735 q 674 650 674 683 q 656 603 674 622 q 606 583 638 583 q 524 678 536 583 l 518 717 q 504 719 514 718 q 482 721 494 721 q 330 647 397 721 q 235 444 263 572 l 206 306 q 214 105 179 175 q 326 35 249 35 q 413 57 376 35 q 476 112 450 79 q 517 176 501 144 q 539 226 532 208 l 560 283 l 594 272 l 578 226 q 463 47 535 107 q 306 -14 392 -14 m 508 875 q 463 892 481 875 q 446 935 446 908 q 475 999 446 971 q 540 1028 504 1028 q 585 1011 568 1028 q 603 968 603 994 q 574 903 603 932 q 508 875 544 875 z "},"d":{"ha":694,"x_min":19,"x_max":661,"o":"m 153 -14 q 58 42 97 -14 q 25 200 19 97 q 47 334 28 260 q 98 483 65 408 q 177 622 131 558 q 282 725 224 686 q 408 764 340 764 q 467 755 443 764 q 501 736 492 746 l 549 956 l 379 956 l 386 989 l 560 1007 l 628 1042 l 661 1042 l 464 117 q 463 80 461 101 q 490 58 464 58 q 538 82 518 58 q 589 147 558 106 l 626 197 l 650 179 l 617 135 q 533 31 572 75 q 442 -14 493 -14 q 397 -1 418 -14 q 368 45 375 13 q 379 135 361 78 l 471 426 l 450 426 l 425 351 q 376 224 404 289 q 314 106 349 160 q 239 19 279 51 q 153 -14 199 -14 m 175 42 q 244 75 210 42 q 309 164 278 108 q 368 287 340 219 q 419 424 396 354 q 458 557 442 494 q 483 663 475 619 q 451 699 476 681 q 385 718 425 718 q 277 667 321 718 q 210 529 233 617 l 121 200 q 117 88 103 133 q 175 42 132 42 z "},"ð":{"ha":694,"x_min":47,"x_max":743,"o":"m 254 -14 q 106 47 164 -14 q 47 233 47 108 q 74 399 47 317 q 148 550 100 482 q 260 660 196 618 q 401 701 325 701 q 507 669 469 701 q 558 589 544 636 q 568 497 572 542 l 579 497 l 582 510 q 588 711 607 621 q 522 868 569 801 l 303 803 l 313 849 l 494 903 q 413 970 458 943 q 319 1011 368 997 l 335 1042 q 447 1003 389 1032 q 556 921 506 974 l 743 976 l 733 931 l 585 886 q 653 757 626 832 q 679 585 679 682 q 647 368 679 475 q 556 175 614 261 q 420 38 497 89 q 254 -14 343 -14 m 264 35 q 402 87 343 35 q 482 236 461 139 l 528 451 q 509 603 549 550 q 390 657 469 657 q 257 603 315 657 q 178 451 199 550 l 132 236 q 148 87 111 139 q 264 35 185 35 z "},"ď":{"ha":694,"x_min":19,"x_max":854,"o":"m 153 -14 q 58 42 97 -14 q 25 200 19 97 q 47 334 28 260 q 98 483 65 408 q 177 622 131 558 q 282 725 224 686 q 408 764 340 764 q 467 755 443 764 q 501 736 492 746 l 549 956 l 379 956 l 386 989 l 560 1007 l 628 1042 l 661 1042 l 464 117 q 463 80 461 101 q 490 58 464 58 q 538 82 518 58 q 589 147 558 106 l 626 197 l 650 179 l 617 135 q 533 31 572 75 q 442 -14 493 -14 q 397 -1 418 -14 q 368 45 375 13 q 379 135 361 78 l 471 426 l 450 426 l 425 351 q 376 224 404 289 q 314 106 349 160 q 239 19 279 51 q 153 -14 199 -14 m 175 42 q 244 75 210 42 q 309 164 278 108 q 368 287 340 219 q 419 424 396 354 q 458 557 442 494 q 483 663 475 619 q 451 699 476 681 q 385 718 425 718 q 277 667 321 718 q 210 529 233 617 l 121 200 q 117 88 103 133 q 175 42 132 42 z "},"đ":{"ha":694,"x_min":24,"x_max":775,"o":"m 324 829 l 335 872 l 531 872 l 549 956 l 549 956 l 463 956 l 469 989 l 560 1007 l 628 1042 l 661 1042 l 625 872 l 775 872 l 764 829 l 615 829 l 464 117 q 463 80 461 101 q 490 58 464 58 q 538 82 518 58 q 589 147 558 106 l 626 197 l 650 179 l 617 135 q 533 31 572 75 q 442 -14 494 -14 q 397 -1 418 -14 q 369 45 376 13 q 379 135 363 78 l 468 426 l 450 426 l 425 351 q 376 224 404 289 q 314 106 349 160 q 238 19 279 51 q 151 -14 197 -14 q 60 38 96 -14 q 24 200 24 90 q 42 356 24 276 q 95 508 61 435 q 177 638 129 581 q 283 730 225 696 q 408 764 342 764 q 467 755 443 764 q 501 736 492 746 l 521 829 l 324 829 m 118 200 q 118 88 104 133 q 175 42 132 42 q 244 75 210 42 q 309 164 278 108 q 368 287 340 219 q 419 424 396 354 q 458 557 442 494 q 483 663 475 619 q 446 699 474 681 q 374 718 418 718 q 258 668 306 718 q 190 529 210 618 l 118 200 z "},"e":{"ha":694,"x_min":93,"x_max":651,"o":"m 301 -14 q 149 60 206 -14 q 93 261 93 135 q 122 440 93 351 q 203 603 151 529 q 326 720 256 676 q 478 764 396 764 q 603 723 556 764 q 651 610 651 682 q 609 494 651 540 q 499 422 567 449 q 356 387 432 396 q 214 382 281 378 l 197 306 q 204 105 171 175 q 318 35 238 35 q 403 57 367 35 q 466 112 440 79 q 508 176 492 144 q 531 226 524 208 l 551 283 l 586 272 l 569 226 q 534 149 557 190 q 478 70 511 107 q 402 10 446 33 q 301 -14 358 -14 m 226 444 l 219 413 q 382 426 304 407 q 510 490 460 444 q 560 607 560 535 q 530 690 560 660 q 449 721 500 721 q 310 647 367 721 q 226 444 254 572 z "},"é":{"ha":694,"x_min":93,"x_max":651,"o":"m 301 -14 q 149 60 206 -14 q 93 261 93 135 q 122 440 93 351 q 203 603 151 529 q 326 720 256 676 q 478 764 396 764 q 603 723 556 764 q 651 610 651 682 q 609 494 651 540 q 499 422 567 449 q 356 387 432 396 q 214 382 281 378 l 197 306 q 204 105 171 175 q 318 35 238 35 q 403 57 367 35 q 466 112 440 79 q 508 176 492 144 q 531 226 524 208 l 551 283 l 586 272 l 569 226 q 534 149 557 190 q 478 70 511 107 q 402 10 446 33 q 301 -14 358 -14 m 226 444 l 219 413 q 382 426 304 407 q 510 490 460 444 q 560 607 560 535 q 530 690 560 660 q 449 721 500 721 q 310 647 367 721 q 226 444 254 572 m 463 806 l 538 1056 l 635 1056 l 479 806 l 463 806 z "},"ě":{"ha":694,"x_min":93,"x_max":651,"o":"m 301 -14 q 149 60 206 -14 q 93 261 93 135 q 122 440 93 351 q 203 603 151 529 q 326 720 256 676 q 478 764 396 764 q 603 723 556 764 q 651 610 651 682 q 609 494 651 540 q 499 422 567 449 q 356 387 432 396 q 214 382 281 378 l 197 306 q 204 105 171 175 q 318 35 238 35 q 403 57 367 35 q 466 112 440 79 q 508 176 492 144 q 531 226 524 208 l 551 283 l 586 272 l 569 226 q 534 149 557 190 q 478 70 511 107 q 402 10 446 33 q 301 -14 358 -14 m 226 444 l 219 413 q 382 426 304 407 q 510 490 460 444 q 560 607 560 535 q 530 690 560 660 q 449 721 500 721 q 310 647 367 721 q 226 444 254 572 m 447 806 l 407 1042 l 424 1042 l 493 894 l 626 1042 l 643 1042 l 503 806 l 447 806 z "},"ê":{"ha":694,"x_min":93,"x_max":651,"o":"m 301 -14 q 149 60 206 -14 q 93 261 93 135 q 122 440 93 351 q 203 603 151 529 q 326 720 256 676 q 478 764 396 764 q 603 723 556 764 q 651 610 651 682 q 609 494 651 540 q 499 422 567 449 q 356 387 432 396 q 214 382 281 378 l 197 306 q 204 105 171 175 q 318 35 238 35 q 403 57 367 35 q 466 112 440 79 q 508 176 492 144 q 531 226 524 208 l 551 283 l 586 272 l 569 226 q 534 149 557 190 q 478 70 511 107 q 402 10 446 33 q 301 -14 358 -14 m 226 444 l 219 413 q 382 426 304 407 q 510 490 460 444 q 560 607 560 535 q 530 690 560 660 q 449 721 500 721 q 310 647 367 721 q 226 444 254 572 m 357 806 l 497 1042 l 553 1042 l 593 806 l 576 806 l 507 953 l 374 806 l 357 806 z "},"ế":{"ha":694,"x_min":93,"x_max":778,"o":"m 301 -14 q 149 60 206 -14 q 93 261 93 135 q 122 440 93 351 q 203 603 151 529 q 326 720 256 676 q 478 764 396 764 q 603 723 556 764 q 651 610 651 682 q 609 494 651 540 q 499 422 567 449 q 356 387 432 396 q 214 382 281 378 l 197 306 q 204 105 171 175 q 318 35 238 35 q 403 57 367 35 q 466 112 440 79 q 508 176 492 144 q 531 226 524 208 l 551 283 l 586 272 l 569 226 q 534 149 557 190 q 478 70 511 107 q 402 10 446 33 q 301 -14 358 -14 m 226 444 l 219 413 q 382 426 304 407 q 510 490 460 444 q 560 607 560 535 q 530 690 560 660 q 449 721 500 721 q 310 647 367 721 q 226 444 254 572 m 606 974 l 681 1224 l 778 1224 l 622 974 l 606 974 m 357 806 l 497 1042 l 553 1042 l 593 806 l 576 806 l 507 953 l 374 806 l 357 806 z "},"ệ":{"ha":694,"x_min":93,"x_max":651,"o":"m 301 -14 q 149 60 206 -14 q 93 261 93 135 q 122 440 93 351 q 203 603 151 529 q 326 720 256 676 q 478 764 396 764 q 603 723 556 764 q 651 610 651 682 q 609 494 651 540 q 499 422 567 449 q 356 387 432 396 q 214 382 281 378 l 197 306 q 204 105 171 175 q 318 35 238 35 q 403 57 367 35 q 466 112 440 79 q 508 176 492 144 q 531 226 524 208 l 551 283 l 586 272 l 569 226 q 534 149 557 190 q 478 70 511 107 q 402 10 446 33 q 301 -14 358 -14 m 226 444 l 219 413 q 382 426 304 407 q 510 490 460 444 q 560 607 560 535 q 530 690 560 660 q 449 721 500 721 q 310 647 367 721 q 226 444 254 572 m 218 -237 q 178 -222 193 -237 q 163 -183 163 -206 q 188 -126 163 -151 q 247 -100 214 -100 q 288 -115 272 -100 q 303 -154 303 -131 q 277 -212 303 -186 q 218 -237 251 -237 m 357 806 l 497 1042 l 553 1042 l 593 806 l 576 806 l 507 953 l 374 806 l 357 806 z "},"ề":{"ha":694,"x_min":93,"x_max":653,"o":"m 301 -14 q 149 60 206 -14 q 93 261 93 135 q 122 440 93 351 q 203 603 151 529 q 326 720 256 676 q 478 764 396 764 q 603 723 556 764 q 651 610 651 682 q 609 494 651 540 q 499 422 567 449 q 356 387 432 396 q 214 382 281 378 l 197 306 q 204 105 171 175 q 318 35 238 35 q 403 57 367 35 q 466 112 440 79 q 508 176 492 144 q 531 226 524 208 l 551 283 l 586 272 l 569 226 q 534 149 557 190 q 478 70 511 107 q 402 10 446 33 q 301 -14 358 -14 m 226 444 l 219 413 q 382 426 304 407 q 510 490 460 444 q 560 607 560 535 q 530 690 560 660 q 449 721 500 721 q 310 647 367 721 q 226 444 254 572 m 617 974 l 569 1224 l 653 1224 l 633 974 l 617 974 m 357 806 l 497 1042 l 553 1042 l 593 806 l 576 806 l 507 953 l 374 806 l 357 806 z "},"ể":{"ha":694,"x_min":93,"x_max":747,"o":"m 301 -14 q 149 60 206 -14 q 93 261 93 135 q 122 440 93 351 q 203 603 151 529 q 326 720 256 676 q 478 764 396 764 q 603 723 556 764 q 651 610 651 682 q 609 494 651 540 q 499 422 567 449 q 356 387 432 396 q 214 382 281 378 l 197 306 q 204 105 171 175 q 318 35 238 35 q 403 57 367 35 q 466 112 440 79 q 508 176 492 144 q 531 226 524 208 l 551 283 l 586 272 l 569 226 q 534 149 557 190 q 478 70 511 107 q 402 10 446 33 q 301 -14 358 -14 m 226 444 l 219 413 q 382 426 304 407 q 510 490 460 444 q 560 607 560 535 q 530 690 560 660 q 449 721 500 721 q 310 647 367 721 q 226 444 254 572 m 604 988 l 606 996 q 633 1061 613 1039 q 672 1100 654 1083 q 690 1143 690 1117 q 679 1172 690 1161 q 647 1183 668 1183 q 615 1175 629 1183 q 593 1160 600 1167 l 604 1153 q 619 1140 613 1147 q 625 1121 625 1132 q 616 1098 625 1107 q 592 1089 607 1089 q 565 1099 576 1089 q 554 1129 554 1110 q 585 1190 554 1164 q 663 1215 615 1215 q 725 1196 703 1215 q 747 1146 747 1176 q 731 1101 747 1118 q 694 1069 715 1083 q 656 1039 674 1056 q 633 996 638 1022 l 632 988 l 604 988 m 357 806 l 497 1042 l 553 1042 l 593 806 l 576 806 l 507 953 l 374 806 l 357 806 z "},"ễ":{"ha":694,"x_min":93,"x_max":689,"o":"m 301 -14 q 149 60 206 -14 q 93 261 93 135 q 122 440 93 351 q 203 603 151 529 q 326 720 256 676 q 478 764 396 764 q 603 723 556 764 q 651 610 651 682 q 609 494 651 540 q 499 422 567 449 q 356 387 432 396 q 214 382 281 378 l 197 306 q 204 105 171 175 q 318 35 238 35 q 403 57 367 35 q 466 112 440 79 q 508 176 492 144 q 531 226 524 208 l 551 283 l 586 272 l 569 226 q 534 149 557 190 q 478 70 511 107 q 402 10 446 33 q 301 -14 358 -14 m 226 444 l 219 413 q 382 426 304 407 q 510 490 460 444 q 560 607 560 535 q 530 690 560 660 q 449 721 500 721 q 310 647 367 721 q 226 444 254 572 m 594 1064 q 550 1081 568 1064 q 517 1114 532 1097 q 481 1131 501 1131 q 449 1114 461 1131 q 431 1068 438 1097 l 413 1068 q 419 1095 414 1075 q 436 1138 425 1115 q 465 1178 447 1161 q 507 1194 482 1194 q 551 1178 533 1194 q 585 1144 569 1161 q 621 1128 601 1128 q 671 1190 657 1128 l 689 1190 q 676 1146 686 1176 q 646 1090 665 1115 q 594 1064 626 1064 m 357 806 l 497 1042 l 553 1042 l 593 806 l 576 806 l 507 953 l 374 806 l 357 806 z "},"ë":{"ha":694,"x_min":93,"x_max":665,"o":"m 301 -14 q 149 60 206 -14 q 93 261 93 135 q 122 440 93 351 q 203 603 151 529 q 326 720 256 676 q 478 764 396 764 q 603 723 556 764 q 651 610 651 682 q 609 494 651 540 q 499 422 567 449 q 356 387 432 396 q 214 382 281 378 l 197 306 q 204 105 171 175 q 318 35 238 35 q 403 57 367 35 q 466 112 440 79 q 508 176 492 144 q 531 226 524 208 l 551 283 l 586 272 l 569 226 q 534 149 557 190 q 478 70 511 107 q 402 10 446 33 q 301 -14 358 -14 m 226 444 l 219 413 q 382 426 304 407 q 510 490 460 444 q 560 607 560 535 q 530 690 560 660 q 449 721 500 721 q 310 647 367 721 q 226 444 254 572 m 579 840 q 538 856 554 840 q 522 894 522 871 q 549 953 522 928 q 608 979 575 979 q 649 964 633 979 q 665 925 665 949 q 639 866 665 892 q 579 840 613 840 m 383 840 q 342 856 358 840 q 326 894 326 871 q 353 953 326 928 q 413 979 379 979 q 453 964 438 979 q 469 925 469 949 q 443 866 469 892 q 383 840 417 840 z "},"ė":{"ha":694,"x_min":93,"x_max":651,"o":"m 301 -14 q 149 60 206 -14 q 93 261 93 135 q 122 440 93 351 q 203 603 151 529 q 326 720 256 676 q 478 764 396 764 q 603 723 556 764 q 651 610 651 682 q 609 494 651 540 q 499 422 567 449 q 356 387 432 396 q 214 382 281 378 l 197 306 q 204 105 171 175 q 318 35 238 35 q 403 57 367 35 q 466 112 440 79 q 508 176 492 144 q 531 226 524 208 l 551 283 l 586 272 l 569 226 q 534 149 557 190 q 478 70 511 107 q 402 10 446 33 q 301 -14 358 -14 m 226 444 l 219 413 q 382 426 304 407 q 510 490 460 444 q 560 607 560 535 q 530 690 560 660 q 449 721 500 721 q 310 647 367 721 q 226 444 254 572 m 489 875 q 444 892 461 875 q 426 935 426 908 q 456 999 426 971 q 521 1028 485 1028 q 566 1011 549 1028 q 583 968 583 994 q 554 903 583 932 q 489 875 525 875 z "},"ẹ":{"ha":694,"x_min":93,"x_max":651,"o":"m 301 -14 q 149 60 206 -14 q 93 261 93 135 q 122 440 93 351 q 203 603 151 529 q 326 720 256 676 q 478 764 396 764 q 603 723 556 764 q 651 610 651 682 q 609 494 651 540 q 499 422 567 449 q 356 387 432 396 q 214 382 281 378 l 197 306 q 204 105 171 175 q 318 35 238 35 q 403 57 367 35 q 466 112 440 79 q 508 176 492 144 q 531 226 524 208 l 551 283 l 586 272 l 569 226 q 534 149 557 190 q 478 70 511 107 q 402 10 446 33 q 301 -14 358 -14 m 226 444 l 219 413 q 382 426 304 407 q 510 490 460 444 q 560 607 560 535 q 530 690 560 660 q 449 721 500 721 q 310 647 367 721 q 226 444 254 572 m 218 -237 q 178 -222 193 -237 q 163 -183 163 -206 q 188 -126 163 -151 q 247 -100 214 -100 q 288 -115 272 -100 q 303 -154 303 -131 q 277 -212 303 -186 q 218 -237 251 -237 z "},"è":{"ha":694,"x_min":93,"x_max":651,"o":"m 301 -14 q 149 60 206 -14 q 93 261 93 135 q 122 440 93 351 q 203 603 151 529 q 326 720 256 676 q 478 764 396 764 q 603 723 556 764 q 651 610 651 682 q 609 494 651 540 q 499 422 567 449 q 356 387 432 396 q 214 382 281 378 l 197 306 q 204 105 171 175 q 318 35 238 35 q 403 57 367 35 q 466 112 440 79 q 508 176 492 144 q 531 226 524 208 l 551 283 l 586 272 l 569 226 q 534 149 557 190 q 478 70 511 107 q 402 10 446 33 q 301 -14 358 -14 m 226 444 l 219 413 q 382 426 304 407 q 510 490 460 444 q 560 607 560 535 q 530 690 560 660 q 449 721 500 721 q 310 647 367 721 q 226 444 254 572 m 446 806 l 399 1056 l 482 1056 l 463 806 l 446 806 z "},"ẻ":{"ha":694,"x_min":93,"x_max":651,"o":"m 301 -14 q 149 60 206 -14 q 93 261 93 135 q 122 440 93 351 q 203 603 151 529 q 326 720 256 676 q 478 764 396 764 q 603 723 556 764 q 651 610 651 682 q 609 494 651 540 q 499 422 567 449 q 356 387 432 396 q 214 382 281 378 l 197 306 q 204 105 171 175 q 318 35 238 35 q 403 57 367 35 q 466 112 440 79 q 508 176 492 144 q 531 226 524 208 l 551 283 l 586 272 l 569 226 q 534 149 557 190 q 478 70 511 107 q 402 10 446 33 q 301 -14 358 -14 m 226 444 l 219 413 q 382 426 304 407 q 510 490 460 444 q 560 607 560 535 q 530 690 560 660 q 449 721 500 721 q 310 647 367 721 q 226 444 254 572 m 461 819 l 463 828 q 490 893 469 871 q 529 932 511 915 q 547 975 547 949 q 536 1004 547 993 q 504 1015 525 1015 q 472 1007 486 1015 q 450 992 457 999 l 461 985 q 476 972 469 979 q 482 953 482 964 q 473 930 482 939 q 449 921 464 921 q 422 931 433 921 q 411 961 411 942 q 442 1022 411 996 q 519 1047 472 1047 q 582 1028 560 1047 q 604 978 604 1008 q 588 933 604 950 q 551 901 572 915 q 513 871 531 888 q 490 828 494 854 l 489 819 l 461 819 z "},"ē":{"ha":694,"x_min":93,"x_max":685,"o":"m 301 -14 q 149 60 206 -14 q 93 261 93 135 q 122 440 93 351 q 203 603 151 529 q 326 720 256 676 q 478 764 396 764 q 603 723 556 764 q 651 610 651 682 q 609 494 651 540 q 499 422 567 449 q 356 387 432 396 q 214 382 281 378 l 197 306 q 204 105 171 175 q 318 35 238 35 q 403 57 367 35 q 466 112 440 79 q 508 176 492 144 q 531 226 524 208 l 551 283 l 586 272 l 569 226 q 534 149 557 190 q 478 70 511 107 q 402 10 446 33 q 301 -14 358 -14 m 226 444 l 219 413 q 382 426 304 407 q 510 490 460 444 q 560 607 560 535 q 530 690 560 660 q 449 721 500 721 q 310 647 367 721 q 226 444 254 572 m 308 886 l 317 929 l 685 929 l 676 886 l 308 886 z "},"ę":{"ha":694,"x_min":93,"x_max":651,"o":"m 301 -14 q 149 60 206 -14 q 93 261 93 135 q 122 440 93 351 q 203 603 151 529 q 326 720 256 676 q 478 764 396 764 q 603 723 556 764 q 651 610 651 682 q 609 494 651 540 q 499 422 567 449 q 356 387 432 396 q 214 382 281 378 l 197 306 q 204 105 171 175 q 318 35 238 35 q 403 57 367 35 q 466 112 440 79 q 508 176 492 144 q 531 226 524 208 l 551 283 l 586 272 l 569 226 q 534 149 557 190 q 478 70 511 107 q 402 10 446 33 q 301 -14 358 -14 m 226 444 l 219 413 q 382 426 304 407 q 510 490 460 444 q 560 607 560 535 q 530 690 560 660 q 449 721 500 721 q 310 647 367 721 q 226 444 254 572 m 303 -244 q 242 -225 272 -244 q 213 -153 213 -206 q 232 -80 213 -111 q 280 -28 251 -49 q 333 0 308 -8 l 382 0 q 335 -22 360 -6 q 294 -61 311 -37 q 278 -117 278 -85 q 298 -167 278 -151 q 344 -182 318 -182 q 396 -165 375 -182 q 425 -133 417 -149 l 440 -142 q 391 -210 426 -175 q 303 -244 356 -244 z "},"ẽ":{"ha":694,"x_min":93,"x_max":651,"o":"m 301 -14 q 149 60 206 -14 q 93 261 93 135 q 122 440 93 351 q 203 603 151 529 q 326 720 256 676 q 478 764 396 764 q 603 723 556 764 q 651 610 651 682 q 609 494 651 540 q 499 422 567 449 q 356 387 432 396 q 214 382 281 378 l 197 306 q 204 105 171 175 q 318 35 238 35 q 403 57 367 35 q 466 112 440 79 q 508 176 492 144 q 531 226 524 208 l 551 283 l 586 272 l 569 226 q 534 149 557 190 q 478 70 511 107 q 402 10 446 33 q 301 -14 358 -14 m 226 444 l 219 413 q 382 426 304 407 q 510 490 460 444 q 560 607 560 535 q 530 690 560 660 q 449 721 500 721 q 310 647 367 721 q 226 444 254 572 m 540 846 q 496 863 514 846 q 463 896 478 879 q 426 913 447 913 q 395 896 407 913 q 376 850 383 879 l 358 850 q 365 877 360 857 q 382 920 371 897 q 410 960 393 943 q 453 976 428 976 q 497 960 479 976 q 531 926 515 943 q 567 910 547 910 q 617 972 603 910 l 635 972 q 622 928 632 958 q 592 872 611 897 q 540 846 572 846 z "},"f":{"ha":694,"x_min":-135,"x_max":921,"o":"m 53 -264 q -81 -232 -28 -264 q -135 -150 -135 -200 q -117 -103 -135 -122 q -69 -83 -99 -83 q -26 -99 -42 -83 q -2 -137 -11 -115 q 11 -178 7 -158 l 21 -215 q 67 -224 32 -224 q 159 -194 124 -224 q 215 -120 194 -165 q 247 -27 235 -75 q 267 60 258 21 l 403 706 l 186 706 l 193 736 l 413 751 q 471 915 432 842 q 574 1031 510 988 q 732 1074 638 1074 q 869 1041 818 1074 q 921 960 921 1008 q 903 913 921 932 q 856 893 885 893 q 813 909 829 893 q 789 947 797 925 q 775 988 781 969 l 765 1025 q 718 1033 754 1033 q 622 1004 660 1033 q 562 930 585 975 q 526 837 539 885 q 506 750 514 789 l 783 750 l 769 706 l 496 706 l 360 60 q 304 -104 340 -31 q 207 -221 268 -178 q 53 -264 146 -264 z "},"g":{"ha":694,"x_min":-53,"x_max":736,"o":"m 226 -296 q 89 -277 153 -296 q -14 -219 25 -258 q -53 -121 -53 -181 q -28 -40 -53 -75 q 34 22 -4 -4 q 117 63 72 47 q 203 83 161 78 l 203 93 q 158 129 178 107 q 139 186 139 151 q 170 262 139 232 q 232 308 201 292 l 232 315 q 158 381 182 336 q 135 482 135 426 q 174 622 135 558 q 277 725 213 686 q 418 764 342 764 q 460 760 442 764 q 496 750 479 757 l 736 750 l 728 707 l 556 707 q 586 650 576 682 q 596 582 596 618 q 557 442 596 506 q 454 339 518 378 q 313 300 390 300 q 294 301 303 300 q 276 303 285 301 q 235 281 258 296 q 213 235 213 265 q 239 188 213 201 q 290 163 265 174 l 392 122 q 447 99 415 113 q 510 65 479 86 q 560 10 540 43 q 581 -69 581 -22 q 529 -194 581 -143 q 397 -270 478 -244 q 226 -296 317 -296 m 318 339 q 432 386 389 339 q 489 503 475 433 l 501 561 q 496 681 517 636 q 410 725 475 725 q 298 678 340 725 q 240 561 256 631 l 228 503 q 233 383 213 428 q 318 339 253 339 m 258 -246 q 376 -230 322 -246 q 465 -183 431 -214 q 499 -106 499 -151 q 474 -36 499 -62 q 417 6 450 -10 q 358 31 383 21 l 251 72 l 217 63 q 130 33 174 51 q 57 -17 86 14 q 28 -97 28 -49 q 92 -207 28 -168 q 258 -246 157 -246 z "},"ğ":{"ha":694,"x_min":-53,"x_max":736,"o":"m 226 -296 q 89 -277 153 -296 q -14 -219 25 -258 q -53 -121 -53 -181 q -28 -40 -53 -75 q 34 22 -4 -4 q 117 63 72 47 q 203 83 161 78 l 203 93 q 158 129 178 107 q 139 186 139 151 q 170 262 139 232 q 232 308 201 292 l 232 315 q 158 381 182 336 q 135 482 135 426 q 174 622 135 558 q 277 725 213 686 q 418 764 342 764 q 460 760 442 764 q 496 750 479 757 l 736 750 l 728 707 l 556 707 q 586 650 576 682 q 596 582 596 618 q 557 442 596 506 q 454 339 518 378 q 313 300 390 300 q 294 301 303 300 q 276 303 285 301 q 235 281 258 296 q 213 235 213 265 q 239 188 213 201 q 290 163 265 174 l 392 122 q 447 99 415 113 q 510 65 479 86 q 560 10 540 43 q 581 -69 581 -22 q 529 -194 581 -143 q 397 -270 478 -244 q 226 -296 317 -296 m 318 339 q 432 386 389 339 q 489 503 475 433 l 501 561 q 496 681 517 636 q 410 725 475 725 q 298 678 340 725 q 240 561 256 631 l 228 503 q 233 383 213 428 q 318 339 253 339 m 258 -246 q 376 -230 322 -246 q 465 -183 431 -214 q 499 -106 499 -151 q 474 -36 499 -62 q 417 6 450 -10 q 358 31 383 21 l 251 72 l 217 63 q 130 33 174 51 q 57 -17 86 14 q 28 -97 28 -49 q 92 -207 28 -168 q 258 -246 157 -246 m 439 828 q 373 863 390 828 q 361 947 356 897 q 383 1042 367 996 l 408 1042 q 395 978 397 1011 q 407 923 393 946 q 457 900 421 900 q 517 923 493 900 q 553 978 540 946 q 568 1042 565 1011 l 593 1042 q 572 947 589 996 q 522 863 554 897 q 439 828 489 828 z "},"ģ":{"ha":694,"x_min":-53,"x_max":736,"o":"m 226 -296 q 89 -277 153 -296 q -14 -219 25 -258 q -53 -121 -53 -181 q -28 -40 -53 -75 q 34 22 -4 -4 q 117 63 72 47 q 203 83 161 78 l 203 93 q 158 129 178 107 q 139 186 139 151 q 170 262 139 232 q 232 308 201 292 l 232 315 q 158 381 182 336 q 135 482 135 426 q 174 622 135 558 q 277 725 213 686 q 418 764 342 764 q 460 760 442 764 q 496 750 479 757 l 736 750 l 728 707 l 556 707 q 586 650 576 682 q 596 582 596 618 q 557 442 596 506 q 454 339 518 378 q 313 300 390 300 q 294 301 303 300 q 276 303 285 301 q 235 281 258 296 q 213 235 213 265 q 239 188 213 201 q 290 163 265 174 l 392 122 q 447 99 415 113 q 510 65 479 86 q 560 10 540 43 q 581 -69 581 -22 q 529 -194 581 -143 q 397 -270 478 -244 q 226 -296 317 -296 m 318 339 q 432 386 389 339 q 489 503 475 433 l 501 561 q 496 681 517 636 q 410 725 475 725 q 298 678 340 725 q 240 561 256 631 l 228 503 q 233 383 213 428 q 318 339 253 339 m 258 -246 q 376 -230 322 -246 q 465 -183 431 -214 q 499 -106 499 -151 q 474 -36 499 -62 q 417 6 450 -10 q 358 31 383 21 l 251 72 l 217 63 q 130 33 174 51 q 57 -17 86 14 q 28 -97 28 -49 q 92 -207 28 -168 q 258 -246 157 -246 m 446 806 q 401 823 419 806 q 383 874 383 840 q 410 947 383 911 q 475 1010 436 982 q 549 1057 514 1039 l 560 1035 q 498 992 531 1018 q 460 943 465 965 q 505 927 486 943 q 524 883 524 911 q 500 828 524 850 q 446 806 476 806 z "},"ġ":{"ha":694,"x_min":-53,"x_max":736,"o":"m 226 -296 q 89 -277 153 -296 q -14 -219 25 -258 q -53 -121 -53 -181 q -28 -40 -53 -75 q 34 22 -4 -4 q 117 63 72 47 q 203 83 161 78 l 203 93 q 158 129 178 107 q 139 186 139 151 q 170 262 139 232 q 232 308 201 292 l 232 315 q 158 381 182 336 q 135 482 135 426 q 174 622 135 558 q 277 725 213 686 q 418 764 342 764 q 460 760 442 764 q 496 750 479 757 l 736 750 l 728 707 l 556 707 q 586 650 576 682 q 596 582 596 618 q 557 442 596 506 q 454 339 518 378 q 313 300 390 300 q 294 301 303 300 q 276 303 285 301 q 235 281 258 296 q 213 235 213 265 q 239 188 213 201 q 290 163 265 174 l 392 122 q 447 99 415 113 q 510 65 479 86 q 560 10 540 43 q 581 -69 581 -22 q 529 -194 581 -143 q 397 -270 478 -244 q 226 -296 317 -296 m 318 339 q 432 386 389 339 q 489 503 475 433 l 501 561 q 496 681 517 636 q 410 725 475 725 q 298 678 340 725 q 240 561 256 631 l 228 503 q 233 383 213 428 q 318 339 253 339 m 258 -246 q 376 -230 322 -246 q 465 -183 431 -214 q 499 -106 499 -151 q 474 -36 499 -62 q 417 6 450 -10 q 358 31 383 21 l 251 72 l 217 63 q 130 33 174 51 q 57 -17 86 14 q 28 -97 28 -49 q 92 -207 28 -168 q 258 -246 157 -246 m 453 875 q 408 892 425 875 q 390 935 390 908 q 419 999 390 971 q 485 1028 449 1028 q 530 1011 513 1028 q 547 968 547 994 q 518 903 547 932 q 453 875 489 875 z "},"h":{"ha":694,"x_min":76,"x_max":683,"o":"m 472 -14 q 408 15 433 -14 q 401 107 383 44 l 544 589 q 548 663 558 635 q 494 690 538 690 q 383 624 436 690 q 278 407 329 558 q 172 0 226 256 l 76 0 l 279 956 l 110 956 l 117 989 l 290 1007 l 358 1042 l 392 1042 l 329 750 l 229 407 l 250 407 q 296 529 269 467 q 357 645 322 592 q 437 731 392 699 q 538 764 482 764 q 633 719 601 764 q 640 597 664 675 l 497 117 q 493 96 496 110 q 496 70 490 82 q 524 58 501 58 q 572 82 551 58 q 622 147 592 106 l 660 197 l 683 181 l 650 135 q 567 31 607 75 q 472 -14 528 -14 z "},"ħ":{"ha":694,"x_min":76,"x_max":683,"o":"m 472 -14 q 408 15 433 -14 q 401 107 383 44 l 544 589 q 548 663 558 635 q 494 690 538 690 q 383 624 436 690 q 278 407 329 558 q 172 0 226 256 l 76 0 l 253 829 l 144 829 l 156 872 l 261 872 l 279 956 l 110 956 l 117 989 l 290 1007 l 358 1042 l 392 1042 l 356 872 l 596 872 l 585 829 l 346 829 l 329 750 l 229 407 l 250 407 q 296 529 269 467 q 357 645 322 592 q 437 731 392 699 q 538 764 482 764 q 633 719 601 764 q 640 597 664 675 l 497 117 q 493 96 496 110 q 496 70 490 82 q 524 58 501 58 q 572 82 551 58 q 622 147 592 106 l 660 197 l 683 181 l 650 135 q 567 31 607 75 q 472 -14 528 -14 z "},"i":{"ha":694,"x_min":107,"x_max":607,"o":"m 429 875 q 385 892 403 875 q 367 935 367 908 q 396 999 367 971 q 461 1028 425 1028 q 506 1011 489 1028 q 524 968 524 994 q 494 903 524 932 q 429 875 465 875 m 336 -14 q 240 31 272 -14 q 225 150 208 75 l 342 683 l 107 683 l 107 717 l 353 735 l 421 769 l 454 769 l 318 150 q 323 81 308 106 q 375 56 338 56 q 459 95 418 56 q 550 200 500 135 l 581 240 l 607 221 l 576 179 q 453 34 504 82 q 336 -14 401 -14 z "},"ı":{"ha":694,"x_min":107,"x_max":604,"o":"m 313 -14 q 233 34 253 -14 q 231 160 214 82 l 342 683 l 107 683 l 107 717 l 353 735 l 421 769 l 454 769 l 325 165 q 324 90 315 122 q 367 58 333 58 q 416 82 394 58 q 468 147 438 106 l 581 299 l 604 282 l 496 135 q 440 60 467 94 q 383 6 413 26 q 313 -14 353 -14 z "},"í":{"ha":694,"x_min":107,"x_max":604,"o":"m 313 -14 q 233 34 253 -14 q 231 160 214 82 l 342 683 l 107 683 l 107 717 l 353 735 l 421 769 l 454 769 l 325 165 q 324 90 315 122 q 367 58 333 58 q 416 82 394 58 q 468 147 438 106 l 581 299 l 604 282 l 496 135 q 440 60 467 94 q 383 6 413 26 q 313 -14 353 -14 m 426 806 l 501 1056 l 599 1056 l 443 806 l 426 806 z "},"î":{"ha":694,"x_min":107,"x_max":604,"o":"m 313 -14 q 233 34 253 -14 q 231 160 214 82 l 342 683 l 107 683 l 107 717 l 353 735 l 421 769 l 454 769 l 325 165 q 324 90 315 122 q 367 58 333 58 q 416 82 394 58 q 468 147 438 106 l 581 299 l 604 282 l 496 135 q 440 60 467 94 q 383 6 413 26 q 313 -14 353 -14 m 321 806 l 461 1042 l 517 1042 l 557 806 l 540 806 l 471 953 l 338 806 l 321 806 z "},"ï":{"ha":694,"x_min":107,"x_max":629,"o":"m 313 -14 q 233 34 253 -14 q 231 160 214 82 l 342 683 l 107 683 l 107 717 l 353 735 l 421 769 l 454 769 l 325 165 q 324 90 315 122 q 367 58 333 58 q 416 82 394 58 q 468 147 438 106 l 581 299 l 604 282 l 496 135 q 440 60 467 94 q 383 6 413 26 q 313 -14 353 -14 m 543 840 q 502 856 518 840 q 486 894 486 871 q 513 953 486 928 q 572 979 539 979 q 613 964 597 979 q 629 925 629 949 q 603 866 629 892 q 543 840 576 840 m 347 840 q 306 856 322 840 q 290 894 290 871 q 317 953 290 928 q 376 979 343 979 q 417 964 401 979 q 433 925 433 949 q 407 866 433 892 q 347 840 381 840 z "},"ị":{"ha":694,"x_min":107,"x_max":607,"o":"m 429 875 q 385 892 403 875 q 367 935 367 908 q 396 999 367 971 q 461 1028 425 1028 q 506 1011 489 1028 q 524 968 524 994 q 494 903 524 932 q 429 875 465 875 m 336 -14 q 240 31 272 -14 q 225 150 208 75 l 342 683 l 107 683 l 107 717 l 353 735 l 421 769 l 454 769 l 318 150 q 323 81 308 106 q 375 56 338 56 q 459 95 418 56 q 550 200 500 135 l 581 240 l 607 221 l 576 179 q 453 34 504 82 q 336 -14 401 -14 m 335 -237 q 294 -222 310 -237 q 279 -183 279 -206 q 305 -126 279 -151 q 364 -100 331 -100 q 404 -115 389 -100 q 419 -154 419 -131 q 394 -212 419 -186 q 335 -237 368 -237 z "},"ì":{"ha":694,"x_min":107,"x_max":604,"o":"m 313 -14 q 233 34 253 -14 q 231 160 214 82 l 342 683 l 107 683 l 107 717 l 353 735 l 421 769 l 454 769 l 325 165 q 324 90 315 122 q 367 58 333 58 q 416 82 394 58 q 468 147 438 106 l 581 299 l 604 282 l 496 135 q 440 60 467 94 q 383 6 413 26 q 313 -14 353 -14 m 410 806 l 363 1056 l 446 1056 l 426 806 l 410 806 z "},"ỉ":{"ha":694,"x_min":107,"x_max":604,"o":"m 313 -14 q 233 34 253 -14 q 231 160 214 82 l 342 683 l 107 683 l 107 717 l 353 735 l 421 769 l 454 769 l 325 165 q 324 90 315 122 q 367 58 333 58 q 416 82 394 58 q 468 147 438 106 l 581 299 l 604 282 l 496 135 q 440 60 467 94 q 383 6 413 26 q 313 -14 353 -14 m 425 819 l 426 828 q 454 893 433 871 q 493 932 475 915 q 511 975 511 949 q 500 1004 511 993 q 468 1015 489 1015 q 435 1007 450 1015 q 414 992 421 999 l 425 985 q 440 972 433 979 q 446 953 446 964 q 437 930 446 939 q 413 921 428 921 q 386 931 397 921 q 375 961 375 942 q 406 1022 375 996 q 483 1047 436 1047 q 546 1028 524 1047 q 568 978 568 1008 q 552 933 568 950 q 515 901 536 915 q 476 871 494 888 q 454 828 458 854 l 453 819 l 425 819 z "},"ī":{"ha":694,"x_min":107,"x_max":649,"o":"m 313 -14 q 233 34 253 -14 q 231 160 214 82 l 342 683 l 107 683 l 107 717 l 353 735 l 421 769 l 454 769 l 325 165 q 324 90 315 122 q 367 58 333 58 q 416 82 394 58 q 468 147 438 106 l 581 299 l 604 282 l 496 135 q 440 60 467 94 q 383 6 413 26 q 313 -14 353 -14 m 272 886 l 281 929 l 649 929 l 640 886 l 272 886 z "},"į":{"ha":694,"x_min":107,"x_max":604,"o":"m 313 -14 q 233 34 253 -14 q 231 160 214 82 l 342 683 l 107 683 l 107 717 l 353 735 l 421 769 l 454 769 l 325 165 q 324 90 315 122 q 367 58 333 58 q 416 82 394 58 q 468 147 438 106 l 581 299 l 604 282 l 496 135 q 440 60 467 94 q 383 6 413 26 q 313 -14 353 -14 m 453 875 q 408 892 425 875 q 390 935 390 908 q 419 999 390 971 q 485 1028 449 1028 q 530 1011 513 1028 q 547 968 547 994 q 518 903 547 932 q 453 875 489 875 m 268 -244 q 208 -225 238 -244 q 178 -153 178 -206 q 197 -80 178 -111 q 245 -28 217 -49 q 299 0 274 -8 l 347 0 q 301 -22 325 -6 q 260 -61 276 -37 q 243 -117 243 -85 q 263 -167 243 -151 q 310 -182 283 -182 q 361 -165 340 -182 q 390 -133 382 -149 l 406 -142 q 356 -210 392 -175 q 268 -244 321 -244 z "},"ĩ":{"ha":694,"x_min":107,"x_max":604,"o":"m 313 -14 q 233 34 253 -14 q 231 160 214 82 l 342 683 l 107 683 l 107 717 l 353 735 l 421 769 l 454 769 l 325 165 q 324 90 315 122 q 367 58 333 58 q 416 82 394 58 q 468 147 438 106 l 581 299 l 604 282 l 496 135 q 440 60 467 94 q 383 6 413 26 q 313 -14 353 -14 m 504 846 q 460 863 478 846 q 426 896 442 879 q 390 913 411 913 q 359 896 371 913 q 340 850 347 879 l 322 850 q 329 877 324 857 q 346 920 335 897 q 374 960 357 943 q 417 976 392 976 q 461 960 443 976 q 495 926 479 943 q 531 910 511 910 q 581 972 567 910 l 599 972 q 585 928 596 958 q 556 872 575 897 q 504 846 536 846 z "},"j":{"ha":694,"x_min":-124,"x_max":650,"o":"m 556 875 q 511 892 529 875 q 493 935 493 908 q 522 999 493 971 q 588 1028 551 1028 q 633 1011 615 1028 q 650 968 650 994 q 621 903 650 932 q 556 875 592 875 m 81 -264 q -66 -232 -8 -264 q -124 -150 -124 -200 q -106 -103 -124 -122 q -58 -83 -87 -83 q -15 -99 -31 -83 q 9 -137 0 -115 q 22 -178 18 -158 l 32 -215 q 55 -221 39 -218 q 92 -224 71 -224 q 205 -194 161 -224 q 274 -120 249 -165 q 312 -27 299 -75 q 333 60 325 21 l 467 683 l 204 683 l 204 717 l 478 735 l 546 769 l 579 769 l 426 60 q 399 -33 418 21 q 343 -140 381 -87 q 242 -228 306 -193 q 81 -264 178 -264 z "},"k":{"ha":694,"x_min":38,"x_max":707,"o":"m 506 -14 q 435 20 460 -14 q 383 101 410 54 l 232 381 q 199 262 213 319 q 174 161 185 204 l 133 0 l 38 0 l 240 956 l 57 956 l 64 989 l 251 1007 l 319 1042 l 353 1042 l 292 750 l 192 407 l 213 407 q 258 535 233 472 q 316 650 283 599 q 394 733 349 701 q 504 764 440 764 q 619 724 575 764 q 663 611 663 683 q 629 496 663 551 q 528 404 596 440 q 354 368 460 368 l 344 368 l 479 118 q 504 78 490 97 q 543 58 518 58 q 592 82 569 58 q 646 147 615 106 l 683 197 l 707 181 l 674 135 q 584 23 619 60 q 506 -14 549 -14 m 472 721 q 375 674 418 721 q 298 555 332 628 q 239 403 264 482 l 339 403 q 459 432 407 403 q 541 508 511 461 q 571 608 571 556 q 542 692 571 663 q 472 721 513 721 z "},"ķ":{"ha":694,"x_min":38,"x_max":707,"o":"m 506 -14 q 435 20 460 -14 q 383 101 410 54 l 232 381 q 199 262 213 319 q 174 161 185 204 l 133 0 l 38 0 l 240 956 l 57 956 l 64 989 l 251 1007 l 319 1042 l 353 1042 l 292 750 l 192 407 l 213 407 q 258 535 233 472 q 316 650 283 599 q 394 733 349 701 q 504 764 440 764 q 619 724 575 764 q 663 611 663 683 q 629 496 663 551 q 528 404 596 440 q 354 368 460 368 l 344 368 l 479 118 q 504 78 490 97 q 543 58 518 58 q 592 82 569 58 q 646 147 615 106 l 683 197 l 707 181 l 674 135 q 584 23 619 60 q 506 -14 549 -14 m 472 721 q 375 674 418 721 q 298 555 332 628 q 239 403 264 482 l 339 403 q 459 432 407 403 q 541 508 511 461 q 571 608 571 556 q 542 692 571 663 q 472 721 513 721 m 150 -287 l 139 -265 q 201 -222 168 -249 q 239 -174 233 -196 q 194 -158 213 -174 q 175 -114 175 -142 q 199 -58 175 -81 q 254 -36 222 -36 q 298 -53 279 -36 q 317 -104 317 -71 q 290 -177 317 -142 q 224 -241 263 -212 q 150 -287 185 -269 z "},"l":{"ha":694,"x_min":118,"x_max":610,"o":"m 318 -14 q 196 45 229 -14 q 182 199 163 104 l 343 956 l 118 956 l 125 989 l 354 1007 l 422 1042 l 456 1042 l 276 199 q 284 94 263 132 q 358 56 306 56 q 438 78 403 56 q 501 135 472 101 q 553 200 529 169 l 583 240 l 610 221 l 579 179 q 503 82 540 126 q 422 12 465 38 q 318 -14 378 -14 z "},"ĺ":{"ha":694,"x_min":118,"x_max":610,"o":"m 318 -14 q 196 45 229 -14 q 182 199 163 104 l 343 956 l 118 956 l 125 989 l 354 1007 l 422 1042 l 456 1042 l 276 199 q 284 94 263 132 q 358 56 306 56 q 438 78 403 56 q 501 135 472 101 q 553 200 529 169 l 583 240 l 610 221 l 579 179 q 503 82 540 126 q 422 12 465 38 q 318 -14 378 -14 m 410 1083 l 485 1333 l 582 1333 l 426 1083 l 410 1083 z "},"ľ":{"ha":694,"x_min":118,"x_max":642,"o":"m 318 -14 q 196 45 229 -14 q 182 199 163 104 l 343 956 l 118 956 l 125 989 l 354 1007 l 422 1042 l 456 1042 l 276 199 q 284 94 263 132 q 358 56 306 56 q 438 78 403 56 q 501 135 472 101 q 553 200 529 169 l 583 240 l 610 221 l 579 179 q 503 82 540 126 q 422 12 465 38 q 318 -14 378 -14 z "},"ļ":{"ha":694,"x_min":118,"x_max":610,"o":"m 318 -14 q 196 45 229 -14 q 182 199 163 104 l 343 956 l 118 956 l 125 989 l 354 1007 l 422 1042 l 456 1042 l 276 199 q 284 94 263 132 q 358 56 306 56 q 438 78 403 56 q 501 135 472 101 q 553 200 529 169 l 583 240 l 610 221 l 579 179 q 503 82 540 126 q 422 12 465 38 q 318 -14 378 -14 m 150 -287 l 139 -265 q 201 -222 168 -249 q 239 -174 233 -196 q 194 -158 213 -174 q 175 -114 175 -142 q 199 -58 175 -81 q 254 -36 222 -36 q 298 -53 279 -36 q 317 -104 317 -71 q 290 -177 317 -142 q 224 -241 263 -212 q 150 -287 185 -269 z "},"ł":{"ha":694,"x_min":88,"x_max":610,"o":"m 318 -14 q 196 45 229 -14 q 182 199 163 104 l 243 486 l 88 404 l 97 451 l 253 533 l 343 956 l 118 956 l 125 989 l 354 1007 l 422 1042 l 456 1042 l 360 589 l 546 688 l 536 640 l 350 542 l 276 199 q 284 94 263 132 q 358 56 306 56 q 438 78 403 56 q 501 135 472 101 q 553 200 529 169 l 583 240 l 610 221 l 579 179 q 503 82 540 126 q 422 12 465 38 q 318 -14 378 -14 z "},"m":{"ha":694,"x_min":35,"x_max":703,"o":"m 478 -14 q 429 15 443 -14 q 433 107 415 44 l 588 617 q 595 645 592 628 q 597 676 599 663 q 578 690 594 690 q 533 663 556 690 q 491 590 511 635 q 453 494 471 546 q 421 396 436 443 l 297 0 l 229 0 l 383 619 q 390 665 389 639 q 369 690 390 690 q 332 665 353 690 q 287 576 311 639 q 235 404 263 514 l 132 0 l 57 0 l 192 633 q 196 672 196 653 q 178 692 196 692 q 151 676 167 692 q 94 603 136 660 l 58 554 l 35 572 l 67 615 q 154 728 124 693 q 215 764 185 764 q 258 735 242 764 q 257 643 274 707 l 196 407 l 211 407 l 219 439 q 247 535 231 481 q 285 643 263 590 q 338 730 308 696 q 404 764 367 764 q 456 733 436 764 q 453 629 475 703 l 385 407 l 400 407 l 410 438 q 464 594 436 519 q 528 716 492 668 q 613 764 564 764 q 671 719 657 764 q 661 597 685 675 l 515 117 q 510 97 514 111 q 509 71 507 83 q 524 58 511 58 q 561 82 540 58 q 613 147 582 106 l 679 236 l 703 219 l 640 135 q 554 27 592 68 q 478 -14 517 -14 z "},"n":{"ha":694,"x_min":50,"x_max":693,"o":"m 482 -14 q 418 15 443 -14 q 411 107 393 44 l 554 589 q 558 663 568 635 q 504 690 547 690 q 392 624 446 690 q 288 407 339 558 q 182 0 236 256 l 86 0 l 221 633 q 226 672 225 653 q 204 692 226 692 q 162 668 182 692 q 110 603 142 644 l 74 554 l 50 572 l 82 615 q 164 720 126 676 q 250 764 201 764 q 313 735 288 764 q 317 643 338 706 l 239 407 l 260 407 q 306 528 279 465 q 367 644 332 590 q 447 731 401 697 q 547 764 492 764 q 642 719 611 764 q 650 597 674 675 l 507 117 q 503 96 506 110 q 507 70 501 82 q 533 58 513 58 q 579 82 557 58 q 632 147 601 106 l 669 197 l 693 181 l 660 135 q 577 31 617 75 q 482 -14 538 -14 z "},"ń":{"ha":694,"x_min":50,"x_max":693,"o":"m 482 -14 q 418 15 443 -14 q 411 107 393 44 l 554 589 q 558 663 568 635 q 504 690 547 690 q 392 624 446 690 q 288 407 339 558 q 182 0 236 256 l 86 0 l 221 633 q 226 672 225 653 q 204 692 226 692 q 162 668 182 692 q 110 603 142 644 l 74 554 l 50 572 l 82 615 q 164 720 126 676 q 250 764 201 764 q 313 735 288 764 q 317 643 338 706 l 239 407 l 260 407 q 306 528 279 465 q 367 644 332 590 q 447 731 401 697 q 547 764 492 764 q 642 719 611 764 q 650 597 674 675 l 507 117 q 503 96 506 110 q 507 70 501 82 q 533 58 513 58 q 579 82 557 58 q 632 147 601 106 l 669 197 l 693 181 l 660 135 q 577 31 617 75 q 482 -14 538 -14 m 426 806 l 501 1056 l 599 1056 l 443 806 l 426 806 z "},"ň":{"ha":694,"x_min":50,"x_max":693,"o":"m 482 -14 q 418 15 443 -14 q 411 107 393 44 l 554 589 q 558 663 568 635 q 504 690 547 690 q 392 624 446 690 q 288 407 339 558 q 182 0 236 256 l 86 0 l 221 633 q 226 672 225 653 q 204 692 226 692 q 162 668 182 692 q 110 603 142 644 l 74 554 l 50 572 l 82 615 q 164 720 126 676 q 250 764 201 764 q 313 735 288 764 q 317 643 338 706 l 239 407 l 260 407 q 306 528 279 465 q 367 644 332 590 q 447 731 401 697 q 547 764 492 764 q 642 719 611 764 q 650 597 674 675 l 507 117 q 503 96 506 110 q 507 70 501 82 q 533 58 513 58 q 579 82 557 58 q 632 147 601 106 l 669 197 l 693 181 l 660 135 q 577 31 617 75 q 482 -14 538 -14 m 411 806 l 371 1042 l 388 1042 l 457 894 l 590 1042 l 607 1042 l 467 806 l 411 806 z "},"ņ":{"ha":694,"x_min":50,"x_max":693,"o":"m 482 -14 q 418 15 443 -14 q 411 107 393 44 l 554 589 q 558 663 568 635 q 504 690 547 690 q 392 624 446 690 q 288 407 339 558 q 182 0 236 256 l 86 0 l 221 633 q 226 672 225 653 q 204 692 226 692 q 162 668 182 692 q 110 603 142 644 l 74 554 l 50 572 l 82 615 q 164 720 126 676 q 250 764 201 764 q 313 735 288 764 q 317 643 338 706 l 239 407 l 260 407 q 306 528 279 465 q 367 644 332 590 q 447 731 401 697 q 547 764 492 764 q 642 719 611 764 q 650 597 674 675 l 507 117 q 503 96 506 110 q 507 70 501 82 q 533 58 513 58 q 579 82 557 58 q 632 147 601 106 l 669 197 l 693 181 l 660 135 q 577 31 617 75 q 482 -14 538 -14 m 150 -287 l 139 -265 q 201 -222 168 -249 q 239 -174 233 -196 q 194 -158 213 -174 q 175 -114 175 -142 q 199 -58 175 -81 q 254 -36 222 -36 q 298 -53 279 -36 q 317 -104 317 -71 q 290 -177 317 -142 q 224 -241 263 -212 q 150 -287 185 -269 z "},"ŋ":{"ha":694,"x_min":-46,"x_max":674,"o":"m 153 -264 q 12 -231 69 -264 q -46 -150 -46 -199 q -28 -103 -46 -122 q 19 -83 -10 -83 q 63 -99 47 -83 q 87 -137 78 -115 q 100 -178 96 -158 l 110 -215 q 131 -221 115 -218 q 168 -224 146 -224 q 272 -192 232 -224 q 341 -99 313 -161 q 397 60 369 -36 l 554 589 q 558 663 568 635 q 504 690 547 690 q 392 624 446 690 q 288 407 339 558 q 182 0 236 256 l 86 0 l 221 633 q 226 672 225 653 q 204 692 226 692 q 162 668 182 692 q 110 603 142 644 l 74 554 l 50 572 l 82 615 q 164 720 126 676 q 250 764 201 764 q 312 735 288 764 q 317 643 336 706 l 242 407 l 260 407 q 306 528 279 465 q 367 644 332 590 q 447 731 401 697 q 547 764 492 764 q 642 719 611 764 q 650 597 674 675 l 490 60 q 459 -33 479 22 q 402 -140 439 -87 q 305 -228 365 -193 q 153 -264 244 -264 z "},"ñ":{"ha":694,"x_min":50,"x_max":693,"o":"m 482 -14 q 418 15 443 -14 q 411 107 393 44 l 554 589 q 558 663 568 635 q 504 690 547 690 q 392 624 446 690 q 288 407 339 558 q 182 0 236 256 l 86 0 l 221 633 q 226 672 225 653 q 204 692 226 692 q 162 668 182 692 q 110 603 142 644 l 74 554 l 50 572 l 82 615 q 164 720 126 676 q 250 764 201 764 q 313 735 288 764 q 317 643 338 706 l 239 407 l 260 407 q 306 528 279 465 q 367 644 332 590 q 447 731 401 697 q 547 764 492 764 q 642 719 611 764 q 650 597 674 675 l 507 117 q 503 96 506 110 q 507 70 501 82 q 533 58 513 58 q 579 82 557 58 q 632 147 601 106 l 669 197 l 693 181 l 660 135 q 577 31 617 75 q 482 -14 538 -14 m 504 846 q 460 863 478 846 q 426 896 442 879 q 390 913 411 913 q 359 896 371 913 q 340 850 347 879 l 322 850 q 329 877 324 857 q 346 920 335 897 q 374 960 357 943 q 417 976 392 976 q 461 960 443 976 q 495 926 479 943 q 531 910 511 910 q 581 972 567 910 l 599 972 q 585 928 596 958 q 556 872 575 897 q 504 846 536 846 z "},"o":{"ha":694,"x_min":81,"x_max":628,"o":"m 269 -14 q 163 22 206 -14 q 101 119 121 58 q 81 254 81 181 q 109 436 81 346 q 187 601 138 526 q 301 719 236 675 q 439 764 367 764 q 544 728 503 764 q 607 632 586 693 q 628 496 628 571 q 599 312 628 403 q 521 147 571 221 q 406 30 471 74 q 269 -14 342 -14 m 281 31 q 417 103 358 31 q 503 306 476 176 l 532 444 q 533 647 560 574 q 428 719 506 719 q 293 647 351 719 q 207 444 235 574 l 176 306 q 176 103 149 176 q 281 31 204 31 z "},"ó":{"ha":694,"x_min":81,"x_max":628,"o":"m 269 -14 q 163 22 206 -14 q 101 119 121 58 q 81 254 81 181 q 109 436 81 346 q 187 601 138 526 q 301 719 236 675 q 439 764 367 764 q 544 728 503 764 q 607 632 586 693 q 628 496 628 571 q 599 312 628 403 q 521 147 571 221 q 406 30 471 74 q 269 -14 342 -14 m 281 31 q 417 103 358 31 q 503 306 476 176 l 532 444 q 533 647 560 574 q 428 719 506 719 q 293 647 351 719 q 207 444 235 574 l 176 306 q 176 103 149 176 q 281 31 204 31 m 446 806 l 521 1056 l 618 1056 l 463 806 l 446 806 z "},"ô":{"ha":694,"x_min":81,"x_max":628,"o":"m 269 -14 q 163 22 206 -14 q 101 119 121 58 q 81 254 81 181 q 109 436 81 346 q 187 601 138 526 q 301 719 236 675 q 439 764 367 764 q 544 728 503 764 q 607 632 586 693 q 628 496 628 571 q 599 312 628 403 q 521 147 571 221 q 406 30 471 74 q 269 -14 342 -14 m 281 31 q 417 103 358 31 q 503 306 476 176 l 532 444 q 533 647 560 574 q 428 719 506 719 q 293 647 351 719 q 207 444 235 574 l 176 306 q 176 103 149 176 q 281 31 204 31 m 340 806 l 481 1042 l 536 1042 l 576 806 l 560 806 l 490 953 l 357 806 l 340 806 z "},"ố":{"ha":694,"x_min":81,"x_max":761,"o":"m 269 -14 q 163 22 206 -14 q 101 119 121 58 q 81 254 81 181 q 109 436 81 346 q 187 601 138 526 q 301 719 236 675 q 439 764 367 764 q 544 728 503 764 q 607 632 586 693 q 628 496 628 571 q 599 312 628 403 q 521 147 571 221 q 406 30 471 74 q 269 -14 342 -14 m 281 31 q 417 103 358 31 q 503 306 476 176 l 532 444 q 533 647 560 574 q 428 719 506 719 q 293 647 351 719 q 207 444 235 574 l 176 306 q 176 103 149 176 q 281 31 204 31 m 589 974 l 664 1224 l 761 1224 l 606 974 l 589 974 m 340 806 l 481 1042 l 536 1042 l 576 806 l 560 806 l 490 953 l 357 806 l 340 806 z "},"ộ":{"ha":694,"x_min":81,"x_max":628,"o":"m 269 -14 q 163 22 206 -14 q 101 119 121 58 q 81 254 81 181 q 109 436 81 346 q 187 601 138 526 q 301 719 236 675 q 439 764 367 764 q 544 728 503 764 q 607 632 586 693 q 628 496 628 571 q 599 312 628 403 q 521 147 571 221 q 406 30 471 74 q 269 -14 342 -14 m 281 31 q 417 103 358 31 q 503 306 476 176 l 532 444 q 533 647 560 574 q 428 719 506 719 q 293 647 351 719 q 207 444 235 574 l 176 306 q 176 103 149 176 q 281 31 204 31 m 218 -237 q 178 -222 193 -237 q 163 -183 163 -206 q 188 -126 163 -151 q 247 -100 214 -100 q 288 -115 272 -100 q 303 -154 303 -131 q 277 -212 303 -186 q 218 -237 251 -237 m 340 806 l 481 1042 l 536 1042 l 576 806 l 560 806 l 490 953 l 357 806 l 340 806 z "},"ồ":{"ha":694,"x_min":81,"x_max":636,"o":"m 269 -14 q 163 22 206 -14 q 101 119 121 58 q 81 254 81 181 q 109 436 81 346 q 187 601 138 526 q 301 719 236 675 q 439 764 367 764 q 544 728 503 764 q 607 632 586 693 q 628 496 628 571 q 599 312 628 403 q 521 147 571 221 q 406 30 471 74 q 269 -14 342 -14 m 281 31 q 417 103 358 31 q 503 306 476 176 l 532 444 q 533 647 560 574 q 428 719 506 719 q 293 647 351 719 q 207 444 235 574 l 176 306 q 176 103 149 176 q 281 31 204 31 m 600 974 l 553 1224 l 636 1224 l 617 974 l 600 974 m 340 806 l 481 1042 l 536 1042 l 576 806 l 560 806 l 490 953 l 357 806 l 340 806 z "},"ổ":{"ha":694,"x_min":81,"x_max":731,"o":"m 269 -14 q 163 22 206 -14 q 101 119 121 58 q 81 254 81 181 q 109 436 81 346 q 187 601 138 526 q 301 719 236 675 q 439 764 367 764 q 544 728 503 764 q 607 632 586 693 q 628 496 628 571 q 599 312 628 403 q 521 147 571 221 q 406 30 471 74 q 269 -14 342 -14 m 281 31 q 417 103 358 31 q 503 306 476 176 l 532 444 q 533 647 560 574 q 428 719 506 719 q 293 647 351 719 q 207 444 235 574 l 176 306 q 176 103 149 176 q 281 31 204 31 m 588 988 l 589 996 q 617 1061 596 1039 q 656 1100 638 1083 q 674 1143 674 1117 q 663 1172 674 1161 q 631 1183 651 1183 q 598 1175 613 1183 q 576 1160 583 1167 l 588 1153 q 602 1140 596 1147 q 608 1121 608 1132 q 599 1098 608 1107 q 575 1089 590 1089 q 549 1099 560 1089 q 538 1129 538 1110 q 568 1190 538 1164 q 646 1215 599 1215 q 708 1196 686 1215 q 731 1146 731 1176 q 715 1101 731 1118 q 678 1069 699 1083 q 639 1039 657 1056 q 617 996 621 1022 l 615 988 l 588 988 m 340 806 l 481 1042 l 536 1042 l 576 806 l 560 806 l 490 953 l 357 806 l 340 806 z "},"ỗ":{"ha":694,"x_min":81,"x_max":672,"o":"m 269 -14 q 163 22 206 -14 q 101 119 121 58 q 81 254 81 181 q 109 436 81 346 q 187 601 138 526 q 301 719 236 675 q 439 764 367 764 q 544 728 503 764 q 607 632 586 693 q 628 496 628 571 q 599 312 628 403 q 521 147 571 221 q 406 30 471 74 q 269 -14 342 -14 m 281 31 q 417 103 358 31 q 503 306 476 176 l 532 444 q 533 647 560 574 q 428 719 506 719 q 293 647 351 719 q 207 444 235 574 l 176 306 q 176 103 149 176 q 281 31 204 31 m 578 1064 q 533 1081 551 1064 q 500 1114 515 1097 q 464 1131 485 1131 q 433 1114 444 1131 q 414 1068 421 1097 l 396 1068 q 403 1095 397 1075 q 419 1138 408 1115 q 448 1178 431 1161 q 490 1194 465 1194 q 535 1178 517 1194 q 569 1144 553 1161 q 604 1128 585 1128 q 654 1190 640 1128 l 672 1190 q 659 1146 669 1176 q 629 1090 649 1115 q 578 1064 610 1064 m 340 806 l 481 1042 l 536 1042 l 576 806 l 560 806 l 490 953 l 357 806 l 340 806 z "},"ö":{"ha":694,"x_min":81,"x_max":649,"o":"m 269 -14 q 163 22 206 -14 q 101 119 121 58 q 81 254 81 181 q 109 436 81 346 q 187 601 138 526 q 301 719 236 675 q 439 764 367 764 q 544 728 503 764 q 607 632 586 693 q 628 496 628 571 q 599 312 628 403 q 521 147 571 221 q 406 30 471 74 q 269 -14 342 -14 m 281 31 q 417 103 358 31 q 503 306 476 176 l 532 444 q 533 647 560 574 q 428 719 506 719 q 293 647 351 719 q 207 444 235 574 l 176 306 q 176 103 149 176 q 281 31 204 31 m 563 840 q 522 856 538 840 q 506 894 506 871 q 532 953 506 928 q 592 979 558 979 q 633 964 617 979 q 649 925 649 949 q 622 866 649 892 q 563 840 596 840 m 367 840 q 326 856 342 840 q 310 894 310 871 q 336 953 310 928 q 396 979 363 979 q 437 964 421 979 q 453 925 453 949 q 426 866 453 892 q 367 840 400 840 z "},"ọ":{"ha":694,"x_min":81,"x_max":628,"o":"m 269 -14 q 163 22 206 -14 q 101 119 121 58 q 81 254 81 181 q 109 436 81 346 q 187 601 138 526 q 301 719 236 675 q 439 764 367 764 q 544 728 503 764 q 607 632 586 693 q 628 496 628 571 q 599 312 628 403 q 521 147 571 221 q 406 30 471 74 q 269 -14 342 -14 m 281 31 q 417 103 358 31 q 503 306 476 176 l 532 444 q 533 647 560 574 q 428 719 506 719 q 293 647 351 719 q 207 444 235 574 l 176 306 q 176 103 149 176 q 281 31 204 31 m 218 -237 q 178 -222 193 -237 q 163 -183 163 -206 q 188 -126 163 -151 q 247 -100 214 -100 q 288 -115 272 -100 q 303 -154 303 -131 q 277 -212 303 -186 q 218 -237 251 -237 z "},"ò":{"ha":694,"x_min":81,"x_max":628,"o":"m 269 -14 q 163 22 206 -14 q 101 119 121 58 q 81 254 81 181 q 109 436 81 346 q 187 601 138 526 q 301 719 236 675 q 439 764 367 764 q 544 728 503 764 q 607 632 586 693 q 628 496 628 571 q 599 312 628 403 q 521 147 571 221 q 406 30 471 74 q 269 -14 342 -14 m 281 31 q 417 103 358 31 q 503 306 476 176 l 532 444 q 533 647 560 574 q 428 719 506 719 q 293 647 351 719 q 207 444 235 574 l 176 306 q 176 103 149 176 q 281 31 204 31 m 429 806 l 382 1056 l 465 1056 l 446 806 l 429 806 z "},"ỏ":{"ha":694,"x_min":81,"x_max":628,"o":"m 269 -14 q 163 22 206 -14 q 101 119 121 58 q 81 254 81 181 q 109 436 81 346 q 187 601 138 526 q 301 719 236 675 q 439 764 367 764 q 544 728 503 764 q 607 632 586 693 q 628 496 628 571 q 599 312 628 403 q 521 147 571 221 q 406 30 471 74 q 269 -14 342 -14 m 281 31 q 417 103 358 31 q 503 306 476 176 l 532 444 q 533 647 560 574 q 428 719 506 719 q 293 647 351 719 q 207 444 235 574 l 176 306 q 176 103 149 176 q 281 31 204 31 m 444 819 l 446 828 q 474 893 453 871 q 513 932 494 915 q 531 975 531 949 q 519 1004 531 993 q 488 1015 508 1015 q 455 1007 469 1015 q 433 992 440 999 l 444 985 q 459 972 453 979 q 465 953 465 964 q 456 930 465 939 q 432 921 447 921 q 406 931 417 921 q 394 961 394 942 q 425 1022 394 996 q 503 1047 456 1047 q 565 1028 543 1047 q 588 978 588 1008 q 572 933 588 950 q 535 901 556 915 q 496 871 514 888 q 474 828 478 854 l 472 819 l 444 819 z "},"ơ":{"ha":694,"x_min":81,"x_max":724,"o":"m 269 -14 q 163 22 206 -14 q 101 119 121 58 q 81 254 81 181 q 109 436 81 346 q 187 601 138 526 q 301 719 236 675 q 439 764 367 764 q 544 728 503 764 q 607 632 586 693 q 628 496 628 571 q 599 312 628 403 q 521 147 571 221 q 406 30 471 74 q 269 -14 342 -14 m 281 31 q 417 103 358 31 q 503 306 476 176 l 532 444 q 533 647 560 574 q 428 719 506 719 q 293 647 351 719 q 207 444 235 574 l 176 306 q 176 103 149 176 q 281 31 204 31 m 547 638 l 554 672 l 579 672 q 640 690 618 672 q 664 724 661 708 q 653 722 660 722 q 615 739 629 722 q 600 778 600 756 q 619 822 600 804 q 664 839 638 839 q 706 824 688 839 q 724 776 724 808 q 706 714 724 746 q 655 660 689 682 q 572 638 621 638 l 547 638 z "},"ớ":{"ha":694,"x_min":81,"x_max":724,"o":"m 269 -14 q 163 22 206 -14 q 101 119 121 58 q 81 254 81 181 q 109 436 81 346 q 187 601 138 526 q 301 719 236 675 q 439 764 367 764 q 544 728 503 764 q 607 632 586 693 q 628 496 628 571 q 599 312 628 403 q 521 147 571 221 q 406 30 471 74 q 269 -14 342 -14 m 281 31 q 417 103 358 31 q 503 306 476 176 l 532 444 q 533 647 560 574 q 428 719 506 719 q 293 647 351 719 q 207 444 235 574 l 176 306 q 176 103 149 176 q 281 31 204 31 m 547 638 l 554 672 l 579 672 q 640 690 618 672 q 664 724 661 708 q 653 722 660 722 q 615 739 629 722 q 600 778 600 756 q 619 822 600 804 q 664 839 638 839 q 706 824 688 839 q 724 776 724 808 q 706 714 724 746 q 655 660 689 682 q 572 638 621 638 l 547 638 m 446 806 l 521 1056 l 618 1056 l 463 806 l 446 806 z "},"ợ":{"ha":694,"x_min":81,"x_max":724,"o":"m 269 -14 q 163 22 206 -14 q 101 119 121 58 q 81 254 81 181 q 109 436 81 346 q 187 601 138 526 q 301 719 236 675 q 439 764 367 764 q 544 728 503 764 q 607 632 586 693 q 628 496 628 571 q 599 312 628 403 q 521 147 571 221 q 406 30 471 74 q 269 -14 342 -14 m 281 31 q 417 103 358 31 q 503 306 476 176 l 532 444 q 533 647 560 574 q 428 719 506 719 q 293 647 351 719 q 207 444 235 574 l 176 306 q 176 103 149 176 q 281 31 204 31 m 547 638 l 554 672 l 579 672 q 640 690 618 672 q 664 724 661 708 q 653 722 660 722 q 615 739 629 722 q 600 778 600 756 q 619 822 600 804 q 664 839 638 839 q 706 824 688 839 q 724 776 724 808 q 706 714 724 746 q 655 660 689 682 q 572 638 621 638 l 547 638 m 218 -237 q 178 -222 193 -237 q 163 -183 163 -206 q 188 -126 163 -151 q 247 -100 214 -100 q 288 -115 272 -100 q 303 -154 303 -131 q 277 -212 303 -186 q 218 -237 251 -237 z "},"ờ":{"ha":694,"x_min":81,"x_max":724,"o":"m 269 -14 q 163 22 206 -14 q 101 119 121 58 q 81 254 81 181 q 109 436 81 346 q 187 601 138 526 q 301 719 236 675 q 439 764 367 764 q 544 728 503 764 q 607 632 586 693 q 628 496 628 571 q 599 312 628 403 q 521 147 571 221 q 406 30 471 74 q 269 -14 342 -14 m 281 31 q 417 103 358 31 q 503 306 476 176 l 532 444 q 533 647 560 574 q 428 719 506 719 q 293 647 351 719 q 207 444 235 574 l 176 306 q 176 103 149 176 q 281 31 204 31 m 547 638 l 554 672 l 579 672 q 640 690 618 672 q 664 724 661 708 q 653 722 660 722 q 615 739 629 722 q 600 778 600 756 q 619 822 600 804 q 664 839 638 839 q 706 824 688 839 q 724 776 724 808 q 706 714 724 746 q 655 660 689 682 q 572 638 621 638 l 547 638 m 429 806 l 382 1056 l 465 1056 l 446 806 l 429 806 z "},"ở":{"ha":694,"x_min":81,"x_max":724,"o":"m 269 -14 q 163 22 206 -14 q 101 119 121 58 q 81 254 81 181 q 109 436 81 346 q 187 601 138 526 q 301 719 236 675 q 439 764 367 764 q 544 728 503 764 q 607 632 586 693 q 628 496 628 571 q 599 312 628 403 q 521 147 571 221 q 406 30 471 74 q 269 -14 342 -14 m 281 31 q 417 103 358 31 q 503 306 476 176 l 532 444 q 533 647 560 574 q 428 719 506 719 q 293 647 351 719 q 207 444 235 574 l 176 306 q 176 103 149 176 q 281 31 204 31 m 547 638 l 554 672 l 579 672 q 640 690 618 672 q 664 724 661 708 q 653 722 660 722 q 615 739 629 722 q 600 778 600 756 q 619 822 600 804 q 664 839 638 839 q 706 824 688 839 q 724 776 724 808 q 706 714 724 746 q 655 660 689 682 q 572 638 621 638 l 547 638 m 444 819 l 446 828 q 474 893 453 871 q 513 932 494 915 q 531 975 531 949 q 519 1004 531 993 q 488 1015 508 1015 q 455 1007 469 1015 q 433 992 440 999 l 444 985 q 459 972 453 979 q 465 953 465 964 q 456 930 465 939 q 432 921 447 921 q 406 931 417 921 q 394 961 394 942 q 425 1022 394 996 q 503 1047 456 1047 q 565 1028 543 1047 q 588 978 588 1008 q 572 933 588 950 q 535 901 556 915 q 496 871 514 888 q 474 828 478 854 l 472 819 l 444 819 z "},"ỡ":{"ha":694,"x_min":81,"x_max":724,"o":"m 269 -14 q 163 22 206 -14 q 101 119 121 58 q 81 254 81 181 q 109 436 81 346 q 187 601 138 526 q 301 719 236 675 q 439 764 367 764 q 544 728 503 764 q 607 632 586 693 q 628 496 628 571 q 599 312 628 403 q 521 147 571 221 q 406 30 471 74 q 269 -14 342 -14 m 281 31 q 417 103 358 31 q 503 306 476 176 l 532 444 q 533 647 560 574 q 428 719 506 719 q 293 647 351 719 q 207 444 235 574 l 176 306 q 176 103 149 176 q 281 31 204 31 m 547 638 l 554 672 l 579 672 q 640 690 618 672 q 664 724 661 708 q 653 722 660 722 q 615 739 629 722 q 600 778 600 756 q 619 822 600 804 q 664 839 638 839 q 706 824 688 839 q 724 776 724 808 q 706 714 724 746 q 655 660 689 682 q 572 638 621 638 l 547 638 m 524 846 q 479 863 497 846 q 446 896 461 879 q 410 913 431 913 q 378 896 390 913 q 360 850 367 879 l 342 850 q 349 877 343 857 q 365 920 354 897 q 394 960 376 943 q 436 976 411 976 q 481 960 463 976 q 515 926 499 943 q 550 910 531 910 q 600 972 586 910 l 618 972 q 605 928 615 958 q 575 872 594 897 q 524 846 556 846 z "},"ő":{"ha":694,"x_min":81,"x_max":658,"o":"m 269 -14 q 163 22 206 -14 q 101 119 121 58 q 81 254 81 181 q 109 436 81 346 q 187 601 138 526 q 301 719 236 675 q 439 764 367 764 q 544 728 503 764 q 607 632 586 693 q 628 496 628 571 q 599 312 628 403 q 521 147 571 221 q 406 30 471 74 q 269 -14 342 -14 m 281 31 q 417 103 358 31 q 503 306 476 176 l 532 444 q 533 647 560 574 q 428 719 506 719 q 293 647 351 719 q 207 444 235 574 l 176 306 q 176 103 149 176 q 281 31 204 31 m 500 806 l 575 1056 l 658 1056 l 517 806 l 500 806 m 381 806 l 456 1056 l 539 1056 l 397 806 l 381 806 z "},"ō":{"ha":694,"x_min":81,"x_max":668,"o":"m 269 -14 q 163 22 206 -14 q 101 119 121 58 q 81 254 81 181 q 109 436 81 346 q 187 601 138 526 q 301 719 236 675 q 439 764 367 764 q 544 728 503 764 q 607 632 586 693 q 628 496 628 571 q 599 312 628 403 q 521 147 571 221 q 406 30 471 74 q 269 -14 342 -14 m 281 31 q 417 103 358 31 q 503 306 476 176 l 532 444 q 533 647 560 574 q 428 719 506 719 q 293 647 351 719 q 207 444 235 574 l 176 306 q 176 103 149 176 q 281 31 204 31 m 292 886 l 300 929 l 668 929 l 660 886 l 292 886 z "},"ø":{"ha":694,"x_min":32,"x_max":664,"o":"m 65 -14 l 32 8 l 103 97 q 74 256 74 164 q 102 438 74 347 q 180 602 131 528 q 294 721 229 676 q 432 765 360 765 q 514 746 479 765 q 572 692 549 726 l 631 765 l 664 743 l 593 653 q 621 497 621 588 q 592 313 621 404 q 514 149 564 222 q 399 31 464 75 q 263 -12 335 -12 q 182 7 217 -12 q 124 60 147 26 l 65 -14 m 169 307 q 157 167 151 226 l 529 636 q 421 721 504 721 q 286 648 344 721 q 200 446 228 575 l 169 307 m 274 32 q 410 105 351 32 q 496 307 469 178 l 525 446 q 538 583 542 525 l 167 114 q 274 32 193 32 z "},"õ":{"ha":694,"x_min":81,"x_max":628,"o":"m 269 -14 q 163 22 206 -14 q 101 119 121 58 q 81 254 81 181 q 109 436 81 346 q 187 601 138 526 q 301 719 236 675 q 439 764 367 764 q 544 728 503 764 q 607 632 586 693 q 628 496 628 571 q 599 312 628 403 q 521 147 571 221 q 406 30 471 74 q 269 -14 342 -14 m 281 31 q 417 103 358 31 q 503 306 476 176 l 532 444 q 533 647 560 574 q 428 719 506 719 q 293 647 351 719 q 207 444 235 574 l 176 306 q 176 103 149 176 q 281 31 204 31 m 524 846 q 479 863 497 846 q 446 896 461 879 q 410 913 431 913 q 378 896 390 913 q 360 850 367 879 l 342 850 q 349 877 343 857 q 365 920 354 897 q 394 960 376 943 q 436 976 411 976 q 481 960 463 976 q 515 926 499 943 q 550 910 531 910 q 600 972 586 910 l 618 972 q 605 928 615 958 q 575 872 594 897 q 524 846 556 846 z "},"œ":{"ha":694,"x_min":-21,"x_max":747,"o":"m 118 -14 q 30 28 61 -14 q -11 140 -1 71 q -11 292 -21 210 q 24 458 -1 375 q 90 610 50 540 q 178 722 129 679 q 283 764 228 764 q 370 724 339 764 q 411 618 401 683 q 500 724 447 683 q 625 764 553 764 q 713 734 678 764 q 747 651 747 704 q 715 557 747 600 q 631 483 682 514 q 521 434 579 451 q 413 417 463 417 l 408 417 l 385 306 q 373 232 376 267 q 369 176 369 197 q 395 74 369 113 q 464 35 421 35 q 531 62 504 35 q 575 131 557 89 q 607 219 593 172 l 615 247 l 650 236 l 646 219 q 624 146 638 186 q 590 69 611 106 q 535 10 568 33 q 453 -14 501 -14 q 354 26 392 -14 q 306 129 317 65 q 220 26 268 65 q 118 -14 172 -14 m 414 447 q 529 477 474 449 q 620 553 585 506 q 656 653 656 600 q 642 701 656 682 q 594 721 628 721 q 485 648 529 721 q 414 447 442 575 m 128 31 q 215 86 172 31 q 286 278 257 142 l 328 472 q 338 664 357 608 q 275 719 318 719 q 189 664 232 719 q 117 472 146 608 l 75 278 q 65 86 46 142 q 128 31 85 31 z "},"p":{"ha":694,"x_min":-81,"x_max":667,"o":"m -81 -258 l -81 -211 l 64 -211 l 236 600 l 86 503 l 71 503 l 71 575 l 246 642 l 300 899 l 393 899 l 336 681 l 354 681 q 391 710 365 690 q 453 747 417 731 q 529 764 489 764 q 633 707 599 764 q 667 551 667 650 q 651 406 667 483 q 605 255 635 329 q 530 119 575 181 q 427 22 485 58 q 300 -14 369 -14 q 247 -8 271 -14 q 204 4 224 -3 l 158 -211 l 379 -211 l 379 -258 l -81 -258 m 308 31 q 510 253 463 31 l 574 556 q 566 674 590 633 q 490 714 542 714 q 407 691 450 714 q 340 646 364 668 l 217 58 q 251 40 226 49 q 308 31 275 31 z "},"þ":{"ha":694,"x_min":-81,"x_max":667,"o":"m -81 -264 l -81 -225 l 64 -211 l 236 600 l 86 503 l 71 503 l 71 575 l 246 642 l 313 956 l 185 956 l 192 989 l 324 1007 l 392 1042 l 425 1042 l 347 681 l 354 681 q 391 710 365 690 q 453 747 417 731 q 529 764 489 764 q 633 707 599 764 q 667 551 667 650 q 651 406 667 483 q 605 255 635 329 q 530 119 575 181 q 427 22 485 58 q 300 -14 369 -14 q 247 -8 271 -14 q 204 4 224 -3 l 158 -211 l 379 -225 l 379 -264 l -81 -264 m 308 31 q 510 253 463 31 l 574 556 q 566 674 590 633 q 490 714 542 714 q 407 691 450 714 q 340 646 364 668 l 217 58 q 251 40 226 49 q 308 31 275 31 z "},"q":{"ha":694,"x_min":101,"x_max":682,"o":"m 150 -258 l 150 -211 l 381 -211 l 460 136 l 551 428 l 531 428 l 506 353 q 457 226 485 290 q 394 107 429 161 q 319 20 360 53 q 232 -12 278 -12 q 135 49 168 -12 q 106 200 101 110 q 126 334 108 260 q 178 483 144 408 q 258 622 211 558 q 363 725 304 686 q 490 764 421 764 q 548 755 524 764 q 582 738 572 746 l 649 765 l 682 765 l 475 -211 l 578 -211 l 578 -258 l 150 -258 m 256 43 q 324 76 290 43 q 390 165 358 110 q 449 288 421 221 q 499 426 476 356 q 539 558 522 496 q 564 664 556 621 q 532 700 557 682 q 467 718 507 718 q 358 667 403 718 q 290 529 314 617 l 199 200 q 197 89 181 135 q 256 43 213 43 z "},"r":{"ha":694,"x_min":39,"x_max":706,"o":"m 103 0 l 238 633 q 235 672 242 653 q 201 692 229 692 q 153 668 175 692 q 99 603 131 644 l 63 554 l 39 572 l 71 615 q 128 690 101 656 q 184 744 154 724 q 254 764 214 764 q 329 724 311 764 q 326 622 347 683 l 249 400 l 269 400 q 421 672 343 581 q 593 764 499 764 q 676 738 646 764 q 706 675 706 713 q 684 619 706 643 q 624 594 663 594 q 566 619 585 594 q 553 685 547 643 l 557 717 q 453 657 510 717 q 344 492 397 597 q 251 247 292 386 l 181 0 l 103 0 z "},"ŕ":{"ha":694,"x_min":39,"x_max":706,"o":"m 103 0 l 238 633 q 235 672 242 653 q 201 692 229 692 q 153 668 175 692 q 99 603 131 644 l 63 554 l 39 572 l 71 615 q 128 690 101 656 q 184 744 154 724 q 254 764 214 764 q 329 724 311 764 q 326 622 347 683 l 249 400 l 269 400 q 421 672 343 581 q 593 764 499 764 q 676 738 646 764 q 706 675 706 713 q 684 619 706 643 q 624 594 663 594 q 566 619 585 594 q 553 685 547 643 l 557 717 q 453 657 510 717 q 344 492 397 597 q 251 247 292 386 l 181 0 l 103 0 m 426 806 l 501 1056 l 599 1056 l 443 806 l 426 806 z "},"ř":{"ha":694,"x_min":39,"x_max":706,"o":"m 103 0 l 238 633 q 235 672 242 653 q 201 692 229 692 q 153 668 175 692 q 99 603 131 644 l 63 554 l 39 572 l 71 615 q 128 690 101 656 q 184 744 154 724 q 254 764 214 764 q 329 724 311 764 q 326 622 347 683 l 249 400 l 269 400 q 421 672 343 581 q 593 764 499 764 q 676 738 646 764 q 706 675 706 713 q 684 619 706 643 q 624 594 663 594 q 566 619 585 594 q 553 685 547 643 l 557 717 q 453 657 510 717 q 344 492 397 597 q 251 247 292 386 l 181 0 l 103 0 m 411 806 l 371 1042 l 388 1042 l 457 894 l 590 1042 l 607 1042 l 467 806 l 411 806 z "},"ŗ":{"ha":694,"x_min":10,"x_max":706,"o":"m 103 0 l 238 633 q 235 672 242 653 q 201 692 229 692 q 153 668 175 692 q 99 603 131 644 l 63 554 l 39 572 l 71 615 q 128 690 101 656 q 184 744 154 724 q 254 764 214 764 q 329 724 311 764 q 326 622 347 683 l 249 400 l 269 400 q 421 672 343 581 q 593 764 499 764 q 676 738 646 764 q 706 675 706 713 q 684 619 706 643 q 624 594 663 594 q 566 619 585 594 q 553 685 547 643 l 557 717 q 453 657 510 717 q 344 492 397 597 q 251 247 292 386 l 181 0 l 103 0 m 21 -287 l 10 -265 q 72 -222 39 -249 q 110 -174 104 -196 q 65 -158 83 -174 q 46 -114 46 -142 q 69 -58 46 -81 q 125 -36 93 -36 q 169 -53 150 -36 q 188 -104 188 -71 q 160 -177 188 -142 q 94 -241 133 -212 q 21 -287 56 -269 z "},"s":{"ha":694,"x_min":79,"x_max":668,"o":"m 296 -14 q 136 24 193 -14 q 79 117 79 61 q 99 169 79 151 q 146 186 118 186 q 192 171 176 186 q 215 134 207 156 q 225 94 222 113 l 236 35 q 303 26 253 26 q 448 70 400 26 q 496 174 496 114 q 467 260 496 224 q 398 325 439 296 q 315 386 357 354 q 245 458 274 418 q 217 556 217 499 q 247 660 217 613 q 336 735 278 707 q 479 764 394 764 q 619 732 571 764 q 668 656 668 700 q 652 612 668 629 q 608 594 636 594 q 558 622 574 594 q 535 681 543 650 l 525 715 q 504 721 519 718 q 465 724 489 724 q 341 685 381 724 q 301 597 301 646 q 330 517 301 553 q 400 451 358 482 q 483 388 442 421 q 552 313 524 354 q 581 217 581 272 q 566 142 581 182 q 519 66 551 101 q 431 8 486 31 q 296 -14 376 -14 z "},"ś":{"ha":694,"x_min":79,"x_max":668,"o":"m 296 -14 q 136 24 193 -14 q 79 117 79 61 q 99 169 79 151 q 146 186 118 186 q 192 171 176 186 q 215 134 207 156 q 225 94 222 113 l 236 35 q 303 26 253 26 q 448 70 400 26 q 496 174 496 114 q 467 260 496 224 q 398 325 439 296 q 315 386 357 354 q 245 458 274 418 q 217 556 217 499 q 247 660 217 613 q 336 735 278 707 q 479 764 394 764 q 619 732 571 764 q 668 656 668 700 q 652 612 668 629 q 608 594 636 594 q 558 622 574 594 q 535 681 543 650 l 525 715 q 504 721 519 718 q 465 724 489 724 q 341 685 381 724 q 301 597 301 646 q 330 517 301 553 q 400 451 358 482 q 483 388 442 421 q 552 313 524 354 q 581 217 581 272 q 566 142 581 182 q 519 66 551 101 q 431 8 486 31 q 296 -14 376 -14 m 479 806 l 554 1056 l 651 1056 l 496 806 l 479 806 z "},"š":{"ha":694,"x_min":79,"x_max":668,"o":"m 296 -14 q 136 24 193 -14 q 79 117 79 61 q 99 169 79 151 q 146 186 118 186 q 192 171 176 186 q 215 134 207 156 q 225 94 222 113 l 236 35 q 303 26 253 26 q 448 70 400 26 q 496 174 496 114 q 467 260 496 224 q 398 325 439 296 q 315 386 357 354 q 245 458 274 418 q 217 556 217 499 q 247 660 217 613 q 336 735 278 707 q 479 764 394 764 q 619 732 571 764 q 668 656 668 700 q 652 612 668 629 q 608 594 636 594 q 558 622 574 594 q 535 681 543 650 l 525 715 q 504 721 519 718 q 465 724 489 724 q 341 685 381 724 q 301 597 301 646 q 330 517 301 553 q 400 451 358 482 q 483 388 442 421 q 552 313 524 354 q 581 217 581 272 q 566 142 581 182 q 519 66 551 101 q 431 8 486 31 q 296 -14 376 -14 m 464 806 l 424 1042 l 440 1042 l 510 894 l 643 1042 l 660 1042 l 519 806 l 464 806 z "},"ş":{"ha":694,"x_min":79,"x_max":668,"o":"m 296 -14 q 136 24 193 -14 q 79 117 79 61 q 99 169 79 151 q 146 186 118 186 q 192 171 176 186 q 215 134 207 156 q 225 94 222 113 l 236 35 q 303 26 253 26 q 448 70 400 26 q 496 174 496 114 q 467 260 496 224 q 398 325 439 296 q 315 386 357 354 q 245 458 274 418 q 217 556 217 499 q 247 660 217 613 q 336 735 278 707 q 479 764 394 764 q 619 732 571 764 q 668 656 668 700 q 652 612 668 629 q 608 594 636 594 q 558 622 574 594 q 535 681 543 650 l 525 715 q 504 721 519 718 q 465 724 489 724 q 341 685 381 724 q 301 597 301 646 q 330 517 301 553 q 400 451 358 482 q 483 388 442 421 q 552 313 524 354 q 581 217 581 272 q 566 142 581 182 q 519 66 551 101 q 431 8 486 31 q 296 -14 376 -14 m 278 -285 q 171 -262 214 -285 q 128 -204 128 -240 q 140 -169 128 -186 q 178 -153 151 -153 q 220 -176 211 -153 q 231 -218 229 -200 l 233 -251 q 252 -255 240 -253 q 278 -257 264 -257 q 344 -233 322 -257 q 365 -182 365 -210 q 335 -126 365 -146 q 261 -106 306 -106 q 234 -108 249 -106 q 206 -115 219 -110 l 194 -108 l 261 0 l 307 0 l 268 -58 q 362 -69 328 -53 q 410 -112 396 -86 q 425 -167 425 -139 q 413 -219 425 -192 q 369 -265 400 -246 q 278 -285 338 -285 z "},"ș":{"ha":694,"x_min":79,"x_max":668,"o":"m 296 -14 q 136 24 193 -14 q 79 117 79 61 q 99 169 79 151 q 146 186 118 186 q 192 171 176 186 q 215 134 207 156 q 225 94 222 113 l 236 35 q 303 26 253 26 q 448 70 400 26 q 496 174 496 114 q 467 260 496 224 q 398 325 439 296 q 315 386 357 354 q 245 458 274 418 q 217 556 217 499 q 247 660 217 613 q 336 735 278 707 q 479 764 394 764 q 619 732 571 764 q 668 656 668 700 q 652 612 668 629 q 608 594 636 594 q 558 622 574 594 q 535 681 543 650 l 525 715 q 504 721 519 718 q 465 724 489 724 q 341 685 381 724 q 301 597 301 646 q 330 517 301 553 q 400 451 358 482 q 483 388 442 421 q 552 313 524 354 q 581 217 581 272 q 566 142 581 182 q 519 66 551 101 q 431 8 486 31 q 296 -14 376 -14 m 189 -287 l 178 -265 q 240 -222 207 -249 q 278 -174 272 -196 q 233 -158 251 -174 q 214 -114 214 -142 q 238 -58 214 -81 q 293 -36 261 -36 q 337 -53 318 -36 q 356 -104 356 -71 q 328 -177 356 -142 q 263 -241 301 -212 q 189 -287 224 -269 z "},"ß":{"ha":694,"x_min":-278,"x_max":718,"o":"m -117 -264 q -190 -252 -153 -264 q -253 -216 -228 -240 q -278 -153 -278 -192 q -260 -102 -278 -121 q -212 -83 -242 -83 q -168 -99 -185 -83 q -143 -137 -151 -115 q -132 -178 -135 -158 l -126 -219 q -116 -222 -124 -221 q -99 -224 -108 -224 q -22 -189 -49 -224 q 20 -90 4 -154 q 54 60 36 -26 l 190 706 l 57 706 l 64 736 l 200 750 q 256 915 219 842 q 356 1031 293 988 q 513 1074 418 1074 q 665 1028 611 1074 q 718 915 718 983 q 694 835 718 867 q 636 781 671 804 q 566 733 601 757 q 507 677 531 710 q 483 593 483 644 q 501 515 483 550 q 544 450 518 481 q 594 388 569 419 q 637 317 619 356 q 654 226 654 278 q 628 114 654 169 q 549 22 603 58 q 413 -14 496 -14 q 278 22 333 -14 q 222 117 222 57 q 242 169 222 151 q 290 186 261 186 q 337 170 321 186 q 359 133 353 154 q 368 94 365 113 l 379 31 q 399 28 386 29 q 425 26 413 26 q 528 65 485 26 q 572 182 572 103 q 555 268 572 232 q 513 333 538 304 q 462 391 488 363 q 419 456 436 419 q 401 542 401 492 q 425 640 401 600 q 483 710 449 681 q 552 769 518 740 q 610 831 586 797 q 633 914 633 865 q 600 1001 633 968 q 506 1033 567 1033 q 408 1004 446 1033 q 347 930 369 975 q 313 837 325 885 q 293 750 301 789 l 147 60 q 131 -7 142 33 q 103 -92 121 -47 q 56 -175 85 -136 q -16 -239 26 -214 q -117 -264 -58 -264 z "},"t":{"ha":694,"x_min":68,"x_max":668,"o":"m 292 -14 q 169 45 203 -14 q 156 199 136 104 l 263 706 l 68 706 l 82 750 l 272 750 l 294 899 l 399 899 l 367 750 l 668 750 l 654 706 l 357 706 l 250 199 q 256 95 236 135 q 332 56 276 56 q 411 78 376 56 q 474 135 446 101 q 526 200 503 169 l 557 240 l 583 221 l 553 179 q 476 82 514 126 q 395 12 439 38 q 292 -14 351 -14 z "},"ŧ":{"ha":694,"x_min":47,"x_max":668,"o":"m 292 -14 q 169 45 203 -14 q 156 199 136 104 l 210 453 l 47 453 l 60 496 l 218 496 l 263 706 l 68 706 l 82 750 l 272 750 l 294 899 l 399 899 l 367 750 l 668 750 l 654 706 l 357 706 l 313 496 l 574 496 l 561 453 l 304 453 l 250 199 q 256 95 236 135 q 332 56 276 56 q 411 78 376 56 q 474 135 446 101 q 526 200 503 169 l 557 240 l 583 221 l 553 179 q 476 82 514 126 q 395 12 439 38 q 292 -14 351 -14 z "},"ť":{"ha":694,"x_min":68,"x_max":668,"o":"m 292 -14 q 169 45 203 -14 q 156 199 136 104 l 263 706 l 68 706 l 82 750 l 272 750 l 294 899 l 399 899 l 367 750 l 668 750 l 654 706 l 357 706 l 250 199 q 256 95 236 135 q 332 56 276 56 q 411 78 376 56 q 474 135 446 101 q 526 200 503 169 l 557 240 l 583 221 l 553 179 q 476 82 514 126 q 395 12 439 38 q 292 -14 351 -14 m 440 806 l 515 1056 l 613 1056 l 457 806 l 440 806 z "},"ţ":{"ha":694,"x_min":68,"x_max":668,"o":"m 292 -14 q 169 45 203 -14 q 156 199 136 104 l 263 706 l 68 706 l 82 750 l 272 750 l 294 899 l 399 899 l 367 750 l 668 750 l 654 706 l 357 706 l 250 199 q 256 95 236 135 q 332 56 276 56 q 411 78 376 56 q 474 135 446 101 q 526 200 503 169 l 557 240 l 583 221 l 553 179 q 476 82 514 126 q 395 12 439 38 q 292 -14 351 -14 m 253 -285 q 146 -262 189 -285 q 103 -204 103 -240 q 115 -169 103 -186 q 153 -153 126 -153 q 195 -176 186 -153 q 206 -218 204 -200 l 208 -251 q 227 -255 215 -253 q 253 -257 239 -257 q 319 -233 297 -257 q 340 -182 340 -210 q 310 -126 340 -146 q 236 -106 281 -106 q 209 -108 224 -106 q 181 -115 194 -110 l 169 -108 l 236 0 l 282 0 l 243 -58 q 337 -69 303 -53 q 385 -112 371 -86 q 400 -167 400 -139 q 388 -219 400 -192 q 344 -265 375 -246 q 253 -285 313 -285 z "},"ț":{"ha":694,"x_min":68,"x_max":668,"o":"m 292 -14 q 169 45 203 -14 q 156 199 136 104 l 263 706 l 68 706 l 82 750 l 272 750 l 294 899 l 399 899 l 367 750 l 668 750 l 654 706 l 357 706 l 250 199 q 256 95 236 135 q 332 56 276 56 q 411 78 376 56 q 474 135 446 101 q 526 200 503 169 l 557 240 l 583 221 l 553 179 q 476 82 514 126 q 395 12 439 38 q 292 -14 351 -14 m 164 -287 l 153 -265 q 215 -222 182 -249 q 253 -174 247 -196 q 208 -158 226 -174 q 189 -114 189 -142 q 213 -58 189 -81 q 268 -36 236 -36 q 312 -53 293 -36 q 331 -104 331 -71 q 303 -177 331 -142 q 238 -241 276 -212 q 164 -287 199 -269 z "},"u":{"ha":694,"x_min":53,"x_max":671,"o":"m 175 -14 q 80 46 106 -14 q 88 204 54 106 l 231 633 q 237 671 236 650 q 210 692 238 692 q 164 668 183 692 q 113 603 144 644 l 76 554 l 53 572 l 85 615 q 167 720 129 676 q 254 764 206 764 q 319 735 293 764 q 324 643 344 706 l 174 189 q 166 94 154 129 q 221 60 178 60 q 331 127 278 60 q 435 346 383 194 q 539 750 486 497 l 635 750 l 500 117 q 495 78 496 97 q 517 58 494 58 q 560 82 539 58 q 611 147 581 106 l 647 196 l 671 178 l 639 135 q 557 31 594 75 q 471 -14 519 -14 q 408 15 433 -14 q 404 107 383 44 l 482 343 l 461 343 q 417 227 443 289 q 357 110 392 165 q 277 21 322 56 q 175 -14 232 -14 z "},"ú":{"ha":694,"x_min":53,"x_max":671,"o":"m 175 -14 q 80 46 106 -14 q 88 204 54 106 l 231 633 q 237 671 236 650 q 210 692 238 692 q 164 668 183 692 q 113 603 144 644 l 76 554 l 53 572 l 85 615 q 167 720 129 676 q 254 764 206 764 q 319 735 293 764 q 324 643 344 706 l 174 189 q 166 94 154 129 q 221 60 178 60 q 331 127 278 60 q 435 346 383 194 q 539 750 486 497 l 635 750 l 500 117 q 495 78 496 97 q 517 58 494 58 q 560 82 539 58 q 611 147 581 106 l 647 196 l 671 178 l 639 135 q 557 31 594 75 q 471 -14 519 -14 q 408 15 433 -14 q 404 107 383 44 l 482 343 l 461 343 q 417 227 443 289 q 357 110 392 165 q 277 21 322 56 q 175 -14 232 -14 m 397 806 l 472 1056 l 569 1056 l 414 806 l 397 806 z "},"û":{"ha":694,"x_min":53,"x_max":671,"o":"m 175 -14 q 80 46 106 -14 q 88 204 54 106 l 231 633 q 237 671 236 650 q 210 692 238 692 q 164 668 183 692 q 113 603 144 644 l 76 554 l 53 572 l 85 615 q 167 720 129 676 q 254 764 206 764 q 319 735 293 764 q 324 643 344 706 l 174 189 q 166 94 154 129 q 221 60 178 60 q 331 127 278 60 q 435 346 383 194 q 539 750 486 497 l 635 750 l 500 117 q 495 78 496 97 q 517 58 494 58 q 560 82 539 58 q 611 147 581 106 l 647 196 l 671 178 l 639 135 q 557 31 594 75 q 471 -14 519 -14 q 408 15 433 -14 q 404 107 383 44 l 482 343 l 461 343 q 417 227 443 289 q 357 110 392 165 q 277 21 322 56 q 175 -14 232 -14 m 292 806 l 432 1042 l 488 1042 l 528 806 l 511 806 l 442 953 l 308 806 l 292 806 z "},"ü":{"ha":694,"x_min":53,"x_max":671,"o":"m 175 -14 q 80 46 106 -14 q 88 204 54 106 l 231 633 q 237 671 236 650 q 210 692 238 692 q 164 668 183 692 q 113 603 144 644 l 76 554 l 53 572 l 85 615 q 167 720 129 676 q 254 764 206 764 q 319 735 293 764 q 324 643 344 706 l 174 189 q 166 94 154 129 q 221 60 178 60 q 331 127 278 60 q 435 346 383 194 q 539 750 486 497 l 635 750 l 500 117 q 495 78 496 97 q 517 58 494 58 q 560 82 539 58 q 611 147 581 106 l 647 196 l 671 178 l 639 135 q 557 31 594 75 q 471 -14 519 -14 q 408 15 433 -14 q 404 107 383 44 l 482 343 l 461 343 q 417 227 443 289 q 357 110 392 165 q 277 21 322 56 q 175 -14 232 -14 m 514 840 q 473 856 489 840 q 457 894 457 871 q 483 953 457 928 q 543 979 510 979 q 584 964 568 979 q 600 925 600 949 q 574 866 600 892 q 514 840 547 840 m 318 840 q 277 856 293 840 q 261 894 261 871 q 288 953 261 928 q 347 979 314 979 q 388 964 372 979 q 404 925 404 949 q 378 866 404 892 q 318 840 351 840 z "}}}
